<svg xmlns="http://www.w3.org/2000/svg" xmlns:xlink="http://www.w3.org/1999/xlink" width="500" zoomAndPan="magnify" viewBox="0 0 375 374.999991" height="500" preserveAspectRatio="xMidYMid meet" version="1.0"><defs><clipPath id="5ac70a332a"><path d="M 14.777344 14.777344 L 360.527344 14.777344 L 360.527344 360.527344 L 14.777344 360.527344 Z M 14.777344 14.777344 " clip-rule="nonzero"/></clipPath></defs><rect x="-37.5" width="450" fill="#ffffff" y="-37.499999" height="449.999989" fill-opacity="1"/><rect x="-37.5" width="450" fill="#ffffff" y="-37.499999" height="449.999989" fill-opacity="1"/><g clip-path="url(#5ac70a332a)"><path fill="#000000" d="M 18.875 99.195312 C 22.136719 56.121094 56.121094 22.136719 99.195312 18.875 C 128.265625 16.671875 160.988281 14.777344 187.496094 14.777344 C 214 14.777344 246.722656 16.671875 275.792969 18.875 C 318.867188 22.136719 352.851562 56.121094 356.113281 99.195312 C 358.316406 128.265625 360.210938 160.988281 360.210938 187.496094 C 360.210938 214 358.316406 246.722656 356.113281 275.792969 C 352.851562 318.867188 318.867188 352.851562 275.792969 356.113281 C 246.722656 358.316406 214 360.210938 187.496094 360.210938 C 160.988281 360.210938 128.265625 358.316406 99.195312 356.113281 C 56.121094 352.851562 22.136719 318.867188 18.875 275.792969 C 16.671875 246.722656 14.777344 214 14.777344 187.496094 C 14.777344 160.988281 16.671875 128.265625 18.875 99.195312 Z M 18.875 99.195312 " fill-opacity="1" fill-rule="nonzero"/></g><path fill="#fe6604" d="M 185.53125 117.847656 C 169.398438 117.847656 156.324219 130.921875 156.324219 147.054688 C 156.324219 163.183594 169.398438 176.261719 185.53125 176.261719 C 201.660156 176.261719 214.738281 163.183594 214.738281 147.054688 C 214.738281 130.921875 201.660156 117.847656 185.53125 117.847656 Z M 142.84375 147.054688 C 142.84375 123.476562 161.953125 104.367188 185.53125 104.367188 C 209.105469 104.367188 228.21875 123.476562 228.21875 147.054688 C 228.21875 170.628906 209.105469 189.742188 185.53125 189.742188 C 161.953125 189.742188 142.84375 170.628906 142.84375 147.054688 Z M 142.84375 147.054688 " fill-opacity="1" fill-rule="evenodd"/><path fill="#fe6604" d="M 120.71875 266.128906 L 203.5 266.128906 C 207.222656 266.128906 210.242188 269.148438 210.242188 272.871094 C 210.242188 276.59375 207.222656 279.609375 203.5 279.609375 L 113.632812 279.609375 C 109.910156 279.609375 106.894531 276.59375 106.894531 272.871094 C 106.894531 229.441406 142.101562 194.234375 185.527344 194.234375 C 228.957031 194.234375 264.164062 229.441406 264.164062 272.871094 C 264.164062 276.59375 261.148438 279.609375 257.425781 279.609375 L 239.449219 279.609375 C 235.726562 279.609375 232.710938 276.59375 232.710938 272.871094 C 232.710938 269.148438 235.726562 266.128906 239.449219 266.128906 L 250.339844 266.128906 C 246.964844 233.3125 219.234375 207.714844 185.527344 207.714844 C 151.820312 207.714844 124.089844 233.3125 120.71875 266.128906 Z M 120.71875 266.128906 " fill-opacity="1" fill-rule="evenodd"/><path fill="#fe6604" d="M 111.390625 102.117188 C 111.390625 98.394531 114.410156 95.378906 118.132812 95.378906 L 145.09375 95.378906 C 148.8125 95.378906 151.832031 98.394531 151.832031 102.117188 C 151.832031 105.839844 148.8125 108.859375 145.09375 108.859375 L 124.871094 108.859375 L 124.871094 133.574219 C 124.871094 137.296875 121.855469 140.3125 118.132812 140.3125 C 114.410156 140.3125 111.390625 137.296875 111.390625 133.574219 Z M 219.234375 102.117188 C 219.234375 98.394531 222.25 95.378906 225.972656 95.378906 L 252.933594 95.378906 C 256.65625 95.378906 259.675781 98.394531 259.675781 102.117188 L 259.675781 133.574219 C 259.675781 137.296875 256.65625 140.3125 252.933594 140.3125 C 249.210938 140.3125 246.195312 137.296875 246.195312 133.574219 L 246.195312 108.859375 L 225.972656 108.859375 C 222.25 108.859375 219.234375 105.839844 219.234375 102.117188 Z M 118.132812 153.792969 C 121.855469 153.792969 124.871094 156.8125 124.871094 160.535156 L 124.871094 185.246094 L 145.09375 185.246094 C 148.8125 185.246094 151.832031 188.265625 151.832031 191.988281 C 151.832031 195.710938 148.8125 198.726562 145.09375 198.726562 L 118.132812 198.726562 C 114.410156 198.726562 111.390625 195.710938 111.390625 191.988281 L 111.390625 160.535156 C 111.390625 156.8125 114.410156 153.792969 118.132812 153.792969 Z M 252.933594 153.792969 C 256.65625 153.792969 259.675781 156.8125 259.675781 160.535156 L 259.675781 191.988281 C 259.675781 195.710938 256.65625 198.726562 252.933594 198.726562 L 225.972656 198.726562 C 222.25 198.726562 219.234375 195.710938 219.234375 191.988281 C 219.234375 188.265625 222.25 185.246094 225.972656 185.246094 L 246.195312 185.246094 L 246.195312 160.535156 C 246.195312 156.8125 249.210938 153.792969 252.933594 153.792969 Z M 252.933594 153.792969 " fill-opacity="1" fill-rule="evenodd"/></svg>