<svg xmlns="http://www.w3.org/2000/svg" xmlns:xlink="http://www.w3.org/1999/xlink" width="1080" zoomAndPan="magnify" viewBox="0 0 810 809.999993" height="1080" preserveAspectRatio="xMidYMid meet" version="1.0"><defs><clipPath id="9445de5f35"><path d="M 123.472656 310 L 255 310 L 255 563 L 123.472656 563 Z M 123.472656 310 " clip-rule="nonzero"/></clipPath></defs><rect x="-81" width="972" fill="#ffffff" y="-80.999999" height="971.999992" fill-opacity="1"/><rect x="-81" width="972" fill="#ffffff" y="-80.999999" height="971.999992" fill-opacity="1"/><path fill="#fe6604" d="M 441.019531 398.625 C 435.113281 407.234375 432.527344 416.421875 431.792969 426.25 C 430.863281 438.707031 431.449219 451.179688 431.386719 463.644531 C 431.347656 470.933594 430.527344 472.167969 423.808594 474.921875 C 422.710938 475.375 421.574219 475.757812 420.433594 476.109375 C 411.472656 478.910156 407.960938 476.867188 406.042969 467.742188 C 405.941406 467.25 405.703125 466.78125 405.496094 466.222656 C 403.648438 467.042969 403.050781 468.761719 402.074219 470.109375 C 398.847656 474.523438 395.347656 478.6875 390.851562 481.847656 C 380.875 488.84375 370.511719 486.25 364.949219 475.472656 C 364.648438 474.890625 364.335938 474.308594 363.890625 473.472656 C 361.566406 476.875 359.640625 480.328125 357.117188 483.265625 C 349.722656 491.875 340.53125 496.261719 328.933594 494.242188 C 325.875 493.707031 323.027344 492.523438 320.695312 490.5 C 318.800781 488.851562 317.734375 489.347656 316.140625 490.984375 C 310.285156 497.011719 303.78125 502.207031 295.996094 505.628906 C 282.601562 511.511719 270.621094 505.710938 267.292969 491.472656 C 265.097656 482.078125 265.40625 472.519531 265.925781 462.960938 C 266.753906 447.589844 268.425781 432.292969 270.527344 417.058594 C 270.980469 413.785156 269.960938 413.675781 267.246094 414.039062 C 260.679688 414.925781 254.089844 415.753906 247.445312 414.527344 C 241.816406 413.492188 238.386719 410.984375 237.644531 407.117188 C 236.730469 402.332031 238.726562 397.988281 243.390625 394.960938 C 248.074219 391.929688 253.523438 391.148438 258.792969 389.890625 C 263.042969 388.875 267.351562 388.070312 271.65625 387.28125 C 273.902344 386.867188 274.925781 385.855469 275.230469 383.414062 C 276.648438 371.96875 278.367188 360.5625 279.878906 349.125 C 281.214844 339 283.554688 336.769531 293.878906 336.1875 C 305.601562 335.527344 309.234375 339.207031 308.023438 350.777344 C 307.132812 359.328125 306.066406 367.859375 305 377.101562 C 307.394531 376.351562 309.472656 375.738281 311.515625 375.0625 C 322.085938 371.5625 332.539062 367.691406 343.316406 364.851562 C 345.917969 364.167969 348.546875 363.945312 351.203125 364.167969 C 355.152344 364.492188 356.503906 366.90625 354.824219 370.496094 C 353.964844 372.332031 352.523438 373.71875 351.058594 375.078125 C 341.707031 383.738281 330.875 390.097656 319.359375 395.359375 C 313.808594 397.890625 308.207031 400.285156 302.585938 402.667969 C 301.035156 403.328125 299.945312 404.011719 299.648438 405.9375 C 296.730469 424.9375 293.3125 443.882812 293.132812 463.191406 C 293.089844 467.171875 293.105469 471.175781 294.292969 475.027344 C 295.6875 479.554688 298.933594 480.964844 303.28125 479.015625 C 308.53125 476.660156 309.820312 474.152344 309.441406 468.792969 C 308.078125 449.277344 311.914062 431.011719 323.585938 414.957031 C 330.085938 406.019531 338.691406 399.753906 349.523438 396.921875 C 354.90625 395.511719 360.300781 395.113281 365.316406 398.175781 C 366.964844 399.179688 367.304688 398.402344 367.710938 397.0625 C 368.054688 395.925781 368.53125 394.820312 368.992188 393.71875 C 371.539062 387.703125 374.722656 385.945312 380.40625 387.394531 C 386.734375 389.007812 390.578125 393.609375 389.886719 399.210938 C 388.453125 410.800781 386.988281 422.375 387.085938 434.082031 C 387.125 439.257812 387.179688 444.4375 388.183594 449.539062 C 388.613281 451.714844 388.867188 454.308594 391.527344 454.9375 C 394.160156 455.558594 395.59375 453.382812 397.003906 451.671875 C 399.46875 448.671875 401.1875 445.203125 402.375 441.53125 C 404.652344 434.472656 406.425781 427.390625 406.425781 419.789062 C 406.417969 407.457031 406.976562 395.121094 407.660156 382.808594 C 408.136719 374.1875 415.753906 369.117188 423.609375 371.648438 C 427.398438 372.867188 429.316406 375.738281 430.671875 379.472656 C 432.605469 377.667969 433.226562 375.292969 434.460938 373.335938 C 439.394531 365.519531 446.289062 361.390625 455.671875 361.730469 C 460.390625 361.90625 461.871094 363.878906 460.527344 368.425781 C 459.921875 370.453125 459.101562 372.421875 458.441406 374.433594 C 457.78125 376.449219 457.128906 378.492188 457.214844 380.652344 C 457.335938 383.613281 457.4375 386.773438 461.148438 387.527344 C 463.6875 388.046875 467.816406 384.628906 468.289062 381.628906 C 470 370.765625 471.519531 359.859375 473.222656 348.996094 C 473.722656 345.773438 471.503906 346.328125 469.792969 346.265625 C 453.722656 345.644531 438.082031 348.191406 422.734375 352.824219 C 413.75 355.53125 405.636719 359.957031 397.996094 365.328125 C 394.835938 367.550781 391.621094 369.683594 387.640625 370.097656 C 383.066406 370.574219 380.175781 368.625 379.269531 364.101562 C 377.238281 353.921875 381.179688 345.851562 388.84375 339.515625 C 396.699219 333.011719 406.195312 329.886719 415.976562 327.769531 C 435.03125 323.636719 454.320312 322.507812 473.730469 324.378906 C 476.851562 324.679688 477.839844 323.796875 478.164062 320.714844 C 478.675781 315.988281 479.359375 311.234375 480.847656 306.675781 C 483.441406 298.746094 489.617188 294.226562 496.417969 295.246094 C 503.308594 296.273438 508.085938 302.28125 508.226562 310.496094 C 508.300781 314.59375 508.09375 318.71875 507.710938 322.800781 C 507.496094 325.125 507.695312 326.222656 510.472656 325.960938 C 526.925781 324.410156 542.996094 321.183594 558.453125 315.246094 C 565.964844 312.359375 572.5 307.886719 578.6875 302.800781 C 583.980469 298.445312 588.769531 300.15625 590.417969 306.875 C 591.785156 312.476562 589.867188 317.355469 586.707031 321.824219 C 583.183594 326.8125 578.257812 330.1875 572.988281 333.085938 C 557.777344 341.449219 541.109375 344.371094 524.132812 346.066406 C 518.066406 346.671875 511.976562 347.125 505.878906 347.429688 C 503.777344 347.53125 502.878906 348.183594 502.449219 350.269531 C 498.390625 369.867188 492.953125 389.175781 490.4375 409.082031 C 489.738281 414.621094 489.554688 420.195312 490.023438 425.765625 C 490.933594 436.519531 499.570312 440.554688 508.546875 434.578125 C 509.980469 433.621094 509.921875 432.640625 509.644531 431.21875 C 504.726562 405.730469 511.5 383.4375 528.476562 364.160156 C 535.625 356.039062 544.46875 351.019531 555.800781 352.25 C 565.402344 353.300781 570.835938 359.175781 571.386719 368.75 C 571.730469 374.671875 570.597656 380.386719 568.785156 385.960938 C 563.484375 402.253906 555.769531 417.042969 541.90625 427.8125 C 539.46875 429.707031 540.1875 430.746094 542.070312 432.261719 C 546.011719 435.421875 550.492188 435.992188 555.238281 435.101562 C 564.070312 433.453125 570.996094 428.449219 577.292969 422.359375 C 578.4375 421.253906 578.167969 420.011719 578.058594 418.671875 C 576.1875 395.980469 581.871094 375.191406 594.890625 356.660156 C 605.253906 341.921875 622.199219 336.109375 639.464844 340.519531 C 642.171875 341.210938 643.023438 340.804688 643.644531 338.003906 C 647.671875 319.625 651.238281 301.128906 657.0625 283.1875 C 659.15625 276.738281 661.617188 270.453125 664.957031 264.546875 C 666.191406 262.363281 667.554688 260.183594 669.21875 258.328125 C 674.351562 252.589844 681.976562 253.863281 684.898438 260.957031 C 687.164062 266.464844 687.300781 272.347656 687.109375 278.195312 C 686.59375 294.171875 683.496094 309.78125 680.480469 325.410156 C 676.445312 346.257812 670.308594 366.585938 665.515625 387.242188 C 663.621094 395.40625 662.722656 403.742188 664.273438 412.113281 C 665.324219 417.765625 667.117188 423.320312 673.230469 425.160156 C 679.132812 426.941406 683.742188 423.578125 687.652344 419.550781 C 689.953125 417.183594 691.878906 414.453125 693.980469 411.890625 C 695.570312 409.949219 697.339844 408.34375 700.09375 409.464844 C 702.910156 410.617188 702.804688 413.148438 702.648438 415.554688 C 701.859375 427.429688 689.117188 440.992188 676.230469 443.0625 C 663.152344 445.164062 651.683594 441.996094 643.4375 430.890625 C 641.613281 428.433594 640.769531 429.570312 639.359375 431.035156 C 628.863281 441.929688 616.359375 447.335938 601.019531 444.921875 C 596.171875 444.167969 591.746094 442.359375 588.191406 439.050781 C 585.9375 436.949219 584.757812 437.332031 582.871094 439.441406 C 572.460938 451.035156 559.464844 456.925781 543.785156 456.6875 C 536.238281 456.578125 529.359375 454.460938 523.511719 449.667969 C 521.417969 447.949219 520.246094 448.035156 518.3125 449.929688 C 510.625 457.476562 501.941406 463.351562 491.117188 465.546875 C 475.117188 468.785156 463.519531 460.414062 461.894531 444.238281 C 460.734375 432.632812 462.980469 421.226562 464.085938 409.765625 C 464.339844 407.132812 464.164062 406.128906 461.179688 406.636719 C 453.085938 408.023438 446.214844 405.875 441.027344 398.648438 Z M 604.523438 403.328125 C 604.625 405.316406 604.632812 406.78125 604.792969 408.230469 C 605.972656 418.839844 613.597656 422.644531 622.972656 417.328125 C 627.914062 414.527344 631.695312 410.484375 635.109375 406.027344 C 635.796875 405.132812 636.042969 404.21875 635.953125 403.082031 C 635.109375 392.058594 635.769531 381.082031 637.292969 370.167969 C 637.691406 367.285156 636.589844 366.425781 634.035156 366.101562 C 627.988281 365.328125 623.058594 367.714844 618.898438 371.6875 C 609.75 380.421875 605.046875 391.230469 604.523438 403.335938 Z M 362.894531 423.695312 C 363.007812 421.707031 362.9375 419.691406 363.269531 417.742188 C 363.882812 414.183594 361.664062 413.261719 358.964844 413.023438 C 355.699219 412.734375 352.859375 414.289062 350.8125 416.554688 C 339.503906 429.171875 335.890625 444.214844 337.355469 460.761719 C 337.363281 460.890625 337.433594 461.019531 337.472656 461.144531 C 339.351562 467.121094 344.269531 468.722656 349.214844 464.839844 C 352.953125 461.894531 355.367188 457.9375 357.125 453.574219 C 361 443.992188 362.753906 433.996094 362.894531 423.695312 Z M 533.46875 411.414062 C 542.238281 403.503906 549.480469 394.621094 553.023438 383.191406 C 553.933594 380.269531 554.503906 377.277344 554.335938 374.195312 C 554.21875 371.902344 554.074219 369.492188 551.464844 368.609375 C 548.871094 367.726562 547.023438 369.4375 545.742188 371.242188 C 537.234375 383.183594 532.050781 396.21875 533.476562 411.421875 Z M 533.46875 411.414062 " fill-opacity="1" fill-rule="nonzero"/><path fill="#fe6604" d="M 476.683594 263.605469 C 472.378906 271.222656 468.113281 278.09375 462.796875 284.214844 C 454.550781 293.710938 445.054688 301.335938 432.519531 304.382812 C 413.097656 309.101562 395.679688 301.941406 385.523438 284.722656 C 383.621094 281.492188 382.03125 280.640625 378.371094 281.851562 C 369.238281 284.851562 369.183594 284.644531 369.328125 294.226562 C 369.519531 307.089844 369.773438 319.960938 369.222656 332.824219 C 368.785156 343.121094 366.929688 345.597656 357.023438 348.703125 C 354.753906 349.410156 352.414062 349.953125 350.066406 350.347656 C 343.65625 351.441406 340.21875 348.894531 339.496094 342.324219 C 339.042969 338.242188 338.921875 334.128906 338.800781 330.011719 C 338.605469 323.382812 338.453125 316.753906 338.429688 310.121094 C 338.421875 307.105469 337.832031 306.339844 334.933594 308.171875 C 326.734375 313.351562 318.132812 317.777344 309.027344 321.160156 C 282.625 330.976562 258.195312 324.449219 242.523438 303.316406 C 236.21875 294.816406 231.414062 285.519531 228.914062 275.210938 C 220.085938 238.75 225.5625 204.070312 242.929688 171.203125 C 252.933594 152.277344 266.457031 136.230469 285.066406 125.03125 C 299.90625 116.101562 315.902344 111.652344 333.328125 113.53125 C 354.242188 115.789062 367.902344 129.066406 370.984375 149.945312 C 374.90625 176.53125 358.476562 198.746094 332.035156 202.460938 C 326.011719 203.304688 319.78125 203.773438 316.140625 197.375 C 312.21875 190.46875 311.851562 183.222656 315.625 176.09375 C 317.28125 172.957031 320.488281 171.699219 323.757812 170.855469 C 326.839844 170.066406 330.015625 169.613281 333.03125 168.648438 C 339.488281 166.582031 342.65625 162.546875 342.574219 156.964844 C 342.480469 150.152344 337.964844 143.722656 331.917969 142.183594 C 324.101562 140.203125 316.9375 142.230469 310.25 146.300781 C 303.859375 150.191406 298.042969 154.886719 293.472656 160.800781 C 269.425781 191.890625 261.101562 226.683594 269.523438 265.238281 C 270.574219 270.039062 272.414062 274.605469 274.738281 278.960938 C 284.488281 297.210938 302.785156 302.003906 320.152344 290.773438 C 327.660156 285.917969 333.292969 279.269531 337.75 271.597656 C 340.050781 267.632812 338.746094 263.273438 338.722656 259.101562 C 338.683594 251.976562 338.5625 252.050781 331.757812 253.59375 C 322.582031 255.679688 313.363281 257.667969 303.972656 258.519531 C 297.652344 259.09375 295.8125 257.621094 294.738281 251.46875 C 293.894531 246.628906 293.535156 241.734375 293.433594 236.824219 C 293.371094 233.949219 294.484375 232.09375 297.316406 231.125 C 317.289062 224.277344 337.632812 218.800781 358.335938 214.6875 C 364.027344 213.558594 365.761719 215.070312 366.527344 220.886719 C 368.09375 232.890625 368.054688 244.972656 368.109375 257.039062 C 368.125 260.144531 368.714844 261.601562 372.027344 259.9375 C 373.085938 259.402344 374.246094 259.023438 375.398438 258.765625 C 378.042969 258.1875 378.734375 256.625 378.910156 253.960938 C 380.144531 235.160156 385.46875 217.71875 397.28125 202.722656 C 404.492188 193.578125 413.875 187.554688 425.28125 184.925781 C 442.792969 180.890625 456.609375 191.527344 456.539062 209.53125 C 456.4375 235.582031 443.828125 253.992188 420.785156 265.582031 C 419.71875 266.113281 418.621094 266.582031 417.53125 267.078125 C 412.59375 269.304688 412.460938 269.816406 416.214844 273.660156 C 421.628906 279.199219 428.050781 280.441406 435.191406 277.6875 C 442.699219 274.789062 448.546875 269.648438 453.507812 263.449219 C 459.378906 256.101562 462.898438 247.578125 466.257812 238.859375 C 471.535156 225.171875 472.785156 210.796875 474.726562 196.492188 C 475.921875 187.6875 477.386719 178.925781 478.839844 170.164062 C 479.222656 167.863281 478.859375 166.867188 476.222656 166.652344 C 454.507812 164.878906 433.019531 165.402344 412.03125 172.121094 C 406.316406 173.949219 400.855469 176.265625 395.761719 179.457031 C 394.644531 180.160156 393.46875 180.835938 392.226562 181.234375 C 388.628906 182.394531 386.40625 180.683594 386.75 176.917969 C 387.101562 173.027344 388.566406 169.453125 390.660156 166.175781 C 397.65625 155.214844 407.851562 148.296875 419.703125 143.640625 C 432.121094 138.769531 445.101562 137.195312 458.371094 137.824219 C 465.914062 138.179688 473.46875 138.644531 481 139.3125 C 483.746094 139.558594 484.898438 139.128906 485.433594 136.070312 C 486.890625 127.722656 488.6875 119.414062 491.511719 111.390625 C 494.1875 103.796875 498.757812 100.09375 504.519531 100.789062 C 510.25 101.472656 514.515625 106.726562 515.335938 114.285156 C 516.210938 122.414062 514.976562 130.453125 513.902344 138.460938 C 513.449219 141.867188 514.140625 143.074219 517.84375 143.195312 C 528.867188 143.546875 539.851562 143.703125 550.765625 141.738281 C 558.183594 140.402344 565.027344 137.6875 571.148438 133.246094 C 573.265625 131.710938 575.519531 130.148438 577.960938 132.15625 C 580.382812 134.136719 579.363281 136.835938 578.375 139.128906 C 574.332031 148.480469 567.296875 155.238281 558.898438 160.609375 C 547.09375 168.15625 533.875 170.550781 520.121094 170.433594 C 509.589844 170.34375 509.597656 170.21875 508.246094 180.566406 C 506.109375 196.851562 502.664062 213 503.261719 229.570312 C 503.507812 236.371094 504.175781 243.085938 506.53125 249.503906 C 510.027344 259.039062 518.796875 261.761719 527.292969 256.039062 C 531.597656 253.132812 534.453125 249.007812 536.851562 244.519531 C 538.402344 241.597656 539.730469 238.542969 541.425781 235.699219 C 543.371094 232.4375 546.21875 232.09375 549.019531 234.632812 C 550.613281 236.074219 551.789062 237.898438 552.386719 239.960938 C 555.324219 250.117188 555.207031 259.914062 548.414062 268.707031 C 541.046875 278.269531 531.582031 284.890625 519.792969 287.652344 C 505.816406 290.929688 494.578125 285.726562 485.257812 275.5 C 482.128906 272.066406 479.566406 268.183594 476.683594 263.582031 Z M 409.070312 248.285156 C 414.332031 245.601562 418.390625 242.066406 421.9375 238.023438 C 428.347656 230.71875 432.765625 222.367188 433.808594 212.546875 C 434.246094 208.414062 432.519531 207.183594 428.625 208.589844 C 425.296875 209.800781 422.703125 212.035156 420.523438 214.773438 C 415.738281 220.777344 412.738281 227.660156 410.699219 234.984375 C 409.546875 239.140625 408.472656 243.339844 409.078125 248.292969 Z M 409.070312 248.285156 " fill-opacity="1" fill-rule="nonzero"/><path fill="#fe6604" d="M 544.445312 605.1875 C 542.175781 613.578125 539.746094 621.105469 535.480469 627.863281 C 527.722656 640.136719 512.996094 642.390625 501.890625 633.007812 C 498.613281 630.238281 496.027344 626.894531 493.871094 623.199219 C 489.085938 615.011719 486.914062 606.039062 485.996094 596.71875 C 484.960938 586.15625 484.308594 575.5625 484.300781 564.945312 C 484.300781 563.972656 484.890625 562.613281 483.746094 562.0625 C 482.644531 561.53125 481.835938 562.722656 481.03125 563.320312 C 477.535156 565.90625 472.109375 566.632812 470.339844 570.382812 C 468.667969 573.921875 469.703125 578.707031 469.402344 582.941406 C 468.160156 600.316406 464.347656 617.078125 456.179688 632.5625 C 447.753906 648.550781 435.105469 658.605469 416.207031 658.960938 C 403.785156 659.203125 394.566406 653.558594 388.128906 643.234375 C 382.429688 634.097656 380.34375 623.871094 379.875 613.257812 C 378.988281 593.34375 380.734375 573.773438 387.921875 554.964844 C 389.773438 550.109375 392.132812 545.507812 395.140625 541.273438 C 398.808594 536.109375 402.703125 531.101562 406.417969 525.960938 C 417.578125 510.527344 443.820312 510.828125 455.792969 526.085938 C 460.621094 532.253906 463.542969 539.347656 465.722656 546.757812 C 466.578125 549.664062 467.445312 550.433594 470.15625 548.375 C 475.171875 544.570312 479.597656 540.261719 483.265625 535.152344 C 484.175781 533.886719 484.4375 532.589844 484.398438 531.070312 C 484.269531 526.5625 484.398438 522.042969 484.160156 517.546875 C 483.921875 513.113281 486.011719 510.175781 489.644531 508.195312 C 495.46875 505.019531 501.78125 504.4375 508.179688 505.695312 C 512.734375 506.585938 514.628906 509.132812 514.554688 514.402344 C 514.398438 526.730469 513.886719 539.0625 513.679688 551.398438 C 513.441406 565.582031 513.003906 579.789062 515.496094 593.871094 C 515.957031 596.480469 516.425781 599.082031 517.613281 601.511719 C 518.972656 604.289062 520.707031 604.566406 522.84375 602.394531 C 525.238281 599.957031 526.441406 596.886719 527.378906 593.671875 C 531.152344 580.730469 532.273438 567.363281 533.628906 554.046875 C 534.996094 540.589844 535.886719 527.089844 536.339844 513.558594 C 536.613281 505.488281 540.789062 500.917969 548.902344 499.765625 C 553.519531 499.113281 558.191406 499.199219 562.789062 499.933594 C 569.507812 501 572.199219 504.015625 572.484375 510.90625 C 572.8125 518.890625 571.277344 526.761719 570.734375 534.691406 C 569.523438 552.425781 568.109375 570.160156 571.109375 587.859375 C 571.554688 590.488281 572.238281 593.066406 573.535156 595.398438 C 575.566406 599.042969 578.566406 599.25 581.019531 595.859375 C 583.375 592.605469 584.886719 588.871094 585.976562 585.050781 C 593.976562 556.875 595.527344 528.410156 589.246094 499.699219 C 587.503906 491.75 584.210938 484.347656 579.570312 477.597656 C 577.992188 475.296875 576.5625 472.917969 575.78125 470.195312 C 573.589844 462.570312 579.617188 456.21875 587.371094 457.984375 C 590.839844 458.78125 593.679688 460.714844 596.292969 463.007812 C 607.484375 472.855469 612.863281 485.796875 615.753906 499.988281 C 620.726562 524.445312 618.03125 548.5625 612.066406 572.476562 C 608.683594 586.054688 603.789062 599.050781 596.5625 611.085938 C 592.917969 617.152344 588.660156 622.738281 582.738281 626.796875 C 573.925781 632.847656 565.195312 632.164062 557.417969 624.832031 C 552.730469 620.40625 549.15625 615.175781 546.480469 609.320312 C 545.949219 608.148438 545.351562 607.011719 544.460938 605.179688 Z M 407.101562 596.964844 C 407.007812 604.796875 407.253906 612.621094 409.492188 620.183594 C 411.359375 626.503906 414.25 632.332031 421.636719 633.363281 C 428.855469 634.375 433.335938 629.734375 436.648438 624.234375 C 444.6875 610.871094 447.6875 596.035156 448.636719 580.671875 C 448.753906 578.683594 448.101562 578.15625 446.128906 578.523438 C 434.308594 580.703125 423.179688 578.652344 412.921875 572.46875 C 410 570.707031 409.386719 571.855469 408.949219 574.433594 C 407.667969 581.890625 407.070312 589.40625 407.109375 596.964844 Z M 441.441406 557.925781 C 446.527344 558.042969 447.5625 557.703125 447.824219 556.164062 C 448.597656 551.589844 443.40625 540.683594 439.226562 538.097656 C 434.117188 534.929688 428.730469 535.886719 425.527344 540.507812 C 422.855469 544.378906 423.960938 549.65625 428.363281 553.148438 C 432.453125 556.398438 437.277344 557.695312 441.441406 557.925781 Z M 441.441406 557.925781 " fill-opacity="1" fill-rule="nonzero"/><g clip-path="url(#9445de5f35)"><path fill="#fe6604" d="M 123.472656 501.253906 C 123.640625 495.019531 124.007812 489.328125 125.648438 483.8125 C 133.097656 458.828125 158.113281 447.183594 183.179688 457.015625 C 197.832031 462.761719 203.722656 476.394531 197.871094 491.03125 C 194.542969 499.367188 188.390625 501.492188 180.765625 496.789062 C 176.96875 494.449219 173.164062 492.464844 168.507812 492.96875 C 163.191406 493.539062 159.769531 496.542969 158.589844 501.769531 C 156.699219 510.199219 161.550781 520.195312 170.03125 525.300781 C 184.414062 533.957031 204.527344 529.328125 213.71875 515.230469 C 225.003906 497.925781 223.359375 473.371094 209.882812 457.714844 C 206.054688 453.265625 201.613281 449.515625 196.867188 446.070312 C 184.402344 437.035156 172.003906 427.890625 161.808594 416.199219 C 144.796875 396.679688 138.429688 374.402344 146.230469 349.3125 C 157.34375 313.585938 204.214844 298.308594 233.570312 320.460938 C 250.101562 332.933594 255.800781 355.417969 247.03125 373.566406 C 242.300781 383.339844 234.515625 388.800781 223.714844 389.78125 C 220.5625 390.066406 217.355469 389.941406 214.179688 389.828125 C 198.367188 389.285156 191.980469 371.117188 198.0625 359.636719 C 201.757812 352.671875 207 351.796875 213.074219 356.941406 C 214.085938 357.792969 215.128906 358.636719 216.25 359.320312 C 219.1875 361.101562 222.234375 361.636719 225.140625 359.304688 C 228.0625 356.964844 229.382812 354.003906 228.429688 350.175781 C 226.039062 340.550781 214.132812 333.507812 203.238281 335.363281 C 184.636719 338.519531 172.917969 359.789062 179.804688 378.023438 C 182.675781 385.648438 187.636719 391.882812 193.636719 397.214844 C 203.054688 405.589844 212.746094 413.644531 222.164062 422.007812 C 237.222656 435.378906 248.089844 451.371094 252.355469 471.375 C 255.277344 485.054688 255.863281 498.824219 252.257812 512.386719 C 245.054688 539.464844 225.921875 554.128906 199.863281 560.734375 C 186.242188 564.1875 172.703125 562.597656 159.675781 557.335938 C 137.417969 548.347656 126.632812 531.003906 123.921875 507.867188 C 123.640625 505.503906 123.59375 503.109375 123.472656 501.238281 Z M 123.472656 501.253906 " fill-opacity="1" fill-rule="nonzero"/></g><path fill="#fe6604" d="M 337.761719 611.429688 C 337.761719 606.699219 337.703125 601.972656 337.769531 597.238281 C 338.117188 569.917969 339.488281 542.617188 339.207031 515.277344 C 339.136719 508.488281 341.085938 506.394531 347.828125 505.144531 C 352.429688 504.285156 357.078125 504.238281 361.710938 504.621094 C 367.917969 505.136719 370.496094 507.820312 370.695312 514.035156 C 371.207031 530.226562 370.140625 546.390625 369.460938 562.558594 C 368.078125 595.550781 366.542969 628.542969 365.054688 661.535156 C 364.941406 664.046875 364.550781 666.5625 364.605469 669.078125 C 364.734375 674.675781 361.652344 677.5625 356.671875 679.003906 C 356.542969 679.042969 356.425781 679.101562 356.296875 679.140625 C 344.882812 682.714844 340.5625 681.265625 334.34375 671.125 C 323.789062 653.925781 314.882812 635.847656 306.058594 617.722656 C 302.253906 609.925781 298.3125 602.1875 293.527344 594.59375 C 293.527344 595.980469 293.527344 597.355469 293.527344 598.742188 C 293.625 628.320312 293.734375 657.894531 293.808594 687.480469 C 293.824219 694.972656 292.972656 696.007812 285.761719 697.980469 C 280.386719 699.453125 275.023438 701.011719 269.402344 701.171875 C 262.796875 701.363281 260.800781 699.753906 259.828125 693.269531 C 258.179688 682.21875 257.816406 671.078125 257.71875 659.933594 C 257.417969 623.058594 258.539062 586.195312 259.535156 549.328125 C 259.675781 543.890625 259.851562 538.449219 259.742188 533.019531 C 259.660156 528.960938 261.53125 526.414062 265.128906 525.140625 C 271.792969 522.777344 278.675781 521.46875 285.777344 521.421875 C 291.132812 521.390625 294.714844 523.9375 297.160156 528.625 C 303.113281 540.039062 308.269531 551.8125 313.371094 563.625 C 319.890625 578.714844 326.480469 593.773438 334.648438 608.085938 C 335.355469 609.328125 336.136719 610.527344 336.882812 611.746094 C 337.179688 611.644531 337.464844 611.539062 337.761719 611.4375 Z M 337.761719 611.429688 " fill-opacity="1" fill-rule="nonzero"/><path fill="#fe6604" d="M 541.371094 654.785156 C 550.152344 654.785156 558.914062 654.632812 567.558594 656.421875 C 572.945312 657.539062 578.007812 659.425781 582.234375 663.101562 C 584.695312 665.242188 586.542969 667.78125 587.28125 671.011719 C 588.691406 677.164062 586.082031 681.375 579.816406 682.085938 C 573.765625 682.769531 567.644531 683 561.558594 683.144531 C 497.011719 684.671875 434.722656 697.453125 374.5 720.585938 C 369.925781 722.34375 365.292969 723.96875 360.675781 725.625 C 359.304688 726.117188 357.914062 726.554688 356.503906 726.9375 C 349.785156 728.773438 345.011719 727.421875 342.839844 723.09375 C 340.554688 718.539062 342.464844 712.226562 347.597656 708.414062 C 355.105469 702.851562 363.589844 698.984375 372.105469 695.304688 C 426.164062 671.960938 482.449219 657.832031 541.363281 654.769531 Z M 541.371094 654.785156 " fill-opacity="1" fill-rule="nonzero"/><path fill="#fe6604" d="M 507.863281 480.398438 C 512.902344 480.421875 517.9375 480.464844 522.929688 481.324219 C 524.894531 481.664062 526.828125 482.09375 528.613281 483.027344 C 530.292969 483.910156 531.40625 485.359375 531.039062 487.195312 C 530.632812 489.21875 528.644531 489.074219 527.109375 488.988281 C 503.261719 487.652344 480.195312 492.640625 457.160156 497.71875 C 438.019531 501.945312 419.195312 507.453125 400.296875 512.644531 C 397.359375 513.445312 394.382812 514.132812 391.320312 514.226562 C 389.371094 514.28125 387.539062 513.910156 386.625 511.941406 C 385.621094 509.785156 386.703125 508.074219 388.167969 506.609375 C 390.371094 504.414062 393.199219 503.210938 396 502 C 415.140625 493.753906 435.351562 489.542969 455.792969 486.28125 C 473.054688 483.519531 490.328125 480.695312 507.871094 480.398438 Z M 507.863281 480.398438 " fill-opacity="1" fill-rule="nonzero"/><path fill="#fe6604" d="M 224.136719 587.128906 C 226.429688 587.152344 228.683594 587.351562 230.855469 587.988281 C 234.03125 588.917969 234.730469 590.964844 232.773438 593.679688 C 231.191406 595.867188 228.960938 597.363281 226.71875 598.75 C 212.34375 607.632812 196.988281 613.792969 180.027344 615.472656 C 177.773438 615.695312 175.53125 615.796875 173.316406 615.234375 C 169.011719 614.132812 167.855469 611.191406 170.378906 607.480469 C 172.042969 605.035156 174.335938 603.183594 176.8125 601.636719 C 191.296875 592.574219 207.335938 588.554688 224.152344 587.121094 Z M 224.136719 587.128906 " fill-opacity="1" fill-rule="nonzero"/><path fill="#fe6604" d="M 195.222656 673.28125 C 195.238281 670.863281 195.738281 668.523438 196.652344 666.308594 C 203.347656 650.070312 214.386719 637.558594 229.4375 628.613281 C 231.84375 627.1875 234.90625 624.839844 237.46875 626.988281 C 240.160156 629.242188 238.519531 632.816406 237.4375 635.539062 C 230.785156 652.1875 220.054688 665.742188 205.617188 676.347656 C 204.566406 677.117188 203.308594 677.675781 202.074219 678.105469 C 197.902344 679.546875 195.277344 677.652344 195.230469 673.273438 Z M 195.222656 673.28125 " fill-opacity="1" fill-rule="nonzero"/><path fill="#fe6604" d="M 659.515625 526.175781 C 671.113281 526.554688 682.484375 528.078125 693.144531 533.042969 C 695.914062 534.332031 698.578125 535.835938 700.777344 537.996094 C 703.847656 540.996094 703.324219 543.933594 699.414062 545.820312 C 697.234375 546.867188 694.863281 547.226562 692.476562 547.363281 C 675.910156 548.316406 660.0625 545 644.671875 539.148438 C 643.199219 538.589844 641.773438 537.804688 640.46875 536.910156 C 638.859375 535.8125 636.835938 534.714844 637.210938 532.351562 C 637.5625 530.113281 639.617188 529.269531 641.46875 528.585938 C 647.289062 526.453125 653.394531 526.285156 659.507812 526.167969 Z M 659.515625 526.175781 " fill-opacity="1" fill-rule="nonzero"/><path fill="#fe6604" d="M 203.953125 223.417969 C 203.101562 223.226562 201.476562 223.078125 200.011719 222.519531 C 185.160156 216.804688 173.363281 207.429688 165.589844 193.355469 C 164.234375 190.90625 163.238281 188.285156 163.136719 185.445312 C 162.992188 181.425781 165.175781 179.570312 169.152344 180.269531 C 171.667969 180.707031 173.953125 181.789062 176.132812 183.054688 C 187.261719 189.519531 196.8125 197.828125 204.835938 207.867188 C 207.152344 210.761719 209.253906 213.890625 209.796875 217.695312 C 210.34375 221.53125 208.539062 223.46875 203.945312 223.417969 Z M 203.953125 223.417969 " fill-opacity="1" fill-rule="nonzero"/><path fill="#fe6604" d="M 558.117188 210.0625 C 554.003906 210.078125 552.722656 208.304688 554.027344 204.746094 C 554.855469 202.484375 556.214844 200.503906 557.6875 198.625 C 567.957031 185.570312 581 176.363281 596.609375 170.816406 C 599.507812 169.789062 603.089844 168.109375 605.4375 171.230469 C 607.746094 174.300781 606.050781 177.738281 603.964844 180.375 C 592.605469 194.726562 577.945312 204.277344 560.546875 209.730469 C 559.679688 210 558.714844 209.984375 558.117188 210.054688 Z M 558.117188 210.0625 " fill-opacity="1" fill-rule="nonzero"/><path fill="#fe6604" d="M 676.953125 609.453125 C 676.921875 614.109375 675.1875 615.65625 671.230469 615.105469 C 668.8125 614.769531 666.695312 613.648438 664.6875 612.351562 C 652.660156 604.566406 643.214844 594.355469 636.199219 581.882812 C 635.09375 579.917969 634.1875 577.847656 633.925781 575.5625 C 633.375 570.691406 635.613281 568.789062 640.261719 570.214844 C 643.324219 571.152344 646.09375 572.738281 648.808594 574.402344 C 658.097656 580.085938 665.9375 587.3125 671.890625 596.472656 C 674.582031 600.613281 676.777344 604.980469 676.960938 609.453125 Z M 676.953125 609.453125 " fill-opacity="1" fill-rule="nonzero"/><path fill="#fe6604" d="M 167.316406 269.757812 C 163.335938 269.757812 159.339844 269.824219 155.542969 268.367188 C 149.535156 266.058594 148.640625 261.449219 153.347656 257.136719 C 156.339844 254.390625 159.96875 252.726562 163.78125 251.5625 C 174.695312 248.246094 185.820312 247.105469 197.148438 248.890625 C 198.960938 249.175781 200.777344 249.675781 202.488281 250.347656 C 204.582031 251.164062 206.90625 252.121094 207.238281 254.667969 C 207.574219 257.238281 205.542969 258.726562 203.683594 259.984375 C 201.9375 261.164062 200.078125 262.222656 198.140625 263.074219 C 188.320312 267.378906 178.035156 269.640625 167.308594 269.757812 Z M 167.316406 269.757812 " fill-opacity="1" fill-rule="nonzero"/><path fill="#fe6604" d="M 590.488281 239.6875 C 584.035156 239.65625 579.117188 239.6875 574.324219 238.414062 C 572.414062 237.90625 570.191406 237.316406 569.90625 234.96875 C 569.652344 232.828125 571.539062 231.730469 573.121094 230.804688 C 584.097656 224.351562 596.238281 221.789062 608.683594 220.28125 C 614.503906 219.582031 620.328125 219.429688 626.132812 220.339844 C 628.886719 220.769531 631.972656 221.339844 632.601562 224.660156 C 633.238281 227.996094 630.605469 229.675781 628.144531 231.019531 C 615.929688 237.683594 602.582031 239.355469 590.488281 239.695312 Z M 590.488281 239.6875 " fill-opacity="1" fill-rule="nonzero"/><path fill="#fe6604" d="M 583.859375 261.117188 C 599.222656 262.914062 613.355469 268.207031 624.828125 279.414062 C 627.566406 282.089844 630.90625 285.257812 628.640625 289.339844 C 626.507812 293.183594 622.03125 292.277344 618.507812 291.457031 C 603.542969 287.988281 590.800781 280.527344 580.238281 269.363281 C 580.054688 269.171875 579.878906 268.964844 579.738281 268.75 C 578.527344 266.925781 576.25 265.144531 577.386719 262.859375 C 578.542969 260.558594 581.359375 261.386719 583.859375 261.105469 Z M 583.859375 261.117188 " fill-opacity="1" fill-rule="nonzero"/><path fill="#fe6604" d="M 662.5 467.578125 C 670.492188 467.609375 671.964844 469.726562 669.78125 475.019531 C 667.753906 479.945312 664.179688 483.695312 660.144531 486.988281 C 653.28125 492.59375 645.847656 497.210938 636.789062 498.101562 C 631.28125 498.640625 629.117188 495.5625 631.863281 490.769531 C 639.167969 478.003906 650.1875 470.234375 662.5 467.570312 Z M 662.5 467.578125 " fill-opacity="1" fill-rule="nonzero"/></svg>