<svg xmlns="http://www.w3.org/2000/svg" xmlns:xlink="http://www.w3.org/1999/xlink" width="1080" zoomAndPan="magnify" viewBox="0 0 810 809.999993" height="1080" preserveAspectRatio="xMidYMid meet" version="1.0"><defs><g/><clipPath id="6d50febcea"><path d="M 57 147 L 225 147 L 225 399 L 57 399 Z M 57 147 " clip-rule="nonzero"/></clipPath><clipPath id="d6a3a2b2e3"><path d="M -11.105469 368.816406 L 133.347656 78.800781 L 285.742188 154.707031 L 141.285156 444.722656 Z M -11.105469 368.816406 " clip-rule="nonzero"/></clipPath><clipPath id="bc4728bb42"><path d="M -11.105469 368.816406 L 133.347656 78.800781 L 285.742188 154.707031 L 141.285156 444.722656 Z M -11.105469 368.816406 " clip-rule="nonzero"/></clipPath><clipPath id="44095cdd1f"><path d="M 97 186 L 227 186 L 227 372 L 97 372 Z M 97 186 " clip-rule="nonzero"/></clipPath><clipPath id="c994c79bf1"><path d="M -11.105469 368.816406 L 133.347656 78.800781 L 285.742188 154.707031 L 141.285156 444.722656 Z M -11.105469 368.816406 " clip-rule="nonzero"/></clipPath><clipPath id="48a6fe59ff"><path d="M -11.105469 368.816406 L 133.347656 78.800781 L 285.742188 154.707031 L 141.285156 444.722656 Z M -11.105469 368.816406 " clip-rule="nonzero"/></clipPath><clipPath id="e76c2771d3"><path d="M 46 135 L 284 135 L 284 443 L 46 443 Z M 46 135 " clip-rule="nonzero"/></clipPath><clipPath id="3ba6802133"><path d="M -11.105469 368.816406 L 133.347656 78.800781 L 285.742188 154.707031 L 141.285156 444.722656 Z M -11.105469 368.816406 " clip-rule="nonzero"/></clipPath><clipPath id="4d2a447782"><path d="M -11.105469 368.816406 L 133.347656 78.800781 L 285.742188 154.707031 L 141.285156 444.722656 Z M -11.105469 368.816406 " clip-rule="nonzero"/></clipPath><clipPath id="b3ea0d065d"><path d="M 613 429 L 789 429 L 789 674 L 613 674 Z M 613 429 " clip-rule="nonzero"/></clipPath><clipPath id="487c10aee6"><path d="M 861.199219 465.910156 L 700.058594 747 L 552.359375 662.324219 L 713.5 381.238281 Z M 861.199219 465.910156 " clip-rule="nonzero"/></clipPath><clipPath id="3c99bef516"><path d="M 861.199219 465.910156 L 700.058594 747 L 552.359375 662.324219 L 713.5 381.238281 Z M 861.199219 465.910156 " clip-rule="nonzero"/></clipPath><clipPath id="21a0e70254"><path d="M 614 454 L 749 454 L 749 635 L 614 635 Z M 614 454 " clip-rule="nonzero"/></clipPath><clipPath id="72c8b13337"><path d="M 861.199219 465.910156 L 700.058594 747 L 552.359375 662.324219 L 713.5 381.238281 Z M 861.199219 465.910156 " clip-rule="nonzero"/></clipPath><clipPath id="02e1942fc1"><path d="M 861.199219 465.910156 L 700.058594 747 L 552.359375 662.324219 L 713.5 381.238281 Z M 861.199219 465.910156 " clip-rule="nonzero"/></clipPath><clipPath id="69de23ced2"><path d="M 554 383 L 803 383 L 803 689 L 554 689 Z M 554 383 " clip-rule="nonzero"/></clipPath><clipPath id="9c048020b7"><path d="M 861.199219 465.910156 L 700.058594 747 L 552.359375 662.324219 L 713.5 381.238281 Z M 861.199219 465.910156 " clip-rule="nonzero"/></clipPath><clipPath id="4770ec4b2b"><path d="M 861.199219 465.910156 L 700.058594 747 L 552.359375 662.324219 L 713.5 381.238281 Z M 861.199219 465.910156 " clip-rule="nonzero"/></clipPath></defs><rect x="-81" width="972" fill="#ffffff" y="-80.999999" height="971.999992" fill-opacity="1"/><rect x="-81" width="972" fill="#ffffff" y="-80.999999" height="971.999992" fill-opacity="1"/><g fill="#fe6604" fill-opacity="1"><g transform="translate(155.931978, 349.224593)"><g><path d="M 43.71875 -43.703125 C 45.75 -38.910156 45.765625 -34.5 43.765625 -30.46875 C 41.765625 -26.445312 37.789062 -23.175781 31.84375 -20.65625 C 27.53125 -18.832031 23.203125 -17.972656 18.859375 -18.078125 C 14.515625 -18.179688 9.757812 -19.628906 4.59375 -22.421875 C -0.5625 -25.222656 -6.394531 -29.785156 -12.90625 -36.109375 L -3.140625 -45.484375 C 2.691406 -39.429688 7.992188 -35.1875 12.765625 -32.75 C 17.535156 -30.320312 21.945312 -29.96875 26 -31.6875 C 29.914062 -33.34375 31.0625 -36.09375 29.4375 -39.9375 C 28.082031 -43.113281 25.816406 -45.457031 22.640625 -46.96875 C 20.566406 -45.457031 18.15625 -44.078125 15.40625 -42.828125 L 10.265625 -53.3125 C 14.160156 -55.207031 16.585938 -56.992188 17.546875 -58.671875 C 18.503906 -60.347656 18.570312 -62.164062 17.75 -64.125 C 16.945312 -66.019531 15.726562 -67.015625 14.09375 -67.109375 C 12.457031 -67.210938 10.796875 -66.910156 9.109375 -66.203125 C 7.015625 -65.316406 5.132812 -64.160156 3.46875 -62.734375 C 1.800781 -61.316406 0.257812 -59.75 -1.15625 -58.03125 L -9.21875 -66.5625 C -7.6875 -68.414062 -5.578125 -70.445312 -2.890625 -72.65625 C -0.203125 -74.875 2.960938 -76.753906 6.609375 -78.296875 C 12.347656 -80.722656 17.382812 -81.097656 21.71875 -79.421875 C 26.050781 -77.753906 29.171875 -74.660156 31.078125 -70.140625 C 33.171875 -65.210938 33.035156 -60.457031 30.671875 -55.875 C 31.085938 -55.65625 31.488281 -55.46875 31.875 -55.3125 C 32.8125 -55.550781 33.800781 -55.847656 34.84375 -56.203125 C 35.882812 -56.554688 37.039062 -57.003906 38.3125 -57.546875 C 40.351562 -58.410156 42.203125 -59.332031 43.859375 -60.3125 C 45.515625 -61.300781 47.019531 -62.4375 48.375 -63.71875 L 41.9375 -78.921875 L 35.453125 -76.1875 L 30.75 -87.3125 L 90.203125 -112.484375 L 94.90625 -101.359375 L 85.375 -97.328125 L 107.34375 -45.46875 L 93.78125 -39.71875 L 71.8125 -91.578125 L 55.5 -84.671875 L 77.46875 -32.8125 L 63.90625 -27.0625 L 53.140625 -52.484375 C 51.953125 -51.347656 50.632812 -50.367188 49.1875 -49.546875 C 47.738281 -48.734375 46.238281 -48 44.6875 -47.34375 C 43.945312 -47.03125 43.15625 -46.738281 42.3125 -46.46875 C 42.84375 -45.582031 43.3125 -44.660156 43.71875 -43.703125 Z M 43.71875 -43.703125 "/></g></g></g><g fill="#fe6604" fill-opacity="1"><g transform="translate(271.380154, 300.323932)"><g><path d="M 52.578125 -83.4375 L 74.546875 -31.578125 L 60.953125 -25.8125 L 46.75 -59.328125 L 38.046875 -55.65625 C 35.359375 -54.507812 33.273438 -53.703125 31.796875 -53.234375 C 34.328125 -52.160156 36.53125 -50.765625 38.40625 -49.046875 C 40.289062 -47.335938 41.734375 -45.300781 42.734375 -42.9375 C 44.109375 -39.695312 44.488281 -36.632812 43.875 -33.75 C 43.257812 -30.875 41.894531 -28.304688 39.78125 -26.046875 C 37.664062 -23.796875 34.988281 -21.988281 31.75 -20.625 C 27.632812 -18.875 23.273438 -18.117188 18.671875 -18.359375 C 14.066406 -18.597656 9.054688 -20.359375 3.640625 -23.640625 C -1.765625 -26.929688 -7.789062 -32.300781 -14.4375 -39.75 L -4.71875 -48.890625 C 1.738281 -41.753906 7.457031 -36.671875 12.4375 -33.640625 C 17.425781 -30.617188 21.847656 -29.925781 25.703125 -31.5625 C 27.253906 -32.21875 28.304688 -33.160156 28.859375 -34.390625 C 29.410156 -35.617188 29.34375 -37.039062 28.65625 -38.65625 C 27.632812 -41.082031 25.800781 -43.007812 23.15625 -44.4375 C 20.519531 -45.875 17.304688 -46.828125 13.515625 -47.296875 L 13.890625 -58.5625 L 42.03125 -70.46875 L 38.984375 -77.671875 L -21.96875 -51.859375 L -26.671875 -62.984375 L 57.484375 -98.625 L 62.1875 -87.5 Z M 52.578125 -83.4375 "/></g></g></g><g fill="#fe6604" fill-opacity="1"><g transform="translate(354.016743, 265.321354)"><g/></g></g><g fill="#fe6604" fill-opacity="1"><g transform="translate(377.900342, 255.204921)"><g><path d="M 62.796875 -87.765625 L 30.1875 -73.953125 L 36.15625 -59.875 C 38.59375 -63.132812 41.90625 -65.648438 46.09375 -67.421875 C 50.882812 -69.453125 55.445312 -69.632812 59.78125 -67.96875 C 64.113281 -66.300781 67.394531 -62.832031 69.625 -57.5625 C 70.882812 -54.59375 71.734375 -51.03125 72.171875 -46.875 C 72.617188 -42.71875 72.378906 -38.253906 71.453125 -33.484375 L 56.8125 -35.0625 C 57.40625 -37.769531 57.753906 -40.460938 57.859375 -43.140625 C 57.960938 -45.816406 57.515625 -48.335938 56.515625 -50.703125 C 55.460938 -53.191406 54.195312 -54.71875 52.71875 -55.28125 C 51.238281 -55.851562 49.65625 -55.785156 47.96875 -55.078125 C 46.414062 -54.421875 45.113281 -53.3125 44.0625 -51.75 C 43.019531 -50.1875 42.1875 -48.640625 41.5625 -47.109375 L 52.15625 -22.09375 L 38.59375 -16.34375 L 33.140625 -29.203125 C 31.460938 -26.984375 29.632812 -25.050781 27.65625 -23.40625 C 25.675781 -21.769531 23.203125 -20.328125 20.234375 -19.078125 C 16.523438 -17.503906 12.847656 -16.742188 9.203125 -16.796875 C 5.554688 -16.847656 2.238281 -17.847656 -0.75 -19.796875 C -3.738281 -21.753906 -6.085938 -24.757812 -7.796875 -28.8125 C -9.378906 -32.53125 -9.84375 -36.160156 -9.1875 -39.703125 C -8.53125 -43.253906 -6.898438 -46.472656 -4.296875 -49.359375 C -1.703125 -52.253906 1.722656 -54.601562 5.984375 -56.40625 C 7.867188 -57.207031 9.804688 -57.925781 11.796875 -58.5625 C 13.796875 -59.207031 15.394531 -59.628906 16.59375 -59.828125 L 20.328125 -48.140625 C 17.941406 -47.765625 15.429688 -47.019531 12.796875 -45.90625 C 9.628906 -44.5625 7.429688 -42.894531 6.203125 -40.90625 C 4.984375 -38.925781 4.847656 -36.816406 5.796875 -34.578125 C 6.929688 -31.878906 8.554688 -30.378906 10.671875 -30.078125 C 12.796875 -29.785156 14.835938 -30.050781 16.796875 -30.875 C 19.617188 -32.070312 21.851562 -33.773438 23.5 -35.984375 C 25.15625 -38.203125 26.441406 -40.5 27.359375 -42.875 L 16.625 -68.203125 L -21.96875 -51.859375 L -26.671875 -62.984375 L 58.09375 -98.890625 Z M 62.796875 -87.765625 "/></g></g></g><g fill="#fe6604" fill-opacity="1"><g transform="translate(438.160094, 229.680553)"><g><path d="M -27.03125 10.625 C -23.632812 7.351562 -20.046875 4.914062 -16.265625 3.3125 C -10.867188 1.03125 -6.023438 0.671875 -1.734375 2.234375 C 2.546875 3.796875 5.628906 6.8125 7.515625 11.28125 C 9.347656 15.59375 9.269531 19.820312 7.28125 23.96875 C 5.300781 28.113281 1.375 31.429688 -4.5 33.921875 C -9.363281 35.972656 -14.007812 37.117188 -18.4375 37.359375 C -22.875 37.609375 -27.234375 37.144531 -31.515625 35.96875 C -35.796875 34.800781 -40.140625 33.160156 -44.546875 31.046875 L -38.140625 20.453125 C -31.960938 23.410156 -26.679688 25.175781 -22.296875 25.75 C -17.910156 26.332031 -13.726562 25.78125 -9.75 24.09375 C -7.445312 23.113281 -5.832031 21.929688 -4.90625 20.546875 C -3.988281 19.160156 -3.890625 17.625 -4.609375 15.9375 C -5.316406 14.25 -6.410156 13.296875 -7.890625 13.078125 C -9.378906 12.867188 -10.929688 13.109375 -12.546875 13.796875 C -13.898438 14.367188 -15.148438 15.078125 -16.296875 15.921875 C -17.453125 16.765625 -18.503906 17.671875 -19.453125 18.640625 Z M -27.03125 10.625 "/></g></g></g><g fill="#fe6604" fill-opacity="1"><g transform="translate(461.245837, 219.902069)"><g><path d="M 29.15625 -25.609375 C 34.15625 -27.722656 38.257812 -30.394531 41.46875 -33.625 C 44.675781 -36.851562 46.789062 -40.316406 47.8125 -44.015625 C 48.84375 -47.710938 48.617188 -51.316406 47.140625 -54.828125 C 46.191406 -57.066406 44.882812 -58.828125 43.21875 -60.109375 C 41.550781 -61.398438 39.539062 -61.546875 37.1875 -60.546875 C 35.832031 -59.972656 34.941406 -59.195312 34.515625 -58.21875 C 34.097656 -57.25 34.09375 -56.289062 34.5 -55.34375 C 35.125 -53.851562 36.269531 -52.820312 37.9375 -52.25 C 39.613281 -51.6875 42.039062 -51.609375 45.21875 -52.015625 L 43.96875 -40.828125 C 37.988281 -40.285156 33.191406 -40.800781 29.578125 -42.375 C 25.972656 -43.957031 23.441406 -46.46875 21.984375 -49.90625 C 20.609375 -53.15625 20.378906 -56.269531 21.296875 -59.25 C 22.222656 -62.226562 24.351562 -64.859375 27.6875 -67.140625 L 25.625 -72.015625 L -21.96875 -51.859375 L -26.671875 -62.984375 L 51.703125 -96.1875 L 56.40625 -85.0625 L 39.203125 -77.765625 L 41.5625 -72.1875 C 45.769531 -72.613281 49.566406 -71.832031 52.953125 -69.84375 C 56.335938 -67.863281 59.03125 -64.507812 61.03125 -59.78125 C 62.488281 -56.332031 63.128906 -52.554688 62.953125 -48.453125 C 62.785156 -44.359375 61.640625 -40.210938 59.515625 -36.015625 C 57.390625 -31.816406 54.195312 -27.835938 49.9375 -24.078125 C 45.675781 -20.328125 40.203125 -17.035156 33.515625 -14.203125 C 25.210938 -10.679688 18.5 -9.523438 13.375 -10.734375 C 8.25 -11.953125 4.726562 -14.820312 2.8125 -19.34375 C 2.289062 -20.5625 1.953125 -21.875 1.796875 -23.28125 C 1.640625 -24.6875 1.679688 -26.117188 1.921875 -27.578125 C -1.234375 -27.910156 -3.957031 -28.800781 -6.25 -30.25 C -8.539062 -31.707031 -10.242188 -33.753906 -11.359375 -36.390625 C -13.078125 -40.441406 -12.835938 -44.300781 -10.640625 -47.96875 C -8.453125 -51.644531 -4.457031 -54.710938 1.34375 -57.171875 C 2.695312 -57.742188 4.363281 -58.367188 6.34375 -59.046875 C 8.320312 -59.734375 9.988281 -60.164062 11.34375 -60.34375 L 14.796875 -49.390625 C 13.703125 -49.316406 12.515625 -49.109375 11.234375 -48.765625 C 9.953125 -48.421875 8.601562 -47.945312 7.1875 -47.34375 C 3.132812 -45.625 1.617188 -43.550781 2.640625 -41.125 C 3.046875 -40.1875 3.835938 -39.550781 5.015625 -39.21875 C 6.191406 -38.882812 7.59375 -38.859375 9.21875 -39.140625 C 10.914062 -40.421875 12.910156 -41.546875 15.203125 -42.515625 C 16.078125 -42.890625 16.984375 -43.234375 17.921875 -43.546875 C 18.859375 -43.867188 19.628906 -44.078125 20.234375 -44.171875 L 23.4375 -33.46875 C 23.070312 -33.394531 22.628906 -33.265625 22.109375 -33.078125 C 21.597656 -32.898438 21.003906 -32.664062 20.328125 -32.375 C 18.035156 -31.40625 16.519531 -30.382812 15.78125 -29.3125 C 15.039062 -28.25 14.957031 -27.039062 15.53125 -25.6875 C 16.925781 -22.375 21.46875 -22.347656 29.15625 -25.609375 Z M 29.15625 -25.609375 "/></g></g></g><g fill="#fe6604" fill-opacity="1"><g transform="translate(318.466021, 418.845684)"><g><path d="M -26.671875 -62.984375 L 37.34375 -90.09375 L 42.046875 -78.96875 L 32.515625 -74.9375 L 54.484375 -23.078125 L 40.921875 -17.328125 L 29.5625 -44.15625 L 13.5625 -37.390625 L 14.671875 -34.765625 C 15.816406 -32.066406 16.0625 -29.878906 15.40625 -28.203125 C 14.757812 -26.535156 13.359375 -25.242188 11.203125 -24.328125 C 9.640625 -23.671875 7.785156 -23.425781 5.640625 -23.59375 C 3.503906 -23.757812 1.363281 -24.265625 -0.78125 -25.109375 C -2.925781 -25.953125 -4.851562 -27.023438 -6.5625 -28.328125 C -8.269531 -29.640625 -9.453125 -31.070312 -10.109375 -32.625 C -10.828125 -34.3125 -11.023438 -36.039062 -10.703125 -37.8125 C -10.378906 -39.582031 -8.734375 -41.097656 -5.765625 -42.359375 L 24.828125 -55.3125 L 18.953125 -69.1875 L -21.96875 -51.859375 Z M -26.671875 -62.984375 "/></g></g></g><g fill="#fe6604" fill-opacity="1"><g transform="translate(381.051088, 392.336377)"><g><path d="M 39.046875 -90.828125 L 43.75 -79.703125 L 34.25 -75.671875 L 56.21875 -23.8125 L 42.625 -18.0625 L 36.3125 -32.953125 C 33.175781 -28.347656 28.566406 -24.757812 22.484375 -22.1875 C 17.898438 -20.238281 13.507812 -19.609375 9.3125 -20.296875 C 5.125 -20.992188 1.238281 -22.753906 -2.34375 -25.578125 C -5.9375 -28.410156 -9.125 -31.976562 -11.90625 -36.28125 C -8.375 -38.65625 -5.992188 -41.035156 -4.765625 -43.421875 C -3.546875 -45.816406 -3.523438 -48.394531 -4.703125 -51.15625 C -5.242188 -52.4375 -5.957031 -53.5625 -6.84375 -54.53125 C -7.738281 -55.507812 -8.691406 -56.347656 -9.703125 -57.046875 L -21.96875 -51.859375 L -26.671875 -62.984375 Z M 5.171875 -36.578125 C 7.222656 -34.742188 9.378906 -33.550781 11.640625 -33 C 13.898438 -32.445312 16.347656 -32.726562 18.984375 -33.84375 C 24.722656 -36.269531 28.484375 -40.726562 30.265625 -47.21875 L 20.65625 -69.921875 L 3.359375 -62.578125 C 4.765625 -61.492188 6.019531 -60.3125 7.125 -59.03125 C 8.226562 -57.75 9.179688 -56.160156 9.984375 -54.265625 C 12.578125 -48.128906 10.972656 -42.234375 5.171875 -36.578125 Z M 5.171875 -36.578125 "/></g></g></g><g fill="#fe6604" fill-opacity="1"><g transform="translate(445.35775, 365.09785)"><g><path d="M -0.296875 -61.03125 L 21.671875 -9.171875 L 8.09375 -3.4375 L -13.875 -55.296875 L -21.96875 -51.859375 L -26.671875 -62.984375 L 4.625 -76.234375 L 9.328125 -65.109375 Z M -0.296875 -61.03125 "/></g></g></g><g fill="#fe6604" fill-opacity="1"><g transform="translate(287.253675, 570.532399)"><g><path d="M -0.328125 -49.546875 L -9.78125 -45.53125 L -24.84375 -74.75 L -10.90625 -80.65625 Z M 20.828125 -58.5 L 11.375 -54.5 L -3.671875 -83.703125 L 10.265625 -89.609375 Z M 20.828125 -58.5 "/></g></g></g><g fill="#fe6604" fill-opacity="1"><g transform="translate(333.982449, 550.73938)"><g><path d="M 69.375 -29.390625 L 54.34375 -23.015625 L 41.84375 -37.375 L 14.140625 -25.640625 L 15.765625 -6.671875 L 1.09375 -0.46875 L -4.5625 -83.328125 L 13.78125 -91.109375 Z M 10.140625 -71.78125 L 12.9375 -39.296875 L 32.8125 -47.703125 L 11.375 -72.296875 Z M 10.140625 -71.78125 "/></g></g></g><g fill="#fe6604" fill-opacity="1"><g transform="translate(404.446471, 520.892764)"><g><path d="M 27.390625 -10.375 C 23.066406 -8.550781 18.804688 -7.976562 14.609375 -8.65625 C 10.410156 -9.34375 6.472656 -11.410156 2.796875 -14.859375 C -0.878906 -18.304688 -4.03125 -23.128906 -6.65625 -29.328125 C -9.289062 -35.554688 -10.539062 -41.195312 -10.40625 -46.25 C -10.28125 -51.300781 -8.953125 -55.59375 -6.421875 -59.125 C -3.890625 -62.664062 -0.382812 -65.382812 4.09375 -67.28125 C 7.488281 -68.71875 10.679688 -69.378906 13.671875 -69.265625 C 16.660156 -69.148438 19.535156 -68.222656 22.296875 -66.484375 L 23.21875 -67.171875 L 11.421875 -95.015625 L 25.109375 -100.8125 L 57.5 -24.359375 L 43.8125 -18.5625 L 40.828125 -25.625 L 39.703125 -25.390625 C 39.273438 -22.171875 38.054688 -19.257812 36.046875 -16.65625 C 34.035156 -14.0625 31.148438 -11.96875 27.390625 -10.375 Z M 26.921875 -23.890625 C 30.773438 -25.523438 33.238281 -28.191406 34.3125 -31.890625 C 35.382812 -35.585938 34.734375 -40.238281 32.359375 -45.84375 C 29.992188 -51.445312 27.101562 -55.160156 23.6875 -56.984375 C 20.269531 -58.804688 16.632812 -58.898438 12.78125 -57.265625 C 8.75 -55.566406 6.238281 -52.921875 5.25 -49.328125 C 4.269531 -45.734375 5 -41.054688 7.4375 -35.296875 C 9.875 -29.554688 12.722656 -25.796875 15.984375 -24.015625 C 19.242188 -22.234375 22.890625 -22.191406 26.921875 -23.890625 Z M 26.921875 -23.890625 "/></g></g></g><g fill="#fe6604" fill-opacity="1"><g transform="translate(469.81731, 493.203481)"><g><path d="M 27.390625 -10.375 C 23.066406 -8.550781 18.804688 -7.976562 14.609375 -8.65625 C 10.410156 -9.34375 6.472656 -11.410156 2.796875 -14.859375 C -0.878906 -18.304688 -4.03125 -23.128906 -6.65625 -29.328125 C -9.289062 -35.554688 -10.539062 -41.195312 -10.40625 -46.25 C -10.28125 -51.300781 -8.953125 -55.59375 -6.421875 -59.125 C -3.890625 -62.664062 -0.382812 -65.382812 4.09375 -67.28125 C 7.488281 -68.71875 10.679688 -69.378906 13.671875 -69.265625 C 16.660156 -69.148438 19.535156 -68.222656 22.296875 -66.484375 L 23.21875 -67.171875 L 11.421875 -95.015625 L 25.109375 -100.8125 L 57.5 -24.359375 L 43.8125 -18.5625 L 40.828125 -25.625 L 39.703125 -25.390625 C 39.273438 -22.171875 38.054688 -19.257812 36.046875 -16.65625 C 34.035156 -14.0625 31.148438 -11.96875 27.390625 -10.375 Z M 26.921875 -23.890625 C 30.773438 -25.523438 33.238281 -28.191406 34.3125 -31.890625 C 35.382812 -35.585938 34.734375 -40.238281 32.359375 -45.84375 C 29.992188 -51.445312 27.101562 -55.160156 23.6875 -56.984375 C 20.269531 -58.804688 16.632812 -58.898438 12.78125 -57.265625 C 8.75 -55.566406 6.238281 -52.921875 5.25 -49.328125 C 4.269531 -45.734375 5 -41.054688 7.4375 -35.296875 C 9.875 -29.554688 12.722656 -25.796875 15.984375 -24.015625 C 19.242188 -22.234375 22.890625 -22.191406 26.921875 -23.890625 Z M 26.921875 -23.890625 "/></g></g></g><g fill="#fe6604" fill-opacity="1"><g transform="translate(535.188128, 465.514207)"><g/></g></g><g fill="#fe6604" fill-opacity="1"><g transform="translate(559.071726, 455.397774)"><g><path d="M -0.328125 -49.546875 L -9.78125 -45.53125 L -24.84375 -74.75 L -10.90625 -80.65625 Z M 20.828125 -58.5 L 11.375 -54.5 L -3.671875 -83.703125 L 10.265625 -89.609375 Z M 20.828125 -58.5 "/></g></g></g><g fill="#fe6604" fill-opacity="1"><g transform="translate(304.42667, 701.724418)"><g><path d="M 62.796875 -87.765625 L 30.1875 -73.953125 L 36.15625 -59.875 C 38.59375 -63.132812 41.90625 -65.648438 46.09375 -67.421875 C 50.882812 -69.453125 55.445312 -69.632812 59.78125 -67.96875 C 64.113281 -66.300781 67.394531 -62.832031 69.625 -57.5625 C 70.882812 -54.59375 71.734375 -51.03125 72.171875 -46.875 C 72.617188 -42.71875 72.378906 -38.253906 71.453125 -33.484375 L 56.8125 -35.0625 C 57.40625 -37.769531 57.753906 -40.460938 57.859375 -43.140625 C 57.960938 -45.816406 57.515625 -48.335938 56.515625 -50.703125 C 55.460938 -53.191406 54.195312 -54.71875 52.71875 -55.28125 C 51.238281 -55.851562 49.65625 -55.785156 47.96875 -55.078125 C 46.414062 -54.421875 45.113281 -53.3125 44.0625 -51.75 C 43.019531 -50.1875 42.1875 -48.640625 41.5625 -47.109375 L 52.15625 -22.09375 L 38.59375 -16.34375 L 33.140625 -29.203125 C 31.460938 -26.984375 29.632812 -25.050781 27.65625 -23.40625 C 25.675781 -21.769531 23.203125 -20.328125 20.234375 -19.078125 C 16.523438 -17.503906 12.847656 -16.742188 9.203125 -16.796875 C 5.554688 -16.847656 2.238281 -17.847656 -0.75 -19.796875 C -3.738281 -21.753906 -6.085938 -24.757812 -7.796875 -28.8125 C -9.378906 -32.53125 -9.84375 -36.160156 -9.1875 -39.703125 C -8.53125 -43.253906 -6.898438 -46.472656 -4.296875 -49.359375 C -1.703125 -52.253906 1.722656 -54.601562 5.984375 -56.40625 C 7.867188 -57.207031 9.804688 -57.925781 11.796875 -58.5625 C 13.796875 -59.207031 15.394531 -59.628906 16.59375 -59.828125 L 20.328125 -48.140625 C 17.941406 -47.765625 15.429688 -47.019531 12.796875 -45.90625 C 9.628906 -44.5625 7.429688 -42.894531 6.203125 -40.90625 C 4.984375 -38.925781 4.847656 -36.816406 5.796875 -34.578125 C 6.929688 -31.878906 8.554688 -30.378906 10.671875 -30.078125 C 12.796875 -29.785156 14.835938 -30.050781 16.796875 -30.875 C 19.617188 -32.070312 21.851562 -33.773438 23.5 -35.984375 C 25.15625 -38.203125 26.441406 -40.5 27.359375 -42.875 L 16.625 -68.203125 L -21.96875 -51.859375 L -26.671875 -62.984375 L 58.09375 -98.890625 Z M 62.796875 -87.765625 "/></g></g></g><g fill="#fe6604" fill-opacity="1"><g transform="translate(387.772153, 666.421571)"><g><path d="M 39.140625 -25.1875 L 34.15625 -12.4375 C 26.0625 -14.976562 18.691406 -17.507812 12.046875 -20.03125 C 5.410156 -22.550781 0.257812 -24.863281 -3.40625 -26.96875 C -5.832031 -28.34375 -7.5625 -29.644531 -8.59375 -30.875 C -9.632812 -32.101562 -10.398438 -33.296875 -10.890625 -34.453125 C -11.597656 -36.140625 -11.71875 -38.078125 -11.25 -40.265625 C -10.789062 -42.453125 -9.078125 -44.175781 -6.109375 -45.4375 C -2.734375 -46.863281 0.648438 -46.859375 4.046875 -45.421875 C 6.628906 -49.304688 7.09375 -53.207031 5.4375 -57.125 C 4.601562 -59.082031 3.632812 -60.785156 2.53125 -62.234375 L -21.96875 -51.859375 L -26.671875 -62.984375 L 19.203125 -82.421875 L 23.90625 -71.296875 L 15.8125 -67.859375 C 16.488281 -67.015625 17.171875 -66.003906 17.859375 -64.828125 C 18.554688 -63.660156 19.25 -62.265625 19.9375 -60.640625 C 21.914062 -55.984375 22.164062 -51.453125 20.6875 -47.046875 C 19.207031 -42.640625 16.285156 -38.359375 11.921875 -34.203125 C 15.660156 -32.679688 19.910156 -31.09375 24.671875 -29.4375 C 29.429688 -27.789062 34.253906 -26.375 39.140625 -25.1875 Z M 39.140625 -25.1875 "/></g></g></g><g fill="#fe6604" fill-opacity="1"><g transform="translate(432.128562, 647.633421)"><g><path d="M 33.125 -75.1875 L 55.09375 -23.328125 L 41.515625 -17.59375 L 28.6875 -47.875 L 19.46875 -43.96875 C 15.757812 -42.394531 13.070312 -41.03125 11.40625 -39.875 C 9.738281 -38.726562 8.554688 -37.5 7.859375 -36.1875 C 6.878906 -34.332031 6.863281 -32.289062 7.8125 -30.0625 C 8.789062 -27.757812 10.847656 -25.820312 13.984375 -24.25 C 17.117188 -22.675781 21.347656 -21.226562 26.671875 -19.90625 L 21.703125 -7.15625 C 17.410156 -8.445312 13.382812 -9.945312 9.625 -11.65625 C 5.875 -13.363281 2.570312 -15.425781 -0.28125 -17.84375 C -3.132812 -20.269531 -5.28125 -23.171875 -6.71875 -26.546875 C -7.738281 -28.972656 -8.203125 -31.359375 -8.109375 -33.703125 C -8.023438 -36.046875 -7.519531 -38.175781 -6.59375 -40.09375 C -5.300781 -42.695312 -3.394531 -45.015625 -0.875 -47.046875 C 1.644531 -49.078125 5.539062 -51.207031 10.8125 -53.4375 L 23.96875 -59.015625 L 19.546875 -69.453125 L -21.96875 -51.859375 L -26.671875 -62.984375 L 37.9375 -90.359375 L 42.640625 -79.234375 Z M 33.125 -75.1875 "/></g></g></g><g fill="#fe6604" fill-opacity="1"><g transform="translate(495.321246, 620.866744)"><g><path d="M -47.34375 -53.40625 C -50.175781 -56.894531 -52.6875 -59.664062 -54.875 -61.71875 C -57.0625 -63.78125 -59.128906 -65.097656 -61.078125 -65.671875 C -63.035156 -66.242188 -65.160156 -66.046875 -67.453125 -65.078125 C -68.804688 -64.503906 -70 -63.835938 -71.03125 -63.078125 C -72.0625 -62.316406 -72.984375 -61.566406 -73.796875 -60.828125 L -81.9375 -69.9375 C -80.601562 -71.289062 -79.144531 -72.5 -77.5625 -73.5625 C -75.988281 -74.632812 -74.1875 -75.597656 -72.15625 -76.453125 C -69.457031 -77.597656 -66.8125 -78.300781 -64.21875 -78.5625 C -61.625 -78.820312 -58.910156 -78.394531 -56.078125 -77.28125 C -53.253906 -76.164062 -50.15625 -74.113281 -46.78125 -71.125 C -43.40625 -68.144531 -39.570312 -63.941406 -35.28125 -58.515625 Z M -47.34375 -53.40625 "/></g></g></g><g fill="#fe6604" fill-opacity="1"><g transform="translate(495.324327, 620.865439)"><g/></g></g><g fill="#fe6604" fill-opacity="1"><g transform="translate(519.207925, 610.749006)"><g/></g></g><g fill="#fe6604" fill-opacity="1"><g transform="translate(543.094597, 600.631271)"><g><path d="M 30.9375 -21.703125 C 32.5625 -22.941406 33.800781 -24.203125 34.65625 -25.484375 C 35.507812 -26.765625 35.648438 -28.082031 35.078125 -29.4375 C 34.390625 -31.0625 33.082031 -31.976562 31.15625 -32.1875 C 29.238281 -32.40625 26.488281 -31.757812 22.90625 -30.25 C 18.914062 -28.5625 16.195312 -26.550781 14.75 -24.21875 C 13.3125 -21.894531 13.117188 -19.488281 14.171875 -17 C 14.890625 -15.3125 15.972656 -13.835938 17.421875 -12.578125 C 18.867188 -11.328125 21.019531 -10.148438 23.875 -9.046875 C 26.726562 -7.941406 30.679688 -6.789062 35.734375 -5.59375 L 30.75 7.171875 C 25.550781 5.628906 20.929688 4.035156 16.890625 2.390625 C 12.859375 0.753906 9.441406 -1.203125 6.640625 -3.484375 C 3.847656 -5.765625 1.722656 -8.625 0.265625 -12.0625 C -0.816406 -14.625 -1.289062 -17.109375 -1.15625 -19.515625 C -1.019531 -21.921875 -0.457031 -24.210938 0.53125 -26.390625 C -1.289062 -27.285156 -2.96875 -28.460938 -4.5 -29.921875 C -6.03125 -31.378906 -7.300781 -33.289062 -8.3125 -35.65625 C -9.21875 -37.8125 -9.601562 -39.816406 -9.46875 -41.671875 C -9.34375 -43.523438 -8.832031 -45.191406 -7.9375 -46.671875 C -6.820312 -48.734375 -5.222656 -50.546875 -3.140625 -52.109375 C -1.054688 -53.679688 2.039062 -55.335938 6.15625 -57.078125 L 16.5 -61.453125 L 14.09375 -67.125 L -21.96875 -51.859375 L -26.671875 -62.984375 L 32.46875 -88.03125 L 37.171875 -76.90625 L 27.65625 -72.875 L 34.78125 -56.046875 L 11.28125 -46.09375 C 9.394531 -45.289062 8.113281 -44.648438 7.4375 -44.171875 C 6.769531 -43.691406 6.285156 -43.148438 5.984375 -42.546875 C 5.390625 -41.503906 5.378906 -40.304688 5.953125 -38.953125 C 6.429688 -37.796875 7.390625 -36.851562 8.828125 -36.125 C 11.660156 -38.269531 14.898438 -40.113281 18.546875 -41.65625 C 24.015625 -43.96875 28.757812 -45.078125 32.78125 -44.984375 C 36.800781 -44.898438 40.097656 -43.96875 42.671875 -42.1875 C 45.253906 -40.414062 47.117188 -38.1875 48.265625 -35.5 C 51.785156 -27.1875 48.742188 -19.523438 39.140625 -12.515625 Z M 30.9375 -21.703125 "/></g></g></g><g fill="#fe6604" fill-opacity="1"><g transform="translate(600.818691, 576.180938)"><g><path d="M -48.046875 -53.109375 C -50.816406 -54.398438 -53.085938 -55.207031 -54.859375 -55.53125 C -56.628906 -55.851562 -58.164062 -55.898438 -59.46875 -55.671875 C -60.769531 -55.441406 -62.128906 -55.023438 -63.546875 -54.421875 C -65.097656 -53.765625 -66.457031 -52.929688 -67.625 -51.921875 C -68.789062 -50.910156 -69.90625 -49.785156 -70.96875 -48.546875 L -78.140625 -55.890625 C -76.628906 -57.398438 -75.070312 -58.753906 -73.46875 -59.953125 C -71.863281 -61.148438 -70.285156 -62.078125 -68.734375 -62.734375 C -66.097656 -63.847656 -63.546875 -64.347656 -61.078125 -64.234375 C -58.609375 -64.128906 -55.789062 -63.351562 -52.625 -61.90625 L -52.15625 -62.234375 C -55.882812 -65.585938 -59.003906 -67.550781 -61.515625 -68.125 C -64.035156 -68.695312 -66.609375 -68.425781 -69.234375 -67.3125 C -71.597656 -66.3125 -73.628906 -64.894531 -75.328125 -63.0625 L -82.03125 -70.46875 C -81.039062 -71.300781 -79.753906 -72.25 -78.171875 -73.3125 C -76.585938 -74.375 -74.882812 -75.289062 -73.0625 -76.0625 C -70.375 -77.207031 -67.765625 -77.992188 -65.234375 -78.421875 C -62.710938 -78.859375 -60.035156 -78.597656 -57.203125 -77.640625 C -54.378906 -76.691406 -51.1875 -74.703125 -47.625 -71.671875 C -44.070312 -68.640625 -39.988281 -64.238281 -35.375 -58.46875 Z M -48.328125 -77.71875 C -49.234375 -79.875 -49.296875 -81.953125 -48.515625 -83.953125 C -47.734375 -85.960938 -46.265625 -87.421875 -44.109375 -88.328125 C -41.953125 -89.242188 -39.878906 -89.285156 -37.890625 -88.453125 C -35.898438 -87.628906 -34.453125 -86.140625 -33.546875 -83.984375 C -32.628906 -81.828125 -32.554688 -79.726562 -33.328125 -77.6875 C -34.097656 -75.644531 -35.5625 -74.164062 -37.71875 -73.25 C -39.875 -72.34375 -41.953125 -72.320312 -43.953125 -73.1875 C -45.953125 -74.050781 -47.410156 -75.5625 -48.328125 -77.71875 Z M -48.328125 -77.71875 "/></g></g></g><g fill="#fe6604" fill-opacity="1"><g transform="translate(600.818691, 576.180938)"><g/></g></g><g fill="#fe6604" fill-opacity="1"><g transform="translate(624.702289, 566.064505)"><g><path d="M 11.90625 -33.328125 L -0.453125 -28.09375 L -21.921875 -75.984375 L -7.578125 -82.0625 Z M 16.078125 -6.234375 C 14.367188 -5.515625 12.710938 -5.222656 11.109375 -5.359375 C 9.515625 -5.492188 8.101562 -6.019531 6.875 -6.9375 C 5.65625 -7.851562 4.722656 -9.070312 4.078125 -10.59375 C 3.421875 -12.144531 3.1875 -13.6875 3.375 -15.21875 C 3.5625 -16.757812 4.160156 -18.148438 5.171875 -19.390625 C 6.179688 -20.640625 7.539062 -21.625 9.25 -22.34375 C 11.8125 -23.4375 14.203125 -23.554688 16.421875 -22.703125 C 18.640625 -21.847656 20.242188 -20.25 21.234375 -17.90625 C 22.222656 -15.570312 22.25 -13.316406 21.3125 -11.140625 C 20.382812 -8.960938 18.640625 -7.328125 16.078125 -6.234375 Z M 16.078125 -6.234375 "/></g></g></g><g fill="#fe6604" fill-opacity="1"><g transform="translate(656.39874, 552.638763)"><g><path d="M 11.90625 -33.328125 L -0.453125 -28.09375 L -21.921875 -75.984375 L -7.578125 -82.0625 Z M 16.078125 -6.234375 C 14.367188 -5.515625 12.710938 -5.222656 11.109375 -5.359375 C 9.515625 -5.492188 8.101562 -6.019531 6.875 -6.9375 C 5.65625 -7.851562 4.722656 -9.070312 4.078125 -10.59375 C 3.421875 -12.144531 3.1875 -13.6875 3.375 -15.21875 C 3.5625 -16.757812 4.160156 -18.148438 5.171875 -19.390625 C 6.179688 -20.640625 7.539062 -21.625 9.25 -22.34375 C 11.8125 -23.4375 14.203125 -23.554688 16.421875 -22.703125 C 18.640625 -21.847656 20.242188 -20.25 21.234375 -17.90625 C 22.222656 -15.570312 22.25 -13.316406 21.3125 -11.140625 C 20.382812 -8.960938 18.640625 -7.328125 16.078125 -6.234375 Z M 16.078125 -6.234375 "/></g></g></g><g clip-path="url(#6d50febcea)"><g clip-path="url(#d6a3a2b2e3)"><g clip-path="url(#bc4728bb42)"><path fill="#fcd165" d="M 99.574219 394.855469 L 104.261719 398.101562 L 102.214844 392.78125 L 105.460938 388.089844 L 100.136719 390.140625 L 95.449219 386.894531 L 97.496094 392.214844 L 94.25 396.90625 Z M 110.785156 189.207031 L 107.539062 193.894531 L 112.863281 191.847656 L 117.550781 195.09375 L 115.503906 189.769531 L 118.75 185.082031 L 113.429688 187.128906 L 108.738281 183.882812 Z M 62.589844 289.710938 L 63.609375 295.320312 L 65.925781 290.109375 L 71.535156 289.085938 L 66.324219 286.769531 L 65.304688 281.160156 L 62.988281 286.371094 L 57.375 287.394531 Z M 215.933594 152.21875 L 210.320312 153.242188 L 215.535156 155.558594 L 216.554688 161.167969 L 218.871094 155.957031 L 224.480469 154.933594 L 219.269531 152.621094 L 218.25 147.007812 Z M 215.933594 152.21875 " fill-opacity="1" fill-rule="nonzero"/></g></g></g><g clip-path="url(#44095cdd1f)"><g clip-path="url(#c994c79bf1)"><g clip-path="url(#48a6fe59ff)"><path fill="#ffe147" d="M 105.746094 293.222656 L 107.757812 302.078125 L 111.082031 293.628906 L 119.941406 291.617188 L 111.488281 288.289062 L 109.476562 279.433594 L 106.148438 287.886719 L 97.292969 289.898438 Z M 212.417969 195.378906 L 203.5625 197.390625 L 212.011719 200.714844 L 214.027344 209.570312 L 217.351562 201.121094 L 226.207031 199.109375 L 217.757812 195.78125 L 215.742188 186.925781 Z M 124.246094 370.449219 L 129.085938 362.761719 L 125.460938 354.433594 L 133.148438 359.273438 L 141.476562 355.648438 L 136.636719 363.335938 L 140.261719 371.664062 L 132.574219 366.824219 Z M 135.191406 213.878906 L 142.878906 218.71875 L 151.207031 215.09375 L 146.371094 222.78125 L 149.992188 231.109375 L 142.304688 226.269531 L 133.976562 229.894531 L 138.816406 222.207031 Z M 135.191406 213.878906 " fill-opacity="1" fill-rule="nonzero"/></g></g></g><g clip-path="url(#e76c2771d3)"><g clip-path="url(#3ba6802133)"><g clip-path="url(#4d2a447782)"><path fill="#fe6604" d="M 133.511719 434.976562 C 132.375 437.769531 133.714844 440.960938 136.507812 442.097656 C 139.300781 443.234375 142.488281 441.894531 143.625 439.101562 L 171.078125 371.769531 L 133.878906 434.242188 C 133.746094 434.46875 133.613281 434.730469 133.511719 434.976562 Z M 68.277344 221.722656 C 65.378906 220.539062 62.070312 221.933594 60.886719 224.832031 C 59.703125 227.734375 61.09375 231.039062 63.992188 232.222656 L 133.875 260.710938 L 69.035156 222.101562 C 68.804688 221.964844 68.53125 221.828125 68.277344 221.722656 Z M 283.054688 159.363281 C 284.210938 156.527344 282.847656 153.292969 280.015625 152.132812 C 277.179688 150.980469 273.945312 152.339844 272.785156 155.175781 L 244.929688 223.503906 L 282.683594 160.105469 C 282.816406 159.878906 282.953125 159.613281 283.054688 159.363281 Z M 50.78125 343.898438 L 129.476562 323.945312 L 54.644531 355.433594 C 51.542969 356.738281 47.964844 355.28125 46.65625 352.175781 C 45.347656 349.070312 46.808594 345.496094 49.914062 344.1875 C 50.1875 344.074219 50.5 343.972656 50.78125 343.898438 Z M 161.746094 140.414062 L 181.695312 219.109375 L 150.210938 144.273438 C 148.90625 141.171875 150.363281 137.59375 153.46875 136.285156 C 156.574219 134.976562 160.148438 136.4375 161.457031 139.542969 C 161.570312 139.820312 161.671875 140.132812 161.746094 140.414062 Z M 161.746094 140.414062 " fill-opacity="1" fill-rule="nonzero"/></g></g></g><g clip-path="url(#b3ea0d065d)"><g clip-path="url(#487c10aee6)"><g clip-path="url(#3c99bef516)"><path fill="#fcd165" d="M 752.230469 433.453125 L 747.738281 429.941406 L 749.472656 435.371094 L 745.957031 439.863281 L 751.390625 438.128906 L 755.882812 441.644531 L 754.148438 436.210938 L 757.664062 431.71875 Z M 729.03125 638.097656 L 732.546875 633.609375 L 727.113281 635.34375 L 722.621094 631.828125 L 724.351562 637.261719 L 720.839844 641.75 L 726.269531 640.015625 L 730.761719 643.53125 Z M 783.011719 540.582031 L 782.320312 534.921875 L 779.703125 539.988281 L 774.042969 540.679688 L 779.113281 543.296875 L 779.804688 548.957031 L 782.421875 543.890625 L 788.082031 543.199219 Z M 621.902344 668.882812 L 627.5625 668.191406 L 622.496094 665.574219 L 621.804688 659.914062 L 619.1875 664.980469 L 613.527344 665.671875 L 618.59375 668.289062 L 619.289062 673.949219 Z M 621.902344 668.882812 " fill-opacity="1" fill-rule="nonzero"/></g></g></g><g clip-path="url(#21a0e70254)"><g clip-path="url(#72c8b13337)"><g clip-path="url(#02e1942fc1)"><path fill="#ffe147" d="M 740.132812 534.554688 L 738.640625 525.59375 L 734.828125 533.835938 L 725.871094 535.328125 L 734.113281 539.144531 L 735.605469 548.101562 L 739.417969 539.859375 L 748.378906 538.367188 Z M 627.929688 626.003906 L 636.890625 624.511719 L 628.648438 620.699219 L 627.15625 611.742188 L 623.339844 619.984375 L 614.382812 621.476562 L 622.625 625.289062 L 624.117188 634.246094 Z M 726.171875 456.378906 L 720.894531 463.769531 L 724.027344 472.296875 L 716.636719 467.015625 L 708.109375 470.148438 L 713.386719 462.757812 L 710.257812 454.230469 L 717.648438 459.511719 Z M 706.105469 612.042969 L 698.714844 606.765625 L 690.1875 609.894531 L 695.46875 602.503906 L 692.335938 593.980469 L 699.726562 599.257812 L 708.253906 596.125 L 702.972656 603.515625 Z M 706.105469 612.042969 " fill-opacity="1" fill-rule="nonzero"/></g></g></g><g clip-path="url(#69de23ced2)"><g clip-path="url(#9c048020b7)"><g clip-path="url(#4770ec4b2b)"><path fill="#fe6604" d="M 720.691406 391.417969 C 721.992188 388.699219 720.839844 385.433594 718.117188 384.136719 C 715.398438 382.839844 712.132812 383.988281 710.835938 386.710938 L 679.5 452.324219 L 720.285156 392.132812 C 720.429688 391.914062 720.578125 391.660156 720.691406 391.417969 Z M 773.363281 608.121094 C 776.1875 609.46875 779.574219 608.269531 780.925781 605.445312 C 782.273438 602.621094 781.078125 599.238281 778.253906 597.886719 L 710.15625 565.367188 L 772.628906 607.699219 C 772.851562 607.84375 773.117188 608 773.363281 608.121094 Z M 555.3125 657.835938 C 553.992188 660.597656 555.164062 663.90625 557.925781 665.226562 C 560.6875 666.546875 563.996094 665.375 565.316406 662.613281 L 597.117188 596.027344 L 555.726562 657.113281 C 555.578125 657.335938 555.429688 657.589844 555.3125 657.835938 Z M 797.964844 487.175781 L 718.238281 502.496094 L 794.78125 475.433594 C 797.953125 474.3125 801.441406 475.976562 802.5625 479.152344 C 803.6875 482.328125 802.023438 485.8125 798.847656 486.9375 C 798.566406 487.035156 798.25 487.117188 797.964844 487.175781 Z M 675.308594 683.832031 L 659.988281 604.109375 L 687.046875 680.652344 C 688.171875 683.828125 686.507812 687.3125 683.332031 688.4375 C 680.15625 689.5625 676.671875 687.894531 675.546875 684.71875 C 675.449219 684.4375 675.367188 684.117188 675.308594 683.832031 Z M 675.308594 683.832031 " fill-opacity="1" fill-rule="nonzero"/></g></g></g></svg>