<svg xmlns="http://www.w3.org/2000/svg" xmlns:xlink="http://www.w3.org/1999/xlink" width="1080" zoomAndPan="magnify" viewBox="0 0 810 809.999993" height="1080" preserveAspectRatio="xMidYMid meet" version="1.0"><rect x="-81" width="972" fill="#ffffff" y="-80.999999" height="971.999992" fill-opacity="1"/><rect x="-81" width="972" fill="#ffffff" y="-80.999999" height="971.999992" fill-opacity="1"/><path fill="#fe6604" d="M 194.675781 178.753906 C 229.730469 169.257812 269.378906 161.820312 316.128906 155.988281 C 332.820312 152.816406 349.3125 163.570312 352.980469 179.980469 C 356.335938 193.046875 359.628906 206.070312 362.859375 219.042969 C 363.386719 221.15625 365.507812 222.433594 367.628906 221.90625 C 369.730469 221.386719 371.019531 219.25 370.492188 217.140625 C 367.257812 204.15625 363.953125 191.109375 360.632812 178.148438 C 356.078125 157.765625 335.464844 144.371094 314.914062 148.21875 C 268.035156 154.0625 228.03125 161.570312 192.917969 171.089844 C 172.226562 174.976562 158.625 194.660156 163.261719 215.433594 L 182.582031 301.964844 C 182.992188 303.796875 184.621094 305.042969 186.417969 305.042969 C 188.960938 305.042969 190.804688 302.6875 190.265625 300.253906 L 170.945312 213.722656 C 167.460938 198.144531 177.039062 182.09375 194.675781 178.753906 Z M 194.675781 178.753906 " fill-opacity="1" fill-rule="nonzero"/><path fill="#fe6604" d="M 230.042969 496.511719 C 227.921875 496.980469 226.59375 499.085938 227.070312 501.207031 L 229.375 511.53125 C 233.398438 529.5625 249.988281 542.128906 267.910156 542.128906 C 270.25 542.128906 272.617188 541.914062 274.976562 541.472656 C 312.726562 537.886719 352.765625 530.378906 397.085938 518.589844 C 414.105469 515.398438 426.648438 501.339844 427.585938 484.402344 C 427.703125 482.238281 426.042969 480.382812 423.875 480.257812 C 421.761719 480.027344 419.847656 481.796875 419.730469 483.972656 C 418.992188 497.277344 409.085938 508.335938 395.351562 510.921875 C 351.171875 522.667969 311.550781 530.097656 273.875 533.6875 C 257.253906 536.816406 240.691406 526.109375 237.050781 509.816406 L 234.742188 499.484375 C 234.273438 497.367188 232.167969 496.015625 230.042969 496.511719 Z M 230.042969 496.511719 " fill-opacity="1" fill-rule="nonzero"/><path fill="#fe6604" d="M 390.574219 168.382812 C 399.144531 164.671875 412.773438 177.578125 418.730469 183.238281 C 469.914062 231.734375 479.550781 245.015625 495.628906 321.304688 C 500.285156 343.394531 505.097656 366.234375 514.28125 387.992188 C 524.597656 412.421875 538.089844 435.398438 554.394531 456.273438 C 555.167969 457.269531 556.324219 457.785156 557.496094 457.785156 C 560.726562 457.785156 562.621094 454.039062 560.589844 451.429688 C 544.714844 431.101562 531.570312 408.730469 521.53125 384.929688 C 512.640625 363.875 507.90625 341.40625 503.324219 319.683594 C 486.824219 241.429688 476.378906 227.023438 424.011719 177.40625 C 416.460938 170.246094 400.75 155.355469 387.417969 161.171875 C 366.382812 170.378906 378.476562 207.828125 382.683594 219.089844 C 392.238281 244.636719 410.101562 267.105469 432.988281 282.351562 C 434.808594 283.550781 437.246094 283.066406 438.445312 281.261719 C 439.648438 279.453125 439.160156 277.011719 437.355469 275.808594 C 415.828125 261.46875 399.035156 240.34375 390.050781 216.335938 C 388.484375 212.136719 375.167969 175.121094 390.574219 168.382812 Z M 390.574219 168.382812 " fill-opacity="1" fill-rule="nonzero"/><path fill="#fe6604" d="M 165.445312 448.425781 L 168.824219 463.527344 C 153.765625 468.640625 138.628906 472.964844 130.949219 481.566406 C 117.511719 495.984375 121.671875 516.160156 136.828125 528.082031 C 144.390625 534.050781 153.484375 537.695312 161.332031 540.453125 C 169.019531 543.285156 176.816406 545.726562 185.128906 545.242188 C 185.835938 545.199219 186.453125 544.925781 187.007812 544.558594 L 194 575.953125 C 199.328125 599.929688 225.085938 615.363281 251.398438 610.476562 C 306.6875 604.816406 363.863281 593.601562 422.589844 578.394531 C 442.839844 574.527344 457.34375 559.855469 460.757812 542.441406 C 466.992188 532.140625 468.613281 521.214844 466.207031 510.414062 C 455.234375 450.015625 442 385.230469 426.871094 317.855469 C 426.394531 315.738281 424.242188 314.398438 422.171875 314.882812 C 420.050781 315.359375 418.722656 317.457031 419.195312 319.578125 C 434.300781 386.851562 447.515625 451.527344 458.496094 511.96875 C 463.355469 533.878906 447.554688 553.535156 425.042969 557.820312 C 366.699219 573.042969 311.765625 583.316406 261.433594 588.402344 C 238.367188 592.789062 215.703125 579.179688 210.933594 558.105469 L 201.277344 514.960938 C 210.015625 509.023438 229.71875 493.539062 233.433594 483.730469 C 240.070312 465.875 221.925781 454.445312 203.304688 456.019531 C 198.566406 456.449219 193.644531 457.242188 188.671875 458.234375 L 187.3125 452.210938 C 187.355469 452.210938 187.398438 452.210938 187.441406 452.207031 C 196.019531 451.984375 207.0625 448.296875 212.324219 438.625 C 218.609375 427.1875 213.5 413.390625 206.09375 405.40625 C 197.015625 395.664062 185.003906 390.40625 172.511719 385.863281 L 169.324219 371.648438 C 179.269531 369.628906 190.832031 364.722656 197.359375 356.070312 C 204.972656 346.035156 200.09375 328.550781 190.726562 321.246094 C 179.3125 312.554688 167.449219 305.585938 153.632812 301.128906 L 127.566406 184.640625 C 122.949219 163.773438 137.609375 143.242188 161.148438 138.777344 C 234.375 119.367188 325.230469 107.488281 332.339844 107.488281 C 352.773438 106.804688 371.019531 119.898438 375.121094 138.484375 C 375.585938 140.605469 377.722656 141.902344 379.804688 141.480469 C 381.933594 141.015625 383.269531 138.917969 382.804688 136.796875 C 377.894531 114.523438 356.726562 98.941406 332.222656 99.621094 C 322.871094 99.621094 230.703125 112.199219 159.410156 131.109375 C 154.246094 132.085938 149.445312 134.011719 144.917969 136.359375 C 118.835938 141.484375 102.113281 164.800781 107.402344 188.597656 L 117.527344 233.824219 C 94.113281 246.519531 96.832031 270.640625 121.066406 283.644531 C 123.742188 285.078125 126.632812 286.175781 129.496094 287.292969 L 131.734375 297.289062 C 114.496094 297.183594 102.464844 305.933594 98.222656 316.539062 C 89.578125 337.285156 108.5625 366.613281 148.472656 372.121094 L 149.851562 378.394531 C 138.546875 374.824219 126.113281 373.078125 116.101562 380.769531 C 109.023438 386.234375 105.4375 396.191406 106.960938 406.144531 C 111.210938 433.25 139.507812 440.429688 165.445312 448.425781 Z M 203.996094 463.855469 C 215.484375 462.796875 230.667969 468.59375 226.070312 480.964844 C 225.074219 483.59375 222.941406 485.960938 221.007812 487.984375 C 206.007812 503.808594 187.113281 516.167969 171.921875 522.59375 C 169.925781 523.441406 168.988281 525.75 169.839844 527.753906 C 170.683594 529.75 172.988281 530.6875 174.996094 529.835938 C 177.667969 528.703125 180.3125 527.371094 182.886719 526.050781 L 185.433594 537.484375 C 182.304688 537.085938 178.941406 538.574219 164 533.046875 C 156.707031 530.488281 148.359375 527.160156 141.699219 521.898438 C 130.230469 512.886719 126.386719 498.007812 136.761719 486.871094 C 146.09375 476.414062 186.960938 465.394531 203.996094 463.855469 Z M 124.785156 276.710938 C 108.257812 267.839844 102.527344 252.5625 119.34375 241.925781 L 127.378906 277.824219 C 126.535156 277.425781 125.59375 277.144531 124.785156 276.710938 Z M 112.792969 346.96875 C 106.292969 340.199219 101.511719 329.097656 105.507812 319.511719 C 111.566406 304.359375 131.601562 302.550781 149.152344 307.832031 C 162.320312 311.699219 174.972656 319.132812 185.921875 327.480469 C 192.167969 332.347656 195.867188 345.023438 191.082031 351.320312 C 185.082031 359.28125 172.867188 363.40625 163.734375 364.617188 C 163.730469 364.617188 163.722656 364.617188 163.71875 364.617188 C 149.824219 366.933594 126.664062 360.996094 112.792969 346.96875 Z M 120.894531 387.003906 C 124.117188 384.535156 128.59375 383.214844 133.617188 383.214844 C 142.246094 383.214844 186.308594 395.726562 200.332031 410.765625 C 206.050781 416.929688 209.632812 427.171875 205.417969 434.851562 C 201.429688 442.191406 191.316406 445.277344 182.628906 444.132812 C 175.445312 443.609375 167.675781 441.050781 158.304688 438.003906 C 139.375 432.011719 117.914062 425.226562 114.734375 404.941406 C 113.640625 397.785156 116.0625 390.742188 120.894531 387.003906 Z M 120.894531 387.003906 " fill-opacity="1" fill-rule="nonzero"/><path fill="#fe6604" d="M 212.316406 154.296875 C 236.472656 148.382812 262.101562 143.652344 288.496094 140.257812 C 290.652344 139.980469 292.175781 138.011719 291.898438 135.855469 C 291.617188 133.699219 289.59375 132.175781 287.492188 132.453125 C 260.804688 135.890625 234.882812 140.667969 210.445312 146.65625 C 208.332031 147.171875 207.042969 149.304688 207.558594 151.414062 C 208.074219 153.503906 210.183594 154.8125 212.316406 154.296875 Z M 212.316406 154.296875 " fill-opacity="1" fill-rule="nonzero"/><path fill="#fe6604" d="M 689.363281 520.597656 C 672.121094 508.015625 645.699219 478.207031 620.699219 497.183594 L 621.539062 495.460938 C 606.109375 484.914062 587.789062 471.8125 569.582031 483.691406 C 516.878906 516.976562 472.351562 566.929688 448.222656 614.253906 C 440.949219 607.894531 433.5625 601.679688 426.070312 595.859375 C 424.355469 594.527344 421.882812 594.847656 420.550781 596.558594 C 419.21875 598.273438 419.53125 600.746094 421.246094 602.078125 C 429.441406 608.441406 437.535156 615.335938 445.519531 622.371094 C 444.699219 631.15625 451.847656 637.703125 457.5625 644.5625 C 463.5625 651.578125 469.6875 657.425781 475.96875 662.765625 C 473.421875 702.152344 545.199219 749.3125 577.6875 738.191406 C 589.378906 733.980469 598.3125 725.234375 607.175781 715.886719 C 635.730469 685.996094 668.09375 652.113281 697.179688 616.871094 C 698.5625 615.195312 698.328125 612.714844 696.652344 611.332031 C 694.992188 609.960938 692.515625 610.1875 691.117188 611.859375 C 662.210938 646.886719 629.949219 680.660156 601.480469 710.460938 C 572.640625 740.875 518.894531 695.496094 517.550781 694.089844 C 491.289062 666.613281 505.121094 633.132812 528.765625 603.757812 C 538.941406 591.121094 593.464844 528.023438 613.074219 512.996094 L 624.976562 503.769531 C 644.632812 488.253906 666.90625 513.945312 684.746094 526.964844 C 693.46875 533.25 704.652344 539.1875 712.648438 545.699219 C 714.339844 547.066406 716.808594 546.816406 718.183594 545.128906 C 719.550781 543.445312 719.300781 540.964844 717.617188 539.59375 C 708.988281 532.582031 698.128906 526.914062 689.363281 520.597656 Z M 689.363281 520.597656 " fill-opacity="1" fill-rule="nonzero"/><path fill="#fe6604" d="M 276.234375 311.5 C 271.308594 312.296875 268.59375 320.890625 270.175781 330.699219 C 271.757812 340.503906 277.035156 347.808594 281.964844 347.015625 C 286.894531 346.21875 289.605469 337.625 288.023438 327.820312 C 286.441406 318.011719 281.164062 310.707031 276.234375 311.5 Z M 276.234375 311.5 " fill-opacity="1" fill-rule="nonzero"/><path fill="#fe6604" d="M 319.53125 302.542969 C 314.601562 303.335938 311.890625 311.929688 313.472656 321.738281 C 315.054688 331.546875 320.332031 338.851562 325.261719 338.058594 C 330.1875 337.261719 332.902344 328.667969 331.320312 318.859375 C 329.738281 309.050781 324.460938 301.746094 319.53125 302.542969 Z M 319.53125 302.542969 " fill-opacity="1" fill-rule="nonzero"/><path fill="#fe6604" d="M 330.859375 364.285156 C 318.910156 375.019531 302.816406 378 288.898438 372.121094 C 286.90625 371.28125 284.589844 372.214844 283.738281 374.207031 C 282.890625 376.207031 283.828125 378.519531 285.824219 379.363281 C 302.414062 386.390625 321.71875 383.074219 336.113281 370.132812 C 337.730469 368.683594 337.867188 366.195312 336.410156 364.582031 C 334.957031 362.957031 332.460938 362.832031 330.859375 364.285156 Z M 330.859375 364.285156 " fill-opacity="1" fill-rule="nonzero"/><path fill="#fe6604" d="M 228.398438 376.480469 C 236.335938 374.46875 244.359375 372.664062 252.351562 370.792969 L 258.882812 398.289062 C 261.164062 407.871094 274.464844 410.242188 284.890625 408.207031 C 305.101562 405.351562 326.5625 401.210938 350.488281 395.574219 C 352.605469 395.070312 353.917969 392.957031 353.414062 390.839844 C 352.921875 388.71875 350.78125 387.410156 348.6875 387.917969 C 324.988281 393.503906 303.761719 397.589844 283.585938 400.453125 C 274.207031 402.289062 267.210938 399.316406 266.535156 396.464844 L 260.007812 368.976562 C 292.71875 361.515625 325.8125 355.25 359.011719 350.214844 C 360.941406 358.699219 362.011719 363.125 363.03125 368.457031 C 363.433594 370.589844 365.5 372.003906 367.632812 371.582031 C 369.769531 371.179688 371.167969 369.113281 370.757812 366.984375 C 369.734375 361.617188 368.496094 356.40625 366.820312 349.09375 C 374.648438 347.953125 382.476562 346.730469 390.304688 345.730469 C 392.460938 345.453125 393.988281 343.480469 393.710938 341.328125 C 393.433594 339.167969 391.4375 337.671875 389.3125 337.921875 C 381.246094 338.953125 373.179688 340.214844 365.113281 341.390625 C 359.011719 312.808594 356.449219 299.96875 350.648438 280.78125 C 348.714844 272.605469 337.417969 268.375 324.578125 270.859375 C 298.332031 275.023438 275.835938 279.410156 255.980469 284.222656 C 245.46875 286.265625 238.988281 291.046875 237.226562 298.046875 C 235.082031 306.570312 239.542969 316.886719 241.285156 324.199219 L 250.535156 363.140625 C 242.503906 365.023438 234.441406 366.835938 226.464844 368.859375 C 224.359375 369.390625 223.082031 371.53125 223.621094 373.636719 C 224.171875 375.816406 226.394531 377.011719 228.398438 376.480469 Z M 247.335938 316.585938 C 242.894531 301.605469 241.945312 294.980469 257.660156 291.90625 C 277.480469 287.105469 299.777344 282.761719 325.945312 278.609375 C 335.320312 276.78125 342.316406 279.746094 343.054688 282.804688 C 349.152344 303.492188 349.136719 304.203125 357.3125 342.511719 C 324.070312 347.5625 290.941406 353.851562 258.1875 361.324219 C 247.675781 317.546875 249.566406 324.171875 247.335938 316.585938 Z M 247.335938 316.585938 " fill-opacity="1" fill-rule="nonzero"/><path fill="#fe6604" d="M 398.253906 95.730469 L 417.085938 66.789062 C 418.269531 64.964844 417.753906 62.53125 415.933594 61.34375 C 414.117188 60.15625 411.671875 60.679688 410.492188 62.496094 L 391.65625 91.4375 C 390.476562 93.261719 390.992188 95.695312 392.808594 96.882812 C 394.621094 98.0625 397.070312 97.550781 398.253906 95.730469 Z M 398.253906 95.730469 " fill-opacity="1" fill-rule="nonzero"/><path fill="#fe6604" d="M 449.09375 90.925781 C 435.914062 98.195312 422.035156 104.554688 407.832031 109.835938 C 403.011719 111.632812 405.636719 119.042969 410.578125 117.210938 C 425.136719 111.796875 439.375 105.273438 452.894531 97.808594 C 454.792969 96.765625 455.484375 94.367188 454.433594 92.46875 C 453.382812 90.5625 450.996094 89.871094 449.09375 90.925781 Z M 449.09375 90.925781 " fill-opacity="1" fill-rule="nonzero"/><path fill="#fe6604" d="M 460.359375 140.003906 C 457.214844 139.46875 417.710938 132.648438 416.660156 132.46875 C 414.515625 132.085938 412.492188 133.542969 412.125 135.683594 C 411.761719 137.824219 413.199219 139.859375 415.339844 140.222656 C 446.445312 145.605469 459.082031 147.8125 459.710938 147.8125 C 464.5 147.8125 465.085938 140.792969 460.359375 140.003906 Z M 460.359375 140.003906 " fill-opacity="1" fill-rule="nonzero"/></svg>