<svg xmlns="http://www.w3.org/2000/svg" xmlns:xlink="http://www.w3.org/1999/xlink" width="1080" zoomAndPan="magnify" viewBox="0 0 810 809.999993" height="1080" preserveAspectRatio="xMidYMid meet" version="1.0"><defs><clipPath id="59fd0a76c2"><path d="M 618.839844 100.445312 L 699.839844 100.445312 L 699.839844 181.445312 L 618.839844 181.445312 Z M 618.839844 100.445312 " clip-rule="nonzero"/></clipPath><clipPath id="f97b06a94b"><path d="M 659.339844 100.445312 C 636.972656 100.445312 618.839844 118.578125 618.839844 140.945312 C 618.839844 163.3125 636.972656 181.445312 659.339844 181.445312 C 681.707031 181.445312 699.839844 163.3125 699.839844 140.945312 C 699.839844 118.578125 681.707031 100.445312 659.339844 100.445312 Z M 659.339844 100.445312 " clip-rule="nonzero"/></clipPath><clipPath id="c4ba92f508"><path d="M 100.441406 194.40625 L 155.519531 194.40625 L 155.519531 249.484375 L 100.441406 249.484375 Z M 100.441406 194.40625 " clip-rule="nonzero"/></clipPath><clipPath id="8d98f65a1d"><path d="M 127.980469 194.40625 C 112.769531 194.40625 100.441406 206.734375 100.441406 221.945312 C 100.441406 237.15625 112.769531 249.484375 127.980469 249.484375 C 143.191406 249.484375 155.519531 237.15625 155.519531 221.945312 C 155.519531 206.734375 143.191406 194.40625 127.980469 194.40625 Z M 127.980469 194.40625 " clip-rule="nonzero"/></clipPath></defs><rect x="-81" width="972" fill="#ffffff" y="-80.999999" height="971.999992" fill-opacity="1"/><rect x="-81" width="972" fill="#ffffff" y="-80.999999" height="971.999992" fill-opacity="1"/><path fill="#ffdec8" d="M 227.59375 251.726562 C 294.273438 184.648438 275.179688 142.605469 320.804688 111.550781 C 391.007812 63.761719 522.027344 104.878906 599.328125 170.609375 C 694 251.113281 742.847656 398.105469 687.207031 531.085938 C 627.945312 672.710938 472.03125 746.226562 332.910156 724.070312 C 208.671875 704.285156 86.542969 606.410156 74.308594 489.027344 C 72.980469 476.300781 67.125 407.527344 108.191406 348.230469 C 142.132812 299.214844 174.738281 304.898438 227.59375 251.726562 " fill-opacity="1" fill-rule="nonzero"/><path fill="#fe6604" d="M 404.367188 728.414062 L 142.328125 728.414062 C 131.179688 728.414062 122.144531 718.792969 122.144531 706.921875 L 147.691406 141.351562 C 147.691406 129.484375 156.726562 119.859375 167.875 119.859375 L 429.914062 119.859375 C 441.0625 119.859375 450.105469 129.484375 450.105469 141.351562 L 424.554688 706.921875 C 424.554688 718.792969 415.519531 728.414062 404.367188 728.414062 " fill-opacity="1" fill-rule="nonzero"/><path fill="#ffd4b9" d="M 130.421875 181.265625 L 132.175781 142.578125 C 132.175781 130.761719 141.214844 121.179688 152.363281 121.179688 L 414.398438 121.179688 C 425.550781 121.179688 434.589844 130.761719 434.589844 142.578125 L 409.042969 705.671875 C 409.042969 717.492188 400 727.070312 388.855469 727.070312 L 126.816406 727.070312 C 115.667969 727.070312 106.628906 717.492188 106.628906 705.671875 L 126.777344 261.585938 L 130.421875 181.265625 " fill-opacity="1" fill-rule="nonzero"/><path fill="#000000" d="M 388.851562 728.222656 L 126.816406 728.222656 C 115.046875 728.222656 105.476562 718.105469 105.476562 705.671875 L 125.625 261.535156 C 125.652344 260.914062 126.164062 260.429688 126.777344 260.429688 C 126.796875 260.429688 126.8125 260.429688 126.832031 260.433594 C 127.464844 260.460938 127.960938 261 127.933594 261.636719 L 107.785156 705.726562 C 107.785156 716.832031 116.320312 725.914062 126.816406 725.914062 L 388.851562 725.914062 C 399.347656 725.914062 407.886719 716.832031 407.886719 705.671875 L 433.4375 142.523438 C 433.433594 131.414062 424.898438 122.332031 414.402344 122.332031 L 152.363281 122.332031 C 141.867188 122.332031 133.332031 131.414062 133.332031 142.578125 L 131.574219 181.3125 C 131.546875 181.949219 130.992188 182.457031 130.371094 182.414062 C 129.730469 182.386719 129.238281 181.847656 129.269531 181.210938 L 131.023438 142.523438 C 131.023438 130.140625 140.59375 120.023438 152.363281 120.023438 L 414.402344 120.023438 C 426.171875 120.023438 435.742188 130.140625 435.742188 142.578125 L 410.195312 705.726562 C 410.195312 718.105469 400.625 728.222656 388.851562 728.222656 " fill-opacity="1" fill-rule="nonzero"/><path fill="#ffffff" d="M 379.28125 716.304688 L 137.03125 716.304688 C 126.726562 716.304688 118.371094 707.449219 118.371094 696.519531 L 143.378906 160.042969 C 143.378906 149.117188 151.730469 140.261719 162.039062 140.261719 L 404.289062 140.261719 C 414.59375 140.261719 422.949219 149.117188 422.949219 160.042969 L 397.941406 696.519531 C 397.941406 707.449219 389.589844 716.304688 379.28125 716.304688 " fill-opacity="1" fill-rule="nonzero"/><path fill="#000000" d="M 227.855469 119.984375 L 234.175781 129.859375 C 238.015625 135.851562 244.449219 139.453125 251.335938 139.453125 L 315.144531 139.453125 C 321.882812 139.453125 328.195312 136.007812 332.0625 130.222656 L 338.910156 119.984375 L 227.855469 119.984375 " fill-opacity="1" fill-rule="nonzero"/><path fill="#ffd4b9" d="M 177.664062 663.558594 L 178.898438 636.332031 C 179.109375 631.699219 175.410156 627.828125 170.769531 627.828125 L 143.332031 627.828125 C 138.980469 627.828125 135.402344 631.25 135.203125 635.59375 L 133.96875 662.820312 C 133.757812 667.453125 137.457031 671.324219 142.097656 671.324219 L 169.535156 671.324219 C 173.886719 671.324219 177.464844 667.902344 177.664062 663.558594 " fill-opacity="1" fill-rule="nonzero"/><path fill="#000000" d="M 177.664062 663.558594 L 177.671875 663.558594 Z M 143.332031 628.980469 C 139.589844 628.980469 136.527344 631.910156 136.359375 635.648438 L 135.121094 662.871094 C 135.035156 664.792969 135.71875 666.617188 137.046875 668.007812 C 138.378906 669.402344 140.171875 670.167969 142.097656 670.167969 L 169.535156 670.167969 C 173.277344 670.167969 176.339844 667.238281 176.507812 663.5 L 177.746094 636.28125 C 177.832031 634.359375 177.148438 632.53125 175.820312 631.144531 C 174.488281 629.75 172.695312 628.980469 170.769531 628.980469 Z M 169.535156 672.480469 L 142.097656 672.480469 C 139.535156 672.480469 137.148438 671.457031 135.378906 669.609375 C 133.609375 667.753906 132.699219 665.324219 132.816406 662.765625 L 134.050781 635.542969 C 134.277344 630.566406 138.355469 626.671875 143.332031 626.671875 L 170.769531 626.671875 C 173.332031 626.671875 175.71875 627.695312 177.488281 629.542969 C 179.257812 631.394531 180.167969 633.828125 180.054688 636.386719 L 178.816406 663.609375 C 178.589844 668.582031 174.511719 672.480469 169.535156 672.480469 " fill-opacity="1" fill-rule="nonzero"/><path fill="#ffffff" d="M 376.476562 640.027344 L 373.933594 640.027344 L 374.21875 636.105469 C 374.324219 633.792969 372.476562 631.5625 370.160156 631.5625 L 356.464844 631.5625 C 354.292969 631.5625 352.507812 633.566406 352.410156 635.734375 L 352.097656 640.027344 L 349.035156 640.027344 C 344.683594 640.027344 341.105469 643.335938 340.90625 647.683594 L 340.0625 663.007812 C 339.851562 667.640625 343.554688 671.589844 348.191406 671.589844 L 375.628906 671.589844 C 379.980469 671.589844 383.558594 668.035156 383.757812 663.691406 L 384.605469 648.488281 C 384.8125 643.855469 381.113281 640.027344 376.476562 640.027344 " fill-opacity="1" fill-rule="nonzero"/><path fill="#000000" d="M 349.035156 641.183594 C 345.289062 641.183594 342.226562 644.0625 342.058594 647.734375 L 341.214844 663.074219 C 341.132812 664.980469 341.84375 666.882812 343.179688 668.277344 C 344.511719 669.671875 346.289062 670.4375 348.191406 670.4375 L 375.628906 670.4375 C 379.304688 670.4375 382.433594 667.386719 382.605469 663.636719 L 383.449219 648.425781 C 383.535156 646.527344 382.859375 644.71875 381.542969 643.339844 C 380.214844 641.949219 378.414062 641.183594 376.476562 641.183594 L 372.691406 641.183594 L 373.066406 636.019531 C 373.105469 635.179688 372.753906 634.269531 372.125 633.613281 C 371.570312 633.035156 370.875 632.710938 370.160156 632.710938 L 356.464844 632.710938 C 354.992188 632.710938 353.632812 634.148438 353.5625 635.785156 L 353.175781 641.183594 Z M 375.628906 672.746094 L 348.191406 672.746094 C 345.652344 672.746094 343.28125 671.726562 341.511719 669.871094 C 339.742188 668.023438 338.792969 665.503906 338.910156 662.953125 L 339.757812 647.617188 C 339.980469 642.71875 344.054688 638.875 349.035156 638.875 L 351.027344 638.875 L 351.257812 635.652344 C 351.382812 632.820312 353.769531 630.40625 356.464844 630.40625 L 370.160156 630.40625 C 371.511719 630.40625 372.804688 630.976562 373.796875 632.011719 C 374.867188 633.132812 375.441406 634.644531 375.371094 636.15625 L 375.175781 638.875 L 376.476562 638.875 C 379.050781 638.875 381.441406 639.894531 383.210938 641.746094 C 384.96875 643.578125 385.871094 645.996094 385.757812 648.539062 L 384.910156 663.753906 C 384.6875 668.703125 380.519531 672.746094 375.628906 672.746094 " fill-opacity="1" fill-rule="nonzero"/><path fill="#ffffff" d="M 370.832031 654.558594 C 370.832031 659.152344 367.105469 662.875 362.515625 662.875 C 357.921875 662.875 354.199219 659.152344 354.199219 654.558594 C 354.199219 649.96875 357.921875 646.242188 362.515625 646.242188 C 367.105469 646.242188 370.832031 649.96875 370.832031 654.558594 " fill-opacity="1" fill-rule="nonzero"/><path fill="#000000" d="M 362.515625 647.398438 C 358.566406 647.398438 355.355469 650.613281 355.355469 654.558594 C 355.355469 658.507812 358.566406 661.71875 362.515625 661.71875 C 366.460938 661.71875 369.675781 658.507812 369.675781 654.558594 C 369.675781 650.613281 366.460938 647.398438 362.515625 647.398438 Z M 362.515625 664.03125 C 357.292969 664.03125 353.042969 659.78125 353.042969 654.558594 C 353.042969 649.339844 357.292969 645.085938 362.515625 645.085938 C 367.734375 645.085938 371.984375 649.339844 371.984375 654.558594 C 371.984375 659.78125 367.734375 664.03125 362.515625 664.03125 " fill-opacity="1" fill-rule="nonzero"/><path fill="#ffffff" d="M 234.003906 649.574219 C 234.003906 634.40625 246.300781 622.109375 261.46875 622.109375 C 276.636719 622.109375 288.933594 634.40625 288.933594 649.574219 C 288.933594 664.742188 276.636719 677.039062 261.46875 677.039062 C 246.300781 677.039062 234.003906 664.742188 234.003906 649.574219 " fill-opacity="1" fill-rule="nonzero"/><path fill="#000000" d="M 261.46875 623.265625 C 246.960938 623.265625 235.160156 635.070312 235.160156 649.574219 C 235.160156 664.082031 246.960938 675.886719 261.46875 675.886719 C 275.976562 675.886719 287.777344 664.082031 287.777344 649.574219 C 287.777344 635.070312 275.976562 623.265625 261.46875 623.265625 Z M 261.46875 678.195312 C 245.6875 678.195312 232.847656 665.355469 232.847656 649.574219 C 232.847656 633.792969 245.6875 620.957031 261.46875 620.957031 C 277.25 620.957031 290.089844 633.792969 290.089844 649.574219 C 290.089844 665.355469 277.25 678.195312 261.46875 678.195312 " fill-opacity="1" fill-rule="nonzero"/><path fill="#fe6604" d="M 243.953125 649.574219 C 243.953125 639.902344 251.796875 632.0625 261.46875 632.0625 C 271.140625 632.0625 278.980469 639.902344 278.980469 649.574219 C 278.980469 659.246094 271.140625 667.089844 261.46875 667.089844 C 251.796875 667.089844 243.953125 659.246094 243.953125 649.574219 " fill-opacity="1" fill-rule="nonzero"/><path fill="#ffdec8" d="M 186.070312 177.097656 C 186.070312 184.515625 180.058594 190.523438 172.640625 190.523438 C 165.226562 190.523438 159.214844 184.515625 159.214844 177.097656 C 159.214844 169.683594 165.226562 163.671875 172.640625 163.671875 C 180.058594 163.671875 186.070312 169.683594 186.070312 177.097656 " fill-opacity="1" fill-rule="nonzero"/><path fill="#ffdec8" d="M 240.804688 177.097656 C 240.804688 184.515625 234.792969 190.523438 227.378906 190.523438 C 219.964844 190.523438 213.953125 184.515625 213.953125 177.097656 C 213.953125 169.683594 219.964844 163.671875 227.378906 163.671875 C 234.792969 163.671875 240.804688 169.683594 240.804688 177.097656 " fill-opacity="1" fill-rule="nonzero"/><path fill="#ffd4b9" d="M 295.542969 177.097656 C 295.542969 184.515625 289.53125 190.523438 282.117188 190.523438 C 274.703125 190.523438 268.691406 184.515625 268.691406 177.097656 C 268.691406 169.683594 274.703125 163.671875 282.117188 163.671875 C 289.53125 163.671875 295.542969 169.683594 295.542969 177.097656 " fill-opacity="1" fill-rule="nonzero"/><path fill="#ffd4b9" d="M 336.851562 191.679688 C 328.816406 191.679688 322.269531 185.136719 322.269531 177.09375 C 322.269531 173.730469 323.449219 170.445312 325.582031 167.847656 C 325.984375 167.355469 326.714844 167.285156 327.207031 167.6875 C 327.699219 168.09375 327.773438 168.820312 327.363281 169.316406 C 325.570312 171.5 324.582031 174.261719 324.582031 177.09375 C 324.582031 183.863281 330.085938 189.367188 336.851562 189.367188 C 343.621094 189.367188 349.125 183.863281 349.125 177.09375 C 349.125 170.332031 343.621094 164.828125 336.851562 164.828125 C 336.214844 164.828125 335.699219 164.308594 335.699219 163.667969 C 335.699219 163.03125 336.214844 162.515625 336.851562 162.515625 C 344.894531 162.515625 351.433594 169.054688 351.433594 177.09375 C 351.433594 185.136719 344.894531 191.679688 336.851562 191.679688 " fill-opacity="1" fill-rule="nonzero"/><path fill="#ffd4b9" d="M 405.015625 177.097656 C 405.015625 184.515625 399 190.523438 391.585938 190.523438 C 384.175781 190.523438 378.164062 184.515625 378.164062 177.097656 C 378.164062 169.683594 384.175781 163.671875 391.585938 163.671875 C 399 163.671875 405.015625 169.683594 405.015625 177.097656 " fill-opacity="1" fill-rule="nonzero"/><path fill="#ffdec8" d="M 181.628906 598.675781 L 181.742188 596.191406 C 181.894531 592.84375 179.222656 590.050781 175.871094 590.050781 L 142.09375 590.050781 C 138.953125 590.050781 136.367188 592.523438 136.226562 595.660156 L 136.113281 598.144531 C 135.960938 601.488281 138.632812 604.289062 141.980469 604.289062 L 175.757812 604.289062 C 178.898438 604.289062 181.484375 601.816406 181.628906 598.675781 " fill-opacity="1" fill-rule="nonzero"/><path fill="#ffdec8" d="M 238.882812 598.675781 L 238.996094 596.191406 C 239.148438 592.84375 236.476562 590.050781 233.128906 590.050781 L 199.351562 590.050781 C 196.210938 590.050781 193.625 592.523438 193.480469 595.660156 L 193.367188 598.144531 C 193.214844 601.488281 195.886719 604.289062 199.238281 604.289062 L 233.015625 604.289062 C 236.15625 604.289062 238.742188 601.816406 238.882812 598.675781 " fill-opacity="1" fill-rule="nonzero"/><path fill="#ffd4b9" d="M 284.421875 598.675781 L 284.535156 596.191406 C 284.6875 592.84375 282.015625 590.050781 278.664062 590.050781 L 256.605469 590.050781 C 253.464844 590.050781 250.878906 592.523438 250.738281 595.660156 L 250.625 598.144531 C 250.472656 601.488281 253.144531 604.289062 256.496094 604.289062 L 278.550781 604.289062 C 281.691406 604.289062 284.277344 601.816406 284.421875 598.675781 " fill-opacity="1" fill-rule="nonzero"/><path fill="#ffdec8" d="M 387.496094 598.675781 L 387.609375 596.191406 C 387.761719 592.84375 385.089844 590.050781 381.738281 590.050781 L 359.679688 590.050781 C 356.539062 590.050781 353.953125 592.523438 353.8125 595.660156 L 353.699219 598.144531 C 353.546875 601.488281 356.21875 604.289062 359.570312 604.289062 L 381.628906 604.289062 C 384.765625 604.289062 387.355469 601.816406 387.496094 598.675781 " fill-opacity="1" fill-rule="nonzero"/><path fill="#ffdec8" d="M 343.390625 598.675781 L 343.503906 596.191406 C 343.65625 592.84375 340.984375 590.050781 337.636719 590.050781 L 300.996094 590.050781 C 297.851562 590.050781 295.269531 592.523438 295.125 595.660156 L 295.011719 598.144531 C 294.859375 601.488281 297.53125 604.289062 300.882812 604.289062 L 337.519531 604.289062 C 340.664062 604.289062 343.246094 601.816406 343.390625 598.675781 " fill-opacity="1" fill-rule="nonzero"/><path fill="#000000" d="M 318.792969 702 L 194.078125 702 C 193.441406 702 192.921875 701.484375 192.921875 700.84375 C 192.921875 700.207031 193.441406 699.691406 194.078125 699.691406 L 318.792969 699.691406 C 319.429688 699.691406 319.949219 700.207031 319.949219 700.84375 C 319.949219 701.484375 319.429688 702 318.792969 702 " fill-opacity="1" fill-rule="nonzero"/><path fill="#ffd4b9" d="M 390.394531 523.789062 L 401.378906 281.882812 C 401.726562 274.1875 395.578125 267.753906 387.875 267.753906 L 164.710938 267.753906 C 157.484375 267.753906 151.535156 273.4375 151.207031 280.660156 L 140.222656 522.5625 C 139.875 530.257812 146.023438 536.691406 153.726562 536.691406 L 376.890625 536.691406 C 384.121094 536.691406 390.066406 531.007812 390.394531 523.789062 " fill-opacity="1" fill-rule="nonzero"/><path fill="#ffffff" d="M 293.808594 380.128906 C 287.207031 380.128906 281.695312 374.910156 281.527344 368.304688 C 281.523438 368.171875 281.523438 368.035156 281.523438 367.894531 C 281.523438 359.367188 288.289062 352.421875 296.746094 352.132812 C 300.984375 333.757812 317.449219 320.054688 337.109375 320.054688 C 357.464844 320.054688 374.394531 334.738281 377.878906 354.089844 C 386.019531 354.917969 392.375 361.792969 392.375 370.152344 C 392.375 370.191406 392.375 370.230469 392.375 370.265625 C 392.335938 375.730469 387.855469 380.128906 382.390625 380.128906 L 293.808594 380.128906 " fill-opacity="1" fill-rule="nonzero"/><path fill="#ffffff" d="M 146.164062 398.175781 C 150.132812 390.453125 158.183594 385.175781 167.460938 385.175781 C 179.222656 385.175781 189.003906 393.65625 191.015625 404.835938 C 195.722656 405.316406 199.390625 409.289062 199.390625 414.121094 C 199.390625 414.140625 199.390625 414.164062 199.390625 414.183594 C 199.371094 417.34375 196.78125 419.882812 193.625 419.882812 L 145.078125 419.882812 C 145.078125 419.882812 145.273438 399.910156 146.164062 398.175781 " fill-opacity="1" fill-rule="nonzero"/><path fill="#fe6604" d="M 347.3125 414.648438 C 326.824219 435.351562 297.21875 439.199219 279.15625 437.109375 C 199.851562 398.125 141.21875 500.945312 141.21875 500.945312 L 140.222656 522.847656 C 139.871094 530.546875 146.019531 536.863281 153.722656 536.863281 L 375.664062 536.863281 C 376.714844 536.863281 377.53125 535.949219 377.414062 534.90625 L 372.214844 489.976562 C 377.339844 483.605469 384.816406 475.996094 390.238281 466.113281 C 390.238281 466.113281 391.714844 462.785156 393.382812 457.957031 L 394.867188 425.335938 C 384.816406 410.8125 370.3125 391.410156 347.3125 414.648438 " fill-opacity="1" fill-rule="nonzero"/><path fill="#000000" d="M 347.3125 414.648438 L 347.324219 414.648438 Z M 142.359375 501.285156 L 141.375 522.902344 C 141.222656 526.273438 142.417969 529.464844 144.738281 531.894531 C 147.089844 534.355469 150.28125 535.714844 153.722656 535.714844 L 375.664062 535.714844 C 375.902344 535.714844 376.046875 535.585938 376.113281 535.511719 C 376.183594 535.433594 376.289062 535.269531 376.261719 535.039062 L 371.070312 490.109375 C 371.03125 489.804688 371.121094 489.492188 371.316406 489.253906 C 372.585938 487.675781 373.984375 486.035156 375.46875 484.296875 C 380.015625 478.972656 385.171875 472.9375 389.203125 465.601562 C 389.378906 465.199219 390.730469 462.085938 392.238281 457.734375 L 393.691406 425.675781 C 386.769531 415.691406 379.160156 405.960938 369.160156 405.082031 C 362.597656 404.5 355.519531 407.996094 348.136719 415.457031 C 327.957031 435.847656 298.292969 440.484375 279.023438 438.253906 C 278.890625 438.242188 278.765625 438.203125 278.644531 438.144531 C 246.222656 422.203125 213.449219 427.960938 181.238281 455.25 C 158.332031 474.65625 143.90625 498.644531 142.359375 501.285156 Z M 375.664062 538.019531 L 153.722656 538.019531 C 149.648438 538.019531 145.863281 536.414062 143.066406 533.488281 C 140.308594 530.597656 138.886719 526.804688 139.066406 522.796875 L 140.0625 500.894531 C 140.074219 500.710938 140.125 500.53125 140.214844 500.375 C 140.363281 500.113281 155.257812 474.25 179.699219 453.527344 C 194.101562 441.3125 208.964844 433.234375 223.867188 429.515625 C 242.492188 424.867188 261.203125 427.042969 279.484375 435.984375 C 298.242188 438.097656 326.964844 433.570312 346.496094 413.835938 C 354.386719 405.863281 362.070312 402.144531 369.359375 402.777344 C 380.464844 403.753906 388.519531 414.132812 395.8125 424.679688 C 395.957031 424.886719 396.027344 425.136719 396.019531 425.390625 L 394.535156 458.007812 C 394.53125 458.117188 394.511719 458.230469 394.476562 458.332031 C 392.8125 463.152344 391.355469 466.441406 391.292969 466.582031 C 391.285156 466.609375 391.269531 466.640625 391.253906 466.671875 C 387.101562 474.230469 381.851562 480.375 377.226562 485.796875 C 375.871094 487.382812 374.585938 488.886719 373.417969 490.324219 L 378.558594 534.773438 C 378.65625 535.597656 378.390625 536.425781 377.839844 537.046875 C 377.289062 537.664062 376.492188 538.019531 375.664062 538.019531 " fill-opacity="1" fill-rule="nonzero"/><path fill="#ffffff" d="M 398.855469 337.433594 C 395.476562 352.507812 385.078125 387.875 358.292969 412.566406 C 351.121094 419.179688 362.53125 454.140625 386.015625 452.605469 C 388.449219 452.445312 391.164062 449.394531 394 444.4375 L 398.855469 337.433594 " fill-opacity="1" fill-rule="nonzero"/><path fill="#000000" d="M 397.203125 348.332031 C 392.046875 365.769531 381 393.207031 359.078125 413.414062 C 356.332031 415.945312 356.871094 424.195312 360.304688 432.199219 C 364.523438 442.042969 373.484375 452.269531 385.9375 451.449219 C 386.980469 451.382812 389.253906 450.332031 392.855469 444.101562 Z M 384.527344 453.808594 C 371.683594 453.808594 362.539062 443.269531 358.179688 433.109375 C 354.199219 423.824219 353.921875 415.027344 357.511719 411.714844 C 384.246094 387.070312 394.542969 351.382812 397.730469 337.179688 L 400.011719 337.484375 L 395.136719 444.769531 L 395 445.007812 C 391.738281 450.714844 388.820312 453.578125 386.089844 453.753906 C 385.5625 453.789062 385.042969 453.808594 384.527344 453.808594 " fill-opacity="1" fill-rule="nonzero"/><path fill="#000000" d="M 314.632812 482.902344 C 314.148438 482.902344 313.691406 482.585938 313.535156 482.097656 C 304.070312 452.589844 274.5625 436.433594 274.265625 436.273438 C 273.703125 435.972656 273.496094 435.269531 273.796875 434.707031 C 274.097656 434.148438 274.800781 433.9375 275.359375 434.238281 C 275.664062 434.40625 305.988281 451.007812 315.734375 481.394531 C 315.929688 482 315.59375 482.648438 314.984375 482.84375 C 314.867188 482.882812 314.75 482.902344 314.632812 482.902344 " fill-opacity="1" fill-rule="nonzero"/><path fill="#000000" d="M 275.15625 453.527344 C 274.707031 453.527344 274.277344 453.261719 274.09375 452.820312 C 269.199219 441.230469 260.660156 438.351562 260.574219 438.324219 C 259.96875 438.128906 259.636719 437.476562 259.832031 436.875 C 260.027344 436.265625 260.679688 435.933594 261.285156 436.128906 C 261.675781 436.253906 270.917969 439.367188 276.21875 451.921875 C 276.46875 452.507812 276.191406 453.183594 275.605469 453.433594 C 275.457031 453.496094 275.304688 453.527344 275.15625 453.527344 " fill-opacity="1" fill-rule="nonzero"/><path fill="#ffffff" d="M 271.890625 447.660156 C 271.890625 447.660156 283.257812 458.34375 304.667969 536.863281 L 206.976562 536.863281 C 206.976562 536.863281 212.332031 508.050781 205.5625 480.382812 C 200.757812 460.753906 271.890625 447.660156 271.890625 447.660156 " fill-opacity="1" fill-rule="nonzero"/><path fill="#000000" d="M 208.339844 535.714844 L 303.15625 535.714844 C 284.417969 467.320312 273.535156 451.480469 271.464844 448.917969 C 265.335938 450.105469 217.132812 459.859375 207.917969 474.101562 C 206.597656 476.140625 206.195312 478.105469 206.683594 480.109375 C 212.605469 504.296875 209.285156 529.632812 208.339844 535.714844 Z M 304.667969 538.019531 L 206.976562 538.019531 C 206.636719 538.019531 206.3125 537.867188 206.089844 537.601562 C 205.871094 537.34375 205.78125 536.996094 205.84375 536.65625 C 205.894531 536.371094 211.070312 507.75 204.441406 480.660156 C 203.800781 478.039062 204.316406 475.410156 205.980469 472.84375 C 216.308594 456.882812 269.425781 446.9375 271.683594 446.527344 C 272.042969 446.460938 272.414062 446.566406 272.683594 446.820312 C 273.15625 447.265625 284.53125 458.617188 305.78125 536.5625 C 305.875 536.910156 305.804688 537.285156 305.585938 537.570312 C 305.367188 537.855469 305.027344 538.019531 304.667969 538.019531 " fill-opacity="1" fill-rule="nonzero"/><path fill="#ffffff" d="M 246.820312 407.652344 L 254.796875 436.359375 C 256.511719 442.824219 264.140625 445.496094 269.824219 446.59375 C 272.835938 447.175781 274.320312 450.609375 272.738281 453.230469 L 272.261719 454.015625 C 257.382812 476.351562 232.351562 479.457031 205.46875 469.050781 L 202.769531 467.679688 C 200.464844 466.511719 200.320312 463.273438 202.511719 461.898438 L 211.195312 456.472656 C 215.125 454.019531 217.152344 448.777344 216.34375 443.175781 L 207.585938 392.824219 L 246.820312 407.652344 " fill-opacity="1" fill-rule="nonzero"/><path fill="#000000" d="M 205.941406 467.996094 C 234.464844 479.023438 257.675781 473.832031 271.300781 453.375 L 271.746094 452.636719 C 272.3125 451.699219 272.382812 450.589844 271.9375 449.59375 C 271.5 448.609375 270.652344 447.933594 269.605469 447.730469 C 263.359375 446.523438 255.527344 443.617188 253.683594 436.652344 L 245.863281 408.523438 L 209.074219 394.617188 L 217.480469 442.976562 C 218.363281 449.082031 216.136719 454.75 211.808594 457.457031 L 203.125 462.882812 C 202.453125 463.300781 202.074219 464.023438 202.109375 464.8125 C 202.144531 465.605469 202.585938 466.292969 203.292969 466.648438 Z M 233.175781 475.941406 C 224.460938 475.941406 215.042969 473.992188 205.054688 470.125 C 205.019531 470.113281 204.980469 470.097656 204.949219 470.082031 L 202.246094 468.710938 C 200.789062 467.96875 199.875 466.550781 199.800781 464.917969 C 199.730469 463.28125 200.515625 461.789062 201.902344 460.921875 L 210.585938 455.496094 C 214.132812 453.277344 215.945312 448.503906 215.199219 443.339844 L 206.449219 393.019531 C 206.378906 392.613281 206.53125 392.199219 206.851562 391.933594 C 207.171875 391.671875 207.609375 391.601562 207.996094 391.742188 L 247.226562 406.570312 C 247.570312 406.699219 247.835938 406.984375 247.933594 407.339844 L 255.910156 436.046875 C 257.453125 441.871094 264.449219 444.382812 270.042969 445.464844 C 271.84375 445.808594 273.300781 446.972656 274.046875 448.652344 C 274.792969 450.328125 274.671875 452.261719 273.726562 453.828125 L 273.25 454.613281 C 265.875 465.6875 255.90625 472.515625 243.589844 474.945312 C 240.246094 475.609375 236.769531 475.941406 233.175781 475.941406 " fill-opacity="1" fill-rule="nonzero"/><path fill="#ffffff" d="M 204.554688 370.253906 C 204.554688 370.253906 185.984375 363.933594 192.863281 378.597656 C 198.5625 390.746094 202.527344 391.304688 207.179688 391.179688 C 211.832031 391.058594 204.554688 370.253906 204.554688 370.253906 " fill-opacity="1" fill-rule="nonzero"/><path fill="#000000" d="M 196.933594 370.058594 C 195.316406 370.058594 193.875 370.355469 193.113281 371.207031 C 191.789062 372.6875 192.816406 375.777344 193.910156 378.109375 C 199.59375 390.230469 203.261719 390.125 207.148438 390.027344 C 208.375 389.339844 207.097656 381.1875 203.652344 371.183594 C 202.089844 370.703125 199.320312 370.058594 196.933594 370.058594 Z M 206.410156 392.347656 C 201.609375 392.347656 197.375 390.929688 191.820312 379.089844 C 189.796875 374.78125 189.652344 371.613281 191.394531 369.667969 C 194.804688 365.863281 203.902344 368.816406 204.929688 369.164062 C 205.265625 369.277344 205.527344 369.542969 205.644531 369.875 C 206.671875 372.8125 211.664062 387.628906 209.152344 391.269531 C 208.695312 391.9375 208.003906 392.3125 207.210938 392.335938 C 206.941406 392.34375 206.675781 392.347656 206.410156 392.347656 " fill-opacity="1" fill-rule="nonzero"/><path fill="#ffffff" d="M 257.894531 374.808594 C 257.894531 374.808594 260.378906 400.855469 251.328125 412.734375 C 242.578125 424.214844 215.359375 430.578125 201.394531 374.84375 C 187.429688 319.109375 259.726562 312.808594 257.894531 374.808594 " fill-opacity="1" fill-rule="nonzero"/><path fill="#000000" d="M 226.429688 331.824219 C 220.847656 331.824219 215.367188 333.644531 210.964844 337.191406 C 201.542969 344.769531 198.464844 358.390625 202.515625 374.5625 C 211.320312 409.707031 224.867188 417.46875 232.15625 418.96875 C 240.4375 420.667969 247.164062 416.292969 250.410156 412.035156 C 259.085938 400.648438 256.769531 375.175781 256.746094 374.917969 C 256.742188 374.871094 256.738281 374.820312 256.742188 374.773438 C 257.3125 355.414062 250.496094 340.761719 238.035156 334.566406 C 234.34375 332.726562 230.359375 331.824219 226.429688 331.824219 Z M 235.816406 421.65625 C 234.484375 421.65625 233.109375 421.523438 231.691406 421.230469 C 222.136719 419.265625 208.929688 409.671875 200.273438 375.125 C 195.996094 358.042969 199.363281 343.554688 209.515625 335.390625 C 217.722656 328.785156 229.320312 327.652344 239.0625 332.496094 C 252.347656 339.105469 259.632812 354.507812 259.050781 374.773438 C 259.21875 376.609375 261.316406 401.53125 252.246094 413.433594 C 249.148438 417.5 243.230469 421.65625 235.816406 421.65625 " fill-opacity="1" fill-rule="nonzero"/><path fill="#000000" d="M 206.683594 350.925781 C 209.3125 345.46875 217.359375 343.113281 226.292969 346.660156 C 235.226562 350.210938 268.242188 362.558594 278.039062 327.988281 C 287.839844 293.410156 268.78125 316.863281 262.664062 318.0625 C 256.546875 319.261719 268.238281 309.714844 266.960938 300.929688 C 265.679688 292.144531 262.136719 302.15625 252.191406 304.699219 C 242.242188 307.234375 252.910156 301.234375 252.933594 295.03125 C 252.953125 288.828125 250.117188 290.285156 241.050781 298.796875 C 231.984375 307.308594 211.691406 321.617188 196.378906 318.238281 C 181.066406 314.855469 175.289062 331.15625 181.117188 346.4375 C 186.941406 361.710938 187.128906 360.882812 189.644531 365.207031 C 195.257812 374.882812 199 378.527344 202.984375 377.765625 C 209.945312 376.445312 202.515625 359.566406 206.683594 350.925781 " fill-opacity="1" fill-rule="nonzero"/><path fill="#ffffff" d="M 220.558594 480.691406 C 219.855469 474.789062 212.40625 475.054688 213.292969 472.171875 C 215.859375 463.84375 207.792969 457.34375 199.800781 457.4375 C 184.050781 457.621094 186.105469 451.402344 185.136719 441.3125 C 184.324219 432.851562 179.816406 429.84375 176.0625 428.820312 C 173.796875 428.207031 171.726562 430.25 172.300781 432.523438 C 172.761719 434.34375 173.257812 436.921875 173.691406 440.542969 C 174.90625 450.683594 171.699219 461.421875 169.234375 472.105469 C 166.222656 485.160156 154.507812 506.03125 140.597656 526.421875 C 142.015625 532.335938 147.328125 536.863281 153.726562 536.863281 L 176.914062 536.863281 C 178.394531 530.707031 180.273438 524.222656 183.183594 514.703125 C 184.5625 510.175781 189.371094 507.546875 194.074219 507.054688 C 201.359375 506.292969 212.25 504.09375 218.355469 497.902344 C 223.160156 493.039062 218.226562 491.605469 218.496094 487.578125 C 218.703125 484.449219 221.109375 485.300781 220.558594 480.691406 " fill-opacity="1" fill-rule="nonzero"/><path fill="#000000" d="M 141.847656 526.644531 C 143.359375 532.007812 148.175781 535.714844 153.726562 535.714844 L 176.007812 535.714844 C 177.523438 529.523438 179.46875 522.902344 182.078125 514.367188 C 183.757812 508.863281 189.527344 506.367188 193.957031 505.90625 C 200.152344 505.257812 211.460938 503.25 217.535156 497.09375 C 220.003906 494.589844 219.445312 493.523438 218.519531 491.761719 C 217.941406 490.65625 217.222656 489.289062 217.34375 487.503906 C 217.457031 485.816406 218.113281 484.984375 218.644531 484.3125 C 219.21875 483.585938 219.671875 483.007812 219.410156 480.828125 C 219.085938 478.105469 216.976562 476.960938 215.109375 475.945312 C 213.511719 475.078125 211.523438 474 212.191406 471.835938 C 213.316406 468.179688 212.046875 465.402344 210.785156 463.71875 C 208.421875 460.554688 204.113281 458.535156 199.816406 458.59375 C 185.0625 458.734375 184.722656 453.074219 184.257812 445.203125 C 184.1875 443.996094 184.113281 442.746094 183.984375 441.417969 C 183.382812 435.117188 180.613281 431.253906 175.757812 429.9375 C 175.085938 429.753906 174.417969 429.929688 173.929688 430.410156 C 173.441406 430.886719 173.25 431.570312 173.421875 432.242188 C 173.972656 434.433594 174.449219 437.179688 174.839844 440.402344 C 175.902344 449.265625 173.648438 458.625 171.46875 467.679688 C 171.09375 469.242188 170.71875 470.804688 170.359375 472.367188 C 167.613281 484.273438 157.230469 504.035156 141.847656 526.644531 Z M 176.914062 538.019531 L 153.726562 538.019531 C 146.9375 538.019531 141.074219 533.363281 139.472656 526.695312 C 139.398438 526.378906 139.457031 526.042969 139.640625 525.773438 C 155.03125 503.214844 165.410156 483.558594 168.109375 471.84375 C 168.472656 470.277344 168.847656 468.710938 169.226562 467.140625 C 171.355469 458.285156 173.558594 449.128906 172.542969 440.675781 C 172.167969 437.550781 171.710938 434.902344 171.183594 432.808594 C 170.808594 431.335938 171.230469 429.820312 172.3125 428.761719 C 173.386719 427.703125 174.898438 427.308594 176.363281 427.707031 C 180.402344 428.804688 185.40625 432.035156 186.285156 441.199219 C 186.417969 442.566406 186.492188 443.835938 186.5625 445.066406 C 187.027344 452.867188 187.222656 456.4375 199.789062 456.28125 C 199.847656 456.28125 199.910156 456.28125 199.96875 456.28125 C 204.921875 456.28125 209.878906 458.648438 212.636719 462.335938 C 214.871094 465.324219 215.5 468.941406 214.398438 472.515625 C 214.304688 472.820312 214.882812 473.195312 216.214844 473.921875 C 218.214844 475.007812 221.238281 476.644531 221.707031 480.554688 C 222.050781 483.449219 221.34375 484.617188 220.457031 485.742188 C 220.007812 486.3125 219.710938 486.6875 219.648438 487.65625 C 219.570312 488.789062 220.054688 489.714844 220.566406 490.6875 C 221.574219 492.613281 222.832031 495.011719 219.179688 498.714844 C 212.929688 505.050781 202.144531 507.371094 194.195312 508.203125 C 190.46875 508.59375 185.636719 510.617188 184.285156 515.039062 C 181.566406 523.949219 179.570312 530.75 178.039062 537.136719 C 177.914062 537.65625 177.449219 538.019531 176.914062 538.019531 " fill-opacity="1" fill-rule="nonzero"/><path fill="#000000" d="M 164.710938 268.90625 C 158.085938 268.90625 152.660156 274.089844 152.359375 280.707031 L 141.378906 522.613281 C 141.222656 526.019531 142.4375 529.246094 144.789062 531.714844 C 147.144531 534.175781 150.320312 535.535156 153.726562 535.535156 L 376.894531 535.535156 C 383.519531 535.535156 388.941406 530.351562 389.242188 523.734375 L 390.398438 523.785156 L 389.242188 523.734375 L 400.226562 281.828125 C 400.382812 278.425781 399.171875 275.191406 396.8125 272.730469 C 394.457031 270.265625 391.285156 268.90625 387.878906 268.90625 Z M 376.894531 537.84375 L 153.726562 537.84375 C 149.683594 537.84375 145.914062 536.234375 143.121094 533.3125 C 140.324219 530.382812 138.886719 526.546875 139.070312 522.503906 L 150.054688 280.605469 C 150.410156 272.75 156.847656 266.597656 164.710938 266.597656 L 387.878906 266.597656 C 391.921875 266.597656 395.6875 268.210938 398.484375 271.132812 C 401.28125 274.054688 402.71875 277.894531 402.535156 281.933594 L 391.550781 523.839844 C 391.195312 531.691406 384.753906 537.84375 376.894531 537.84375 " fill-opacity="1" fill-rule="nonzero"/><path fill="#fe6604" d="M 518.039062 460.925781 L 546.492188 468.296875 C 572.214844 474.964844 600.5 466.636719 626.679688 462.097656 L 644.546875 459 L 642.503906 428.007812 L 536.921875 432.097656 L 518.039062 460.925781 " fill-opacity="1" fill-rule="nonzero"/><path fill="#000000" d="M 519.882812 460.214844 L 546.777344 467.183594 C 567.394531 472.523438 589.78125 468.09375 611.4375 463.816406 C 616.394531 462.839844 621.523438 461.820312 626.476562 460.964844 L 643.320312 458.046875 L 641.417969 429.210938 L 537.558594 433.226562 Z M 567.558594 471.949219 C 560.324219 471.949219 553.179688 471.226562 546.199219 469.417969 L 517.746094 462.042969 C 517.382812 461.949219 517.09375 461.691406 516.960938 461.34375 C 516.824219 460.996094 516.867188 460.601562 517.066406 460.292969 L 535.949219 431.464844 C 536.152344 431.152344 536.5 430.957031 536.871094 430.941406 L 642.453125 426.855469 C 643.0625 426.8125 643.609375 427.308594 643.652344 427.9375 L 645.695312 458.929688 C 645.734375 459.519531 645.324219 460.039062 644.742188 460.140625 L 626.871094 463.238281 C 621.945312 464.09375 616.832031 465.105469 611.882812 466.082031 C 597.214844 468.980469 582.214844 471.949219 567.558594 471.949219 " fill-opacity="1" fill-rule="nonzero"/><path fill="#ffffff" d="M 557.300781 670.167969 L 560.183594 690.683594 L 574.167969 691.828125 L 573.3125 667.410156 L 557.300781 670.167969 " fill-opacity="1" fill-rule="nonzero"/><path fill="#000000" d="M 561.203125 689.609375 L 572.964844 690.570312 L 572.203125 668.773438 L 558.601562 671.113281 Z M 574.167969 692.984375 C 574.136719 692.984375 574.105469 692.980469 574.074219 692.980469 L 560.089844 691.835938 C 559.550781 691.789062 559.117188 691.378906 559.039062 690.84375 L 556.15625 670.328125 C 556.070312 669.707031 556.492188 669.132812 557.109375 669.027344 L 573.117188 666.273438 C 573.441406 666.210938 573.78125 666.304688 574.039062 666.515625 C 574.300781 666.726562 574.453125 667.039062 574.46875 667.371094 L 575.320312 691.789062 C 575.332031 692.117188 575.203125 692.433594 574.96875 692.664062 C 574.75 692.871094 574.460938 692.984375 574.167969 692.984375 " fill-opacity="1" fill-rule="nonzero"/><path fill="#fe6604" d="M 574.773438 728.472656 C 568.949219 729.132812 559.414062 729.582031 548.292969 727.730469 C 544.640625 727.125 542.296875 723.515625 543.28125 719.945312 C 546.015625 710.015625 550.78125 691.15625 558.304688 682.566406 L 559.976562 687.382812 L 562.597656 682.964844 C 562.957031 682.359375 563.585938 681.957031 564.285156 681.890625 L 568.183594 681.714844 C 569.332031 681.597656 570.371094 682.386719 570.574219 683.519531 L 571.332031 687.679688 L 575.71875 681.953125 L 576.855469 698.019531 C 577.214844 703.125 577.84375 708.210938 578.742188 713.25 L 580.238281 721.648438 C 580.589844 725.042969 578.15625 728.09375 574.773438 728.472656 " fill-opacity="1" fill-rule="nonzero"/><path fill="#000000" d="M 557.902344 684.914062 C 551.765625 693.246094 547.566406 708.648438 544.988281 718.09375 L 544.398438 720.253906 C 544.015625 721.644531 544.234375 723.082031 545.007812 724.300781 C 545.785156 725.515625 547.054688 726.351562 548.488281 726.59375 C 559.378906 728.40625 568.722656 727.992188 574.648438 727.328125 C 577.375 727.019531 579.363281 724.546875 579.101562 721.804688 L 577.613281 713.453125 C 576.707031 708.394531 576.066406 703.226562 575.703125 698.101562 L 574.789062 685.074219 L 572.253906 688.378906 C 571.976562 688.746094 571.507812 688.90625 571.0625 688.800781 C 570.625 688.691406 570.285156 688.332031 570.203125 687.886719 L 569.445312 683.722656 C 569.347656 683.1875 568.859375 682.804688 568.300781 682.859375 L 564.339844 683.042969 C 564.066406 683.070312 563.765625 683.261719 563.59375 683.550781 L 560.976562 687.972656 C 560.746094 688.359375 560.316406 688.574219 559.867188 688.53125 C 559.421875 688.484375 559.039062 688.183594 558.890625 687.761719 Z M 574.773438 728.476562 L 574.78125 728.476562 Z M 564.304688 730.203125 C 559.546875 730.203125 554.054688 729.859375 548.105469 728.871094 C 546.03125 728.523438 544.195312 727.3125 543.058594 725.542969 C 541.941406 723.792969 541.621094 721.640625 542.167969 719.636719 L 542.757812 717.488281 C 545.566406 707.210938 550.253906 690.007812 557.4375 681.804688 C 557.707031 681.496094 558.125 681.355469 558.527344 681.429688 C 558.929688 681.511719 559.261719 681.796875 559.394531 682.1875 L 560.257812 684.652344 L 561.613281 682.375 C 562.152344 681.453125 563.109375 680.84375 564.175781 680.738281 L 568.136719 680.558594 C 569.792969 680.398438 571.40625 681.597656 571.71875 683.3125 L 572.011719 684.90625 L 574.808594 681.253906 C 575.105469 680.871094 575.597656 680.710938 576.058594 680.851562 C 576.515625 680.988281 576.839844 681.394531 576.878906 681.871094 L 578.007812 697.9375 C 578.363281 702.984375 578.996094 708.070312 579.886719 713.046875 L 581.382812 721.445312 C 581.386719 721.472656 581.394531 721.5 581.394531 721.53125 C 581.808594 725.542969 578.902344 729.171875 574.902344 729.621094 C 572.070312 729.941406 568.472656 730.203125 564.304688 730.203125 " fill-opacity="1" fill-rule="nonzero"/><path fill="#000000" d="M 560.554688 723.480469 C 556.332031 723.480469 551.636719 723.078125 546.984375 721.878906 C 546.367188 721.71875 545.996094 721.089844 546.152344 720.472656 C 546.308594 719.855469 546.941406 719.480469 547.558594 719.640625 C 561.019531 723.101562 575.339844 719.527344 575.484375 719.492188 C 576.101562 719.332031 576.734375 719.703125 576.890625 720.324219 C 577.042969 720.941406 576.675781 721.570312 576.058594 721.726562 C 575.652344 721.832031 569.070312 723.480469 560.554688 723.480469 " fill-opacity="1" fill-rule="nonzero"/><path fill="#000000" d="M 555.894531 708.050781 C 555.261719 708.050781 554.746094 707.535156 554.742188 706.898438 C 554.738281 706.261719 555.25 705.742188 555.890625 705.738281 L 568.960938 705.667969 C 569.601562 705.667969 570.113281 706.179688 570.121094 706.816406 C 570.121094 707.457031 569.609375 707.972656 568.96875 707.976562 L 555.902344 708.050781 C 555.902344 708.050781 555.902344 708.050781 555.894531 708.050781 " fill-opacity="1" fill-rule="nonzero"/><path fill="#ffffff" d="M 622.140625 656.917969 L 625.273438 686.894531 L 642.03125 686.3125 L 641.757812 656.234375 L 622.140625 656.917969 " fill-opacity="1" fill-rule="nonzero"/><path fill="#000000" d="M 623.414062 658.03125 L 626.3125 685.707031 L 640.867188 685.199219 L 640.613281 657.425781 Z M 625.273438 688.050781 C 624.683594 688.050781 624.1875 687.605469 624.125 687.015625 L 620.988281 657.039062 C 620.957031 656.71875 621.054688 656.402344 621.265625 656.160156 C 621.476562 655.921875 621.777344 655.777344 622.09375 655.765625 L 641.71875 655.078125 C 642.027344 655.054688 642.332031 655.183594 642.554688 655.398438 C 642.777344 655.613281 642.910156 655.910156 642.914062 656.222656 L 643.1875 686.300781 C 643.191406 686.929688 642.695312 687.441406 642.066406 687.464844 L 625.316406 688.050781 C 625.304688 688.050781 625.285156 688.050781 625.273438 688.050781 " fill-opacity="1" fill-rule="nonzero"/><path fill="#fe6604" d="M 621.496094 704.015625 C 621.550781 706.859375 623.582031 709.289062 626.371094 709.835938 C 636.082031 711.738281 657.960938 715.972656 664.179688 716.675781 C 672.253906 717.589844 682.039062 714.785156 686.121094 709.941406 C 690.199219 705.089844 676.058594 694.351562 669.390625 690.5 C 659.484375 684.777344 649.757812 673.117188 645.832031 672.714844 C 641.90625 672.3125 635.015625 683.894531 635.015625 683.894531 L 622.921875 679.308594 C 622.921875 679.308594 621.207031 689.589844 621.496094 704.015625 " fill-opacity="1" fill-rule="nonzero"/><path fill="#000000" d="M 623.855469 680.898438 C 623.410156 684.167969 622.421875 692.878906 622.644531 703.996094 C 622.695312 706.28125 624.351562 708.261719 626.589844 708.707031 C 635.859375 710.523438 658.078125 714.824219 664.300781 715.53125 C 672.15625 716.414062 681.542969 713.578125 685.234375 709.195312 C 685.644531 708.710938 685.769531 708.136719 685.640625 707.390625 C 684.855469 702.914062 675.359375 695.285156 668.808594 691.5 C 663.769531 688.589844 658.914062 684.292969 654.632812 680.503906 C 651.027344 677.320312 647.308594 674.027344 645.707031 673.863281 C 643.730469 673.664062 639.136719 679.222656 636.003906 684.484375 C 635.714844 684.964844 635.125 685.179688 634.597656 684.976562 Z M 667.308594 718.003906 C 666.207031 718.003906 665.113281 717.949219 664.046875 717.824219 C 657.734375 717.109375 635.441406 712.792969 626.144531 710.96875 C 622.847656 710.324219 620.40625 707.40625 620.335938 704.039062 C 620.046875 689.675781 621.761719 679.222656 621.78125 679.117188 C 621.839844 678.777344 622.042969 678.480469 622.34375 678.304688 C 622.644531 678.136719 623.007812 678.105469 623.332031 678.230469 L 634.523438 682.476562 C 636.460938 679.355469 641.957031 671.152344 645.945312 671.566406 C 648.285156 671.808594 651.585938 674.726562 656.160156 678.777344 C 660.363281 682.492188 665.125 686.703125 669.964844 689.5 C 675.363281 692.621094 686.863281 701.003906 687.914062 706.992188 C 688.160156 708.402344 687.84375 709.679688 687 710.683594 C 683.316406 715.054688 675.117188 718.003906 667.308594 718.003906 " fill-opacity="1" fill-rule="nonzero"/><path fill="#000000" d="M 667.007812 711.769531 C 649.699219 711.769531 626.800781 704.382812 625.480469 703.953125 C 624.871094 703.753906 624.539062 703.101562 624.738281 702.5 C 624.933594 701.890625 625.589844 701.5625 626.195312 701.757812 C 626.625 701.898438 670.027344 715.898438 681.457031 705.917969 C 681.9375 705.5 682.667969 705.546875 683.085938 706.027344 C 683.503906 706.507812 683.453125 707.238281 682.972656 707.65625 C 679.523438 710.675781 673.683594 711.769531 667.007812 711.769531 " fill-opacity="1" fill-rule="nonzero"/><path fill="#000000" d="M 648.820312 694.921875 C 648.519531 694.921875 648.214844 694.804688 647.988281 694.570312 C 647.550781 694.117188 647.558594 693.386719 648.019531 692.9375 L 656.269531 684.953125 C 656.726562 684.511719 657.460938 684.523438 657.902344 684.980469 C 658.34375 685.441406 658.335938 686.171875 657.878906 686.613281 L 649.621094 694.597656 C 649.398438 694.816406 649.109375 694.921875 648.820312 694.921875 " fill-opacity="1" fill-rule="nonzero"/><path fill="#000000" d="M 547.277344 434.402344 C 547.277344 434.402344 543.410156 557.582031 541.828125 590.109375 C 540.554688 616.269531 547.351562 654.90625 550.066406 669.027344 C 550.65625 672.109375 553.476562 674.242188 556.601562 673.96875 L 571.34375 672.675781 C 574.507812 672.398438 576.933594 669.738281 576.921875 666.554688 C 576.867188 654.246094 576.789062 624.453125 577.253906 604.902344 C 577.445312 596.816406 578.863281 588.804688 581.523438 581.167969 C 584.664062 572.128906 588.902344 558.265625 590.394531 545.429688 C 592.890625 524.035156 602.738281 490.03125 602.738281 490.03125 C 602.738281 490.03125 615.605469 635.316406 618.441406 665.871094 C 618.691406 668.609375 621.050781 670.660156 623.800781 670.550781 C 629.234375 670.324219 636.691406 671.238281 642.25 669.046875 C 643.941406 668.386719 645.164062 666.882812 645.460938 665.085938 C 647.429688 653.140625 656.695312 600.367188 654.039062 571.164062 C 651.027344 537.941406 648.75 427.570312 648.75 427.570312 L 547.277344 434.402344 " fill-opacity="1" fill-rule="nonzero"/><path fill="#ffffff" d="M 538.632812 441.628906 C 538.632812 441.628906 569.5625 449.953125 604.953125 451.460938 C 625.847656 452.347656 639.855469 447.792969 639.855469 447.792969 L 619.921875 286.125 C 619.921875 286.125 618.828125 273.453125 596.644531 267.5625 C 584.734375 264.398438 575.699219 278.152344 575.699219 278.152344 L 538.632812 441.628906 " fill-opacity="1" fill-rule="nonzero"/><path fill="#000000" d="M 540.007812 440.792969 C 545.765625 442.246094 573.808594 448.980469 604.996094 450.304688 C 622.488281 451.054688 635.183594 447.917969 638.589844 446.960938 L 618.773438 286.265625 C 618.753906 286.113281 617.363281 274.257812 596.351562 268.679688 C 586.042969 265.929688 577.820312 277.121094 576.773438 278.621094 Z M 610.421875 452.730469 C 608.644531 452.730469 606.800781 452.695312 604.902344 452.613281 C 569.792969 451.117188 538.644531 442.828125 538.332031 442.746094 C 537.734375 442.585938 537.371094 441.980469 537.511719 441.371094 L 574.570312 277.894531 C 574.597656 277.761719 574.65625 277.632812 574.734375 277.519531 C 575.117188 276.929688 584.375 263.113281 596.941406 266.445312 C 619.644531 272.476562 621.023438 285.480469 621.070312 286.027344 L 641.003906 447.648438 C 641.070312 448.199219 640.738281 448.71875 640.214844 448.886719 C 639.6875 449.0625 628.183594 452.730469 610.421875 452.730469 " fill-opacity="1" fill-rule="nonzero"/><path fill="#fe6604" d="M 503.519531 251.5625 C 503.613281 257.722656 534.464844 263.339844 543.179688 263.101562 C 557.9375 262.703125 563.777344 267.683594 563.777344 267.683594 C 563.777344 267.683594 571.71875 259.222656 591.644531 259.507812 C 610.304688 259.78125 620.132812 273.425781 630.078125 287.667969 C 630.078125 287.667969 654.921875 290.320312 660.554688 317.488281 C 666.183594 344.652344 681.914062 325.777344 680.71875 357.984375 C 680.085938 375.113281 672.78125 393.011719 659.195312 387.710938 C 645.613281 382.414062 641.480469 376.464844 641.480469 376.464844 C 641.480469 376.464844 647.964844 397.992188 648.957031 410.914062 C 649.371094 416.292969 649.5 420.933594 649.507812 424.507812 C 649.515625 430.394531 650.28125 436.253906 651.765625 441.949219 L 653.652344 449.207031 C 654.984375 454.3125 653.503906 459.796875 649.644531 463.398438 C 643.859375 468.808594 635.6875 473.25 622.746094 472.644531 C 622.746094 472.644531 623.800781 446.488281 620.871094 431.734375 C 619.476562 424.722656 615.5 394.679688 614.5 365.855469 C 613.835938 346.414062 618.339844 305.585938 617.671875 286.847656 C 617.523438 282.65625 576.332031 272.535156 577.3125 276.679688 C 578.628906 282.222656 581.644531 295.128906 581.984375 300.484375 C 583.945312 331.554688 576.863281 358.921875 566.796875 376.453125 C 548.820312 407.773438 543.175781 411.742188 536.746094 475.671875 C 536.746094 475.671875 523.742188 465.621094 517.121094 460.984375 C 517.121094 460.984375 525.71875 373.808594 530.6875 358.566406 C 535.65625 343.328125 538.304688 322.785156 533.007812 315.167969 C 527.707031 307.550781 511.472656 298.601562 498.882812 289 C 486.292969 279.390625 459.710938 269.515625 471.714844 242.238281 C 482.832031 216.960938 503.257812 233.957031 503.519531 251.5625 " fill-opacity="1" fill-rule="nonzero"/><path fill="#000000" d="M 616.542969 287.019531 Z M 518.335938 460.425781 C 523.578125 464.136719 532.214844 470.730469 535.808594 473.488281 C 541.558594 417.34375 546.902344 408.210938 560.917969 384.28125 C 562.4375 381.683594 564.054688 378.914062 565.800781 375.882812 C 576.957031 356.4375 582.578125 328.28125 580.828125 300.558594 C 580.601562 296.882812 579.035156 288.945312 576.191406 276.945312 C 576.039062 276.304688 576.25 275.667969 576.765625 275.246094 C 580.035156 272.546875 605.65625 279.070312 614.203125 282.910156 C 617.398438 284.34375 618.777344 285.507812 618.824219 286.804688 C 619.164062 296.171875 618.195312 311.28125 617.253906 325.886719 C 616.308594 340.738281 615.320312 356.089844 615.660156 365.816406 C 616.648438 394.5 620.597656 424.433594 622 431.511719 C 624.609375 444.636719 624.113281 466.242188 623.9375 471.53125 C 633.992188 471.777344 642.144531 468.824219 648.855469 462.554688 C 652.367188 459.273438 653.777344 454.269531 652.535156 449.496094 L 650.648438 442.242188 C 649.136719 436.433594 648.363281 430.46875 648.351562 424.511719 C 648.34375 420.128906 648.164062 415.582031 647.808594 411 C 646.832031 398.347656 640.4375 377.007812 640.371094 376.796875 C 640.210938 376.25 640.46875 375.667969 640.980469 375.421875 C 641.492188 375.175781 642.101562 375.339844 642.425781 375.800781 C 642.464844 375.855469 646.609375 381.5625 659.617188 386.632812 C 663.089844 387.988281 666.261719 387.75 669.054688 385.921875 C 674.949219 382.046875 679.078125 371.0625 679.566406 357.941406 C 680.183594 341.242188 676.363281 339.019531 671.527344 336.203125 C 667.117188 333.632812 662.117188 330.722656 659.421875 317.71875 C 654.035156 291.734375 630.933594 288.925781 629.949219 288.820312 C 629.621094 288.785156 629.320312 288.605469 629.128906 288.332031 C 619.726562 274.859375 610.007812 260.929688 591.632812 260.664062 C 572.542969 260.382812 564.695312 268.394531 564.621094 268.472656 C 564.199219 268.917969 563.496094 268.957031 563.035156 268.558594 C 562.980469 268.519531 557.257812 263.890625 543.207031 264.253906 C 535.269531 264.484375 509.609375 259.972656 503.804688 254.40625 C 502.867188 253.503906 502.382812 252.550781 502.363281 251.578125 C 502.222656 242.003906 495.585938 232.289062 488.152344 230.785156 C 482.148438 229.574219 476.6875 233.800781 472.769531 242.703125 C 463.222656 264.402344 479.214844 274.699219 492.0625 282.972656 C 494.800781 284.738281 497.386719 286.402344 499.585938 288.078125 C 503.835938 291.324219 508.523438 294.503906 513.050781 297.574219 C 521.941406 303.609375 530.332031 309.304688 533.953125 314.511719 C 539.460938 322.421875 537.027344 342.84375 531.785156 358.921875 C 527.136719 373.167969 519.148438 452.285156 518.335938 460.425781 Z M 536.746094 476.824219 C 536.5 476.824219 536.246094 476.742188 536.039062 476.585938 C 535.910156 476.480469 522.980469 466.5 516.453125 461.929688 C 516.113281 461.6875 515.929688 461.285156 515.964844 460.867188 C 516.320312 457.304688 524.640625 373.394531 529.589844 358.207031 C 534.53125 343.050781 537.078125 323.042969 532.054688 315.824219 C 528.679688 310.972656 520.460938 305.394531 511.757812 299.484375 C 507.199219 296.398438 502.488281 293.199219 498.179688 289.914062 C 496.0625 288.296875 493.511719 286.652344 490.8125 284.910156 C 477.941406 276.628906 460.3125 265.277344 470.652344 241.773438 C 476.589844 228.289062 484.445312 227.683594 488.613281 228.523438 C 497.152344 230.253906 504.511719 240.796875 504.675781 251.542969 C 504.683594 251.960938 505.078125 252.421875 505.40625 252.738281 C 510.730469 257.847656 535.667969 262.140625 543.144531 261.945312 C 555.230469 261.625 561.539062 264.816406 563.683594 266.195312 C 566.117188 264.105469 574.59375 258.136719 591.664062 258.355469 C 611.035156 258.632812 621.09375 272.777344 630.738281 286.601562 C 634.472656 287.207031 656.414062 291.828125 661.683594 317.253906 C 664.171875 329.246094 668.5 331.765625 672.6875 334.203125 C 677.757812 337.15625 682.542969 339.941406 681.871094 358.027344 C 681.484375 368.542969 678.222656 382.664062 670.320312 387.851562 C 666.871094 390.113281 662.984375 390.429688 658.773438 388.789062 C 651.269531 385.855469 646.574219 382.722656 643.828125 380.441406 C 645.773438 387.417969 649.378906 401.304688 650.109375 410.820312 C 650.46875 415.464844 650.652344 420.066406 650.660156 424.507812 C 650.671875 430.269531 651.417969 436.039062 652.878906 441.660156 L 654.769531 448.914062 C 656.226562 454.507812 654.5625 460.382812 650.433594 464.242188 C 642.992188 471.199219 633.910156 474.320312 622.691406 473.796875 C 622.058594 473.769531 621.566406 473.230469 621.597656 472.59375 C 621.605469 472.335938 622.609375 446.40625 619.738281 431.960938 C 618.324219 424.828125 614.34375 394.707031 613.351562 365.898438 C 613.007812 356.058594 613.996094 340.644531 614.953125 325.742188 C 615.882812 311.238281 616.839844 296.246094 616.515625 286.980469 C 616.113281 286.335938 613.152344 284.507812 604.507812 281.878906 C 592.929688 278.363281 581.15625 276.34375 578.558594 276.921875 C 581.355469 288.761719 582.898438 296.664062 583.132812 300.410156 C 584.914062 328.570312 579.179688 357.207031 567.800781 377.035156 C 566.054688 380.070312 564.429688 382.84375 562.90625 385.445312 C 548.910156 409.355469 543.671875 418.300781 537.894531 475.785156 C 537.855469 476.203125 537.585938 476.566406 537.207031 476.730469 C 537.058594 476.796875 536.898438 476.824219 536.746094 476.824219 " fill-opacity="1" fill-rule="nonzero"/><path fill="#ffffff" d="M 484.730469 141.464844 C 484.730469 141.464844 481.980469 140.292969 481.4375 142.550781 C 480.894531 144.808594 483.984375 148.21875 477.476562 156.957031 C 470.976562 165.691406 488.625 151.855469 488.625 151.855469 C 488.625 151.855469 489.734375 144.71875 484.730469 141.464844 " fill-opacity="1" fill-rule="nonzero"/><path fill="#000000" d="M 483.238281 142.316406 C 483.078125 142.316406 482.925781 142.335938 482.816406 142.390625 C 482.769531 142.417969 482.640625 142.484375 482.5625 142.820312 C 482.476562 143.171875 482.546875 143.703125 482.648438 144.371094 C 482.992188 146.742188 483.566406 150.71875 478.402344 157.648438 C 478.375 157.691406 478.34375 157.730469 478.3125 157.773438 C 480.589844 156.410156 484.285156 153.769531 487.527344 151.246094 C 487.648438 149.773438 487.746094 144.894531 484.191406 142.496094 C 483.925781 142.402344 483.554688 142.316406 483.238281 142.316406 Z M 476.25 161.003906 C 475.738281 161.003906 475.507812 160.777344 475.3125 160.589844 C 474.253906 159.558594 475.292969 157.953125 476.550781 156.269531 C 481.144531 150.101562 480.675781 146.851562 480.363281 144.699219 C 480.238281 143.859375 480.128906 143.066406 480.3125 142.28125 C 480.589844 141.140625 481.261719 140.589844 481.785156 140.328125 C 483.222656 139.605469 484.988281 140.320312 485.179688 140.402344 C 485.246094 140.429688 485.300781 140.460938 485.359375 140.496094 C 490.925781 144.117188 489.816406 151.710938 489.765625 152.03125 C 489.71875 152.320312 489.566406 152.585938 489.335938 152.765625 C 480.609375 159.605469 477.535156 161.003906 476.25 161.003906 " fill-opacity="1" fill-rule="nonzero"/><path fill="#ffd4b9" d="M 475.59375 176.992188 L 493.792969 139.058594 C 494.21875 138.167969 495.128906 137.605469 496.121094 137.621094 L 512.90625 137.871094 C 514.730469 137.898438 515.929688 139.792969 515.171875 141.460938 L 498.101562 179.011719 C 497.695312 179.914062 496.800781 180.492188 495.8125 180.5 L 477.898438 180.625 C 476.019531 180.636719 474.777344 178.683594 475.59375 176.992188 " fill-opacity="1" fill-rule="nonzero"/><path fill="#000000" d="M 476.632812 177.488281 C 476.421875 177.929688 476.453125 178.417969 476.710938 178.824219 C 476.96875 179.234375 477.394531 179.46875 477.878906 179.46875 C 477.882812 179.46875 477.886719 179.46875 477.886719 179.46875 L 495.804688 179.34375 C 496.339844 179.339844 496.832031 179.023438 497.050781 178.53125 L 514.125 140.980469 C 514.320312 140.546875 514.285156 140.066406 514.03125 139.667969 C 513.78125 139.265625 513.363281 139.03125 512.886719 139.027344 L 496.101562 138.773438 C 495.59375 138.789062 495.070312 139.074219 494.835938 139.558594 Z M 477.878906 181.78125 C 476.605469 181.78125 475.441406 181.140625 474.761719 180.0625 C 474.074219 178.984375 473.996094 177.644531 474.550781 176.492188 L 474.550781 176.488281 L 492.753906 138.5625 C 493.367188 137.285156 494.667969 136.464844 496.082031 136.464844 C 496.097656 136.464844 496.121094 136.464844 496.136719 136.464844 L 512.921875 136.714844 C 514.171875 136.738281 515.316406 137.378906 515.984375 138.433594 C 516.65625 139.488281 516.742188 140.800781 516.222656 141.9375 L 499.15625 179.488281 C 498.5625 180.789062 497.257812 181.640625 495.824219 181.652344 L 477.90625 181.78125 C 477.898438 181.78125 477.886719 181.78125 477.878906 181.78125 " fill-opacity="1" fill-rule="nonzero"/><path fill="#ffffff" d="M 475.5 185.503906 C 475.5 185.503906 480.023438 204.703125 488.320312 224.984375 C 495.351562 242.179688 496.523438 247.03125 493.957031 253.183594 C 491.394531 259.335938 484.851562 264.46875 473.703125 258.777344 C 462.425781 253.015625 462.085938 183.859375 460.976562 178.09375 C 459.394531 169.863281 461.960938 162.050781 467.675781 156.890625 C 472.464844 152.566406 480.078125 149.210938 485.363281 149.710938 C 487.636719 149.929688 500.734375 152.066406 501.1875 157.097656 C 501.59375 161.597656 497.6875 165.351562 483.78125 167.570312 C 483.78125 167.570312 496.617188 169.046875 496.4375 172.097656 C 496.261719 175.289062 492.855469 174.59375 487.738281 174.425781 C 482.136719 174.230469 474.039062 177.003906 475.5 185.503906 " fill-opacity="1" fill-rule="nonzero"/><path fill="#000000" d="M 484.308594 150.816406 C 479.648438 150.816406 472.90625 153.722656 468.449219 157.742188 C 463.003906 162.660156 460.636719 170.183594 462.113281 177.871094 C 462.367188 179.195312 462.5625 183.222656 462.859375 189.320312 C 463.796875 208.535156 465.980469 253.53125 474.226562 257.746094 C 478.886719 260.121094 482.96875 260.691406 486.355469 259.453125 C 489.207031 258.40625 491.527344 256.019531 492.894531 252.738281 C 495.242188 247.105469 494.347656 242.761719 487.253906 225.417969 C 479.019531 205.285156 474.421875 185.953125 474.378906 185.761719 C 474.375 185.742188 474.367188 185.714844 474.363281 185.695312 C 473.804688 182.449219 474.507812 179.601562 476.382812 177.453125 C 479.242188 174.175781 484.148438 173.125 487.78125 173.265625 C 488.5 173.289062 489.183594 173.324219 489.832031 173.355469 C 494.398438 173.589844 495.214844 173.390625 495.289062 172.03125 C 494.992188 170.972656 489.445312 169.382812 483.652344 168.714844 C 483.078125 168.652344 482.640625 168.171875 482.628906 167.597656 C 482.621094 167.019531 483.03125 166.523438 483.601562 166.433594 C 498.863281 163.992188 500.292969 159.992188 500.039062 157.195312 C 499.722656 153.699219 489.335938 151.25 485.25 150.859375 C 484.945312 150.828125 484.628906 150.816406 484.308594 150.816406 Z M 482.628906 262.402344 C 479.734375 262.402344 476.574219 261.53125 473.179688 259.800781 C 464.882812 255.566406 462.207031 223.472656 460.554688 189.429688 C 460.285156 183.863281 460.070312 179.46875 459.847656 178.308594 C 458.214844 169.820312 460.847656 161.492188 466.898438 156.03125 C 472.179688 151.265625 480.160156 148.050781 485.46875 148.558594 C 485.628906 148.574219 501.746094 150.402344 502.335938 156.988281 C 502.777344 161.859375 498.882812 165.25 490.183594 167.460938 C 494.140625 168.363281 497.730469 169.835938 497.597656 172.164062 C 497.375 176.050781 493.652344 175.867188 489.714844 175.664062 C 489.082031 175.628906 488.40625 175.597656 487.699219 175.574219 C 484.75 175.46875 480.449219 176.296875 478.121094 178.972656 C 476.703125 180.597656 476.203125 182.710938 476.636719 185.265625 C 476.855469 186.195312 481.390625 204.984375 489.390625 224.542969 C 496.417969 241.722656 497.8125 246.941406 495.027344 253.625 C 493.410156 257.507812 490.613281 260.347656 487.152344 261.617188 C 485.730469 262.140625 484.21875 262.402344 482.628906 262.402344 " fill-opacity="1" fill-rule="nonzero"/><path fill="#000000" d="M 552.8125 289.621094 C 552.773438 289.621094 552.730469 289.617188 552.695312 289.613281 C 552.0625 289.554688 551.597656 288.988281 551.65625 288.351562 C 551.710938 287.835938 553.015625 275.582031 563.972656 265.949219 C 564.449219 265.527344 565.179688 265.570312 565.597656 266.054688 C 566.019531 266.53125 565.976562 267.261719 565.496094 267.683594 C 555.21875 276.71875 553.96875 288.460938 553.960938 288.574219 C 553.898438 289.171875 553.398438 289.621094 552.8125 289.621094 " fill-opacity="1" fill-rule="nonzero"/><path fill="#000000" d="M 578.449219 282.53125 C 577.988281 282.53125 577.558594 282.253906 577.378906 281.808594 C 575.394531 276.902344 575.25 272.722656 576.957031 269.386719 C 579.230469 264.941406 583.925781 263.734375 584.125 263.683594 C 584.742188 263.53125 585.371094 263.914062 585.523438 264.527344 C 585.675781 265.148438 585.296875 265.773438 584.679688 265.925781 C 584.632812 265.9375 580.777344 266.960938 579.007812 270.460938 C 577.632812 273.171875 577.800781 276.699219 579.515625 280.941406 C 579.753906 281.53125 579.46875 282.207031 578.878906 282.445312 C 578.738281 282.503906 578.589844 282.53125 578.449219 282.53125 " fill-opacity="1" fill-rule="nonzero"/><path fill="#000000" d="M 641.929688 378.0625 C 641.621094 378.0625 641.320312 377.941406 641.09375 377.699219 C 626.722656 362.628906 627.023438 337.347656 627.039062 336.277344 C 627.050781 335.648438 627.570312 335.144531 628.195312 335.144531 C 628.199219 335.144531 628.207031 335.144531 628.21875 335.144531 C 628.851562 335.160156 629.363281 335.683594 629.347656 336.324219 C 629.34375 336.574219 629.054688 361.730469 642.765625 376.105469 C 643.207031 376.566406 643.191406 377.296875 642.730469 377.742188 C 642.507812 377.953125 642.214844 378.0625 641.929688 378.0625 " fill-opacity="1" fill-rule="nonzero"/><path fill="#ffffff" d="M 593.210938 252.363281 L 587.550781 268.59375 C 586.328125 272.25 582.65625 273.25 579.339844 273.671875 C 577.589844 273.894531 576.605469 275.8125 577.417969 277.382812 L 577.664062 277.851562 C 585.402344 291.261719 598.875 294.234375 614.734375 289.242188 L 616.34375 288.546875 C 617.710938 287.960938 617.914062 286.101562 616.703125 285.230469 L 611.902344 281.789062 C 609.734375 280.230469 608.761719 277.132812 609.433594 273.941406 L 616.34375 245.285156 L 593.210938 252.363281 " fill-opacity="1" fill-rule="nonzero"/><path fill="#000000" d="M 594.105469 253.296875 L 588.644531 268.972656 C 587.175781 273.351562 582.714844 274.40625 579.488281 274.816406 C 579.035156 274.878906 578.664062 275.140625 578.449219 275.546875 C 578.230469 275.960938 578.230469 276.433594 578.445312 276.851562 L 578.691406 277.320312 C 587.578125 292.71875 602.96875 291.722656 614.332031 288.152344 L 615.882812 287.488281 C 616.253906 287.328125 616.324219 287.007812 616.335938 286.871094 C 616.355469 286.738281 616.355469 286.40625 616.027344 286.171875 L 611.230469 282.726562 C 608.683594 280.894531 607.535156 277.355469 608.304688 273.703125 L 614.738281 246.980469 Z M 601.332031 292.640625 C 590.605469 292.640625 582.078125 287.808594 576.664062 278.429688 L 576.398438 277.914062 C 575.835938 276.835938 575.835938 275.550781 576.40625 274.472656 C 576.960938 273.40625 578.007812 272.679688 579.195312 272.523438 C 583.460938 271.984375 585.625 270.695312 586.457031 268.226562 L 592.117188 251.988281 C 592.238281 251.636719 592.515625 251.371094 592.867188 251.261719 L 615.996094 244.179688 C 616.394531 244.054688 616.828125 244.15625 617.128906 244.441406 C 617.433594 244.730469 617.558594 245.152344 617.460938 245.554688 L 610.558594 274.210938 C 609.984375 276.9375 610.773438 279.550781 612.574219 280.851562 L 617.371094 284.292969 C 618.285156 284.949219 618.757812 286.003906 618.636719 287.125 C 618.515625 288.238281 617.828125 289.167969 616.796875 289.609375 L 615.191406 290.296875 C 615.15625 290.316406 615.117188 290.328125 615.085938 290.339844 C 610.191406 291.878906 605.589844 292.640625 601.332031 292.640625 " fill-opacity="1" fill-rule="nonzero"/><path fill="#ffffff" d="M 618.917969 232.40625 C 618.917969 232.40625 629.839844 229.457031 625.339844 237.644531 C 621.605469 244.421875 619.304688 244.597656 616.632812 244.355469 C 613.957031 244.113281 618.917969 232.40625 618.917969 232.40625 " fill-opacity="1" fill-rule="nonzero"/><path fill="#000000" d="M 617.007812 243.226562 C 618.984375 243.398438 620.914062 243.292969 624.328125 237.082031 C 625.226562 235.449219 625.5 234.214844 625.085938 233.679688 C 624.382812 232.792969 621.683594 232.964844 619.761719 233.390625 C 617.992188 237.683594 616.777344 242.023438 617.007812 243.226562 Z M 617.058594 243.402344 L 617.070312 243.402344 Z M 617.773438 245.570312 C 617.363281 245.570312 616.949219 245.546875 616.53125 245.503906 C 615.917969 245.445312 615.398438 245.121094 615.078125 244.582031 C 613.714844 242.316406 616.570312 235 617.855469 231.957031 C 617.996094 231.628906 618.277344 231.386719 618.621094 231.289062 C 619.652344 231.015625 624.925781 229.742188 626.902344 232.253906 C 627.960938 233.605469 627.777344 235.601562 626.355469 238.199219 C 622.910156 244.457031 620.414062 245.570312 617.773438 245.570312 " fill-opacity="1" fill-rule="nonzero"/><path fill="#ffffff" d="M 588.257812 230.707031 C 588.257812 230.707031 585.652344 247.953125 590.421875 255.128906 C 595.035156 262.0625 610.464844 266.730469 620.566406 235.167969 C 630.667969 203.601562 590.679688 205.015625 588.257812 230.707031 " fill-opacity="1" fill-rule="nonzero"/><path fill="#000000" d="M 588.265625 230.703125 L 588.269531 230.703125 Z M 608.351562 212.609375 C 606.316406 212.609375 604.179688 212.988281 602.089844 213.769531 C 594.902344 216.460938 590.164062 222.828125 589.410156 230.808594 C 589.410156 230.835938 589.410156 230.855469 589.40625 230.875 C 589.378906 231.042969 586.921875 247.765625 591.386719 254.484375 C 593.023438 256.9375 596.5625 259.585938 601.160156 258.9375 C 605.300781 258.363281 613.179688 254.460938 619.46875 234.808594 C 622.136719 226.464844 621.382812 219.75 617.332031 215.890625 C 615.074219 213.734375 611.847656 212.609375 608.351562 212.609375 Z M 599.761719 261.34375 C 594.941406 261.34375 591.261719 258.464844 589.464844 255.761719 C 584.5625 248.390625 586.957031 231.652344 587.117188 230.5625 C 587.964844 221.691406 593.257812 214.609375 601.277344 211.609375 C 607.789062 209.175781 614.71875 210.203125 618.925781 214.21875 C 623.652344 218.714844 624.625 226.28125 621.671875 235.515625 C 615.332031 255.324219 607.195312 260.425781 601.480469 261.226562 C 600.894531 261.308594 600.320312 261.34375 599.761719 261.34375 " fill-opacity="1" fill-rule="nonzero"/><path fill="#000000" d="M 618.40625 221.203125 C 617.097656 217.964844 612.554688 216.308594 607.28125 218.023438 C 602.007812 219.734375 582.546875 225.621094 578.183594 205.355469 C 573.824219 185.09375 583.929688 199.296875 587.40625 200.210938 C 590.882812 201.128906 584.503906 195.203125 585.5625 190.191406 C 586.625 185.179688 588.296875 191.078125 593.929688 192.910156 C 599.558594 194.738281 593.640625 190.886719 593.855469 187.320312 C 594.074219 183.746094 595.652344 184.6875 600.558594 189.925781 C 605.460938 195.160156 616.613281 204.144531 625.554688 202.765625 C 634.492188 201.390625 637.210938 210.984375 633.292969 219.5625 C 629.371094 228.140625 629.292969 227.652344 627.691406 230.054688 C 624.101562 235.414062 621.808594 237.375 619.546875 236.789062 C 615.585938 235.769531 620.488281 226.328125 618.40625 221.203125 " fill-opacity="1" fill-rule="nonzero"/><path fill="#ffffff" d="M 629.691406 263.652344 C 631.011719 263.238281 632.273438 264.390625 631.992188 265.738281 C 631.761719 266.820312 631.53125 268.34375 631.363281 270.484375 C 630.878906 276.472656 633.019531 282.703125 634.710938 288.929688 C 637.859375 300.492188 653.265625 322.09375 666.796875 337.472656 C 673.976562 345.628906 669.746094 366.507812 661.269531 370.902344 C 656.546875 373.351562 642.035156 371.601562 638.71875 357.105469 C 633.003906 332.160156 633.515625 331.441406 627.503906 314.230469 C 626.585938 311.605469 623.703125 310.195312 620.929688 310.015625 C 616.628906 309.738281 610.179688 308.714844 606.445312 305.21875 C 603.511719 302.46875 606.378906 301.519531 606.125 299.15625 C 605.929688 297.328125 604.449219 297.246094 604.671875 294.527344 C 604.941406 291.042969 609.105469 291.460938 608.746094 289.722656 C 607.804688 285.117188 611.710938 281.152344 616.410156 281.023438 C 625.667969 280.761719 624.316406 277.15625 624.652344 271.203125 C 624.929688 266.210938 627.507812 264.339844 629.691406 263.652344 " fill-opacity="1" fill-rule="nonzero"/><path fill="#000000" d="M 607.617188 289.957031 L 607.625 289.957031 Z M 630.042969 264.753906 C 627.429688 265.578125 626.003906 267.769531 625.804688 271.269531 C 625.761719 272.042969 625.75 272.785156 625.730469 273.476562 C 625.628906 278.710938 625.128906 281.933594 616.445312 282.171875 C 614.3125 282.234375 612.289062 283.222656 611.023438 284.8125 C 609.945312 286.171875 609.539062 287.832031 609.878906 289.492188 C 610.210938 291.101562 608.808594 291.808594 607.890625 292.285156 C 606.667969 292.902344 605.921875 293.371094 605.820312 294.621094 C 605.722656 295.8125 606.003906 296.242188 606.394531 296.832031 C 606.738281 297.351562 607.164062 297.996094 607.269531 299.035156 C 607.398438 300.214844 606.976562 301.105469 606.636719 301.820312 C 606.15625 302.824219 605.980469 303.199219 607.234375 304.375 C 610.832031 307.734375 617.402344 308.628906 621.003906 308.863281 C 624.640625 309.097656 627.621094 311.058594 628.597656 313.847656 C 633.238281 327.140625 634.042969 330.800781 636.722656 342.921875 C 637.523438 346.554688 638.519531 351.078125 639.839844 356.847656 C 641.488281 364.050781 645.914062 367.453125 649.328125 369.039062 C 653.796875 371.105469 658.546875 371.019531 660.738281 369.878906 C 664.316406 368.023438 667.445312 362.4375 668.722656 355.648438 C 670.078125 348.402344 669.011719 341.730469 665.933594 338.230469 C 652.269531 322.703125 636.777344 300.890625 633.601562 289.230469 C 633.351562 288.324219 633.09375 287.414062 632.839844 286.503906 C 631.339844 281.195312 629.78125 275.710938 630.207031 270.390625 C 630.359375 268.46875 630.582031 266.828125 630.859375 265.503906 C 630.929688 265.167969 630.746094 264.964844 630.664062 264.890625 C 630.585938 264.8125 630.359375 264.652344 630.042969 264.753906 Z M 656.566406 372.980469 C 654.066406 372.980469 651.164062 372.433594 648.359375 371.132812 C 644.46875 369.335938 639.445312 365.484375 637.59375 357.363281 C 636.265625 351.585938 635.273438 347.058594 634.464844 343.421875 C 631.742188 331.089844 631.015625 327.773438 626.414062 314.609375 C 625.605469 312.28125 622.914062 311.304688 620.851562 311.167969 C 616.082031 310.863281 609.570312 309.722656 605.660156 306.058594 C 603.167969 303.730469 604 301.980469 604.554688 300.828125 C 604.851562 300.199219 605.03125 299.789062 604.980469 299.28125 C 604.925781 298.800781 604.742188 298.523438 604.46875 298.101562 C 604 297.394531 603.359375 296.421875 603.519531 294.4375 C 603.726562 291.808594 605.675781 290.816406 606.839844 290.222656 C 607.078125 290.101562 607.421875 289.929688 607.585938 289.804688 C 607.164062 287.515625 607.734375 285.242188 609.214844 283.378906 C 610.898438 281.257812 613.570312 279.945312 616.375 279.867188 C 623.300781 279.671875 623.335938 277.972656 623.425781 273.433594 C 623.4375 272.710938 623.449219 271.941406 623.5 271.136719 C 623.835938 265.160156 627.308594 263.191406 629.347656 262.550781 C 630.355469 262.230469 631.433594 262.464844 632.214844 263.179688 C 633 263.890625 633.339844 264.9375 633.121094 265.976562 C 632.859375 267.207031 632.65625 268.75 632.507812 270.574219 C 632.117188 275.476562 633.550781 280.527344 635.0625 285.878906 C 635.320312 286.792969 635.574219 287.707031 635.828125 288.621094 C 638.910156 299.945312 654.179688 321.378906 667.667969 336.703125 C 671.257812 340.789062 672.5 348.027344 670.988281 356.074219 C 669.574219 363.648438 666.046875 369.726562 661.800781 371.929688 C 660.535156 372.585938 658.695312 372.980469 656.566406 372.980469 " fill-opacity="1" fill-rule="nonzero"/><path fill="#ffffff" d="M 629.703125 143.003906 C 629.703125 126.410156 643.152344 112.953125 659.746094 112.953125 C 676.335938 112.953125 689.792969 126.410156 689.792969 143.003906 C 689.792969 159.59375 676.335938 173.046875 659.746094 173.046875 C 643.152344 173.046875 629.703125 159.59375 629.703125 143.003906 " fill-opacity="1" fill-rule="nonzero"/><path fill="#000000" d="M 659.742188 114.109375 C 643.816406 114.109375 630.851562 127.070312 630.851562 143 C 630.851562 158.933594 643.816406 171.894531 659.742188 171.894531 C 675.675781 171.894531 688.632812 158.933594 688.632812 143 C 688.632812 127.070312 675.675781 114.109375 659.742188 114.109375 Z M 659.742188 174.207031 C 642.539062 174.207031 628.542969 160.207031 628.542969 143 C 628.542969 125.800781 642.539062 111.800781 659.742188 111.800781 C 676.945312 111.800781 690.945312 125.800781 690.945312 143 C 690.945312 160.207031 676.945312 174.207031 659.742188 174.207031 " fill-opacity="1" fill-rule="nonzero"/><path fill="#fe6604" d="M 659.910156 158.117188 C 659.613281 158.300781 659.242188 158.308594 658.933594 158.136719 C 656.289062 156.660156 644 149.257812 644.484375 139.578125 C 644.992188 129.347656 656.097656 131.121094 658.832031 136.15625 C 658.941406 136.34375 659.144531 136.460938 659.359375 136.445312 C 659.582031 136.4375 659.773438 136.300781 659.855469 136.101562 C 661.199219 132.871094 665.542969 130.527344 669.632812 132.0625 C 674.511719 133.894531 679.46875 145.992188 659.910156 158.117188 " fill-opacity="1" fill-rule="nonzero"/><path fill="#ffffff" d="M 98.832031 221.082031 C 98.832031 204.492188 112.28125 191.039062 128.875 191.039062 C 145.472656 191.039062 158.921875 204.492188 158.921875 221.082031 C 158.921875 237.675781 145.472656 251.128906 128.875 251.128906 C 112.28125 251.128906 98.832031 237.675781 98.832031 221.082031 " fill-opacity="1" fill-rule="nonzero"/><path fill="#000000" d="M 128.875 192.1875 C 112.949219 192.1875 99.988281 205.148438 99.988281 221.082031 C 99.988281 237.011719 112.949219 249.972656 128.875 249.972656 C 144.808594 249.972656 157.769531 237.011719 157.769531 221.082031 C 157.769531 205.148438 144.808594 192.1875 128.875 192.1875 Z M 128.875 252.28125 C 111.671875 252.28125 97.679688 238.285156 97.679688 221.082031 C 97.679688 203.875 111.671875 189.878906 128.875 189.878906 C 146.082031 189.878906 160.078125 203.875 160.078125 221.082031 C 160.078125 238.285156 146.082031 252.28125 128.875 252.28125 " fill-opacity="1" fill-rule="nonzero"/><path fill="#fe6604" d="M 129.042969 236.195312 C 128.746094 236.378906 128.371094 236.390625 128.066406 236.214844 C 125.421875 234.738281 113.136719 227.339844 113.617188 217.65625 C 114.125 207.425781 125.226562 209.199219 127.96875 214.234375 C 128.074219 214.425781 128.277344 214.539062 128.496094 214.527344 C 128.710938 214.515625 128.902344 214.382812 128.988281 214.183594 C 130.332031 210.949219 134.675781 208.605469 138.765625 210.140625 C 143.644531 211.972656 148.601562 224.078125 129.042969 236.195312 " fill-opacity="1" fill-rule="nonzero"/><path fill="#000000" d="M 525.699219 120.785156 C 525.117188 120.785156 524.621094 120.351562 524.550781 119.765625 L 524.007812 115.113281 C 523.933594 114.480469 524.386719 113.902344 525.019531 113.832031 C 525.652344 113.761719 526.222656 114.207031 526.300781 114.84375 L 526.84375 119.496094 C 526.921875 120.128906 526.464844 120.703125 525.832031 120.777344 C 525.789062 120.78125 525.742188 120.785156 525.699219 120.785156 " fill-opacity="1" fill-rule="nonzero"/><path fill="#000000" d="M 528.308594 143.066406 C 527.726562 143.066406 527.230469 142.628906 527.160156 142.046875 L 526.617188 137.390625 C 526.542969 136.757812 526.996094 136.183594 527.632812 136.109375 C 528.261719 136.035156 528.835938 136.488281 528.914062 137.121094 L 529.453125 141.773438 C 529.53125 142.40625 529.074219 142.980469 528.441406 143.058594 C 528.398438 143.0625 528.351562 143.066406 528.308594 143.066406 " fill-opacity="1" fill-rule="nonzero"/><path fill="#000000" d="M 513.203125 131.125 C 512.621094 131.125 512.125 130.6875 512.058594 130.097656 C 511.984375 129.460938 512.441406 128.890625 513.078125 128.820312 L 517.746094 128.296875 C 518.390625 128.210938 518.957031 128.675781 519.023438 129.3125 C 519.09375 129.949219 518.640625 130.519531 518.007812 130.589844 L 513.332031 131.113281 C 513.292969 131.121094 513.246094 131.125 513.203125 131.125 " fill-opacity="1" fill-rule="nonzero"/><path fill="#000000" d="M 535.578125 128.605469 C 535 128.605469 534.5 128.167969 534.433594 127.578125 C 534.359375 126.945312 534.820312 126.375 535.457031 126.304688 L 540.125 125.777344 C 540.761719 125.695312 541.332031 126.164062 541.398438 126.796875 C 541.472656 127.429688 541.019531 128 540.386719 128.074219 L 535.707031 128.597656 C 535.667969 128.601562 535.621094 128.605469 535.578125 128.605469 " fill-opacity="1" fill-rule="nonzero"/><path fill="#000000" d="M 685.027344 500.011719 C 684.726562 500.011719 684.425781 499.898438 684.207031 499.667969 C 683.757812 499.21875 683.761719 498.484375 684.21875 498.035156 L 686.726562 495.570312 C 687.179688 495.125 687.910156 495.132812 688.359375 495.585938 C 688.804688 496.042969 688.792969 496.773438 688.34375 497.21875 L 685.839844 499.683594 C 685.609375 499.90625 685.320312 500.011719 685.027344 500.011719 " fill-opacity="1" fill-rule="nonzero"/><path fill="#000000" d="M 673.027344 511.816406 C 672.726562 511.816406 672.425781 511.703125 672.203125 511.472656 C 671.757812 511.015625 671.761719 510.285156 672.214844 509.839844 L 674.71875 507.375 C 675.175781 506.929688 675.90625 506.933594 676.351562 507.390625 C 676.800781 507.839844 676.792969 508.574219 676.339844 509.023438 L 673.835938 511.484375 C 673.609375 511.703125 673.320312 511.816406 673.027344 511.816406 " fill-opacity="1" fill-rule="nonzero"/><path fill="#000000" d="M 675.617188 499.894531 C 675.316406 499.894531 675.011719 499.777344 674.789062 499.546875 L 672.324219 497.019531 C 671.882812 496.558594 671.894531 495.828125 672.347656 495.386719 C 672.808594 494.941406 673.539062 494.953125 673.984375 495.40625 L 676.449219 497.933594 C 676.886719 498.390625 676.878906 499.121094 676.425781 499.566406 C 676.199219 499.785156 675.902344 499.894531 675.617188 499.894531 " fill-opacity="1" fill-rule="nonzero"/><path fill="#000000" d="M 687.40625 512.003906 C 687.105469 512.003906 686.804688 511.882812 686.582031 511.648438 L 684.113281 509.121094 C 683.671875 508.667969 683.679688 507.9375 684.136719 507.492188 C 684.59375 507.042969 685.324219 507.054688 685.773438 507.511719 L 688.234375 510.039062 C 688.679688 510.5 688.667969 511.230469 688.210938 511.671875 C 687.988281 511.890625 687.695312 512.003906 687.40625 512.003906 " fill-opacity="1" fill-rule="nonzero"/><path fill="#ffd4b9" d="M 94.484375 321.34375 C 94.484375 327.109375 89.808594 331.789062 84.039062 331.789062 C 78.269531 331.789062 73.59375 327.109375 73.59375 321.34375 C 73.59375 315.574219 78.269531 310.898438 84.039062 310.898438 C 89.808594 310.898438 94.484375 315.574219 94.484375 321.34375 " fill-opacity="1" fill-rule="nonzero"/><path fill="#000000" d="M 311.5625 291.042969 C 311.128906 291.042969 310.714844 290.804688 310.515625 290.386719 L 308.90625 287.011719 C 308.632812 286.433594 308.875 285.746094 309.453125 285.472656 C 310.027344 285.199219 310.71875 285.441406 310.992188 286.019531 L 312.601562 289.394531 C 312.875 289.96875 312.632812 290.65625 312.058594 290.933594 C 311.898438 291.007812 311.726562 291.042969 311.5625 291.042969 " fill-opacity="1" fill-rule="nonzero"/><path fill="#000000" d="M 319.269531 307.210938 C 318.839844 307.210938 318.425781 306.972656 318.226562 306.554688 L 316.617188 303.179688 C 316.34375 302.605469 316.585938 301.914062 317.164062 301.640625 C 317.738281 301.367188 318.429688 301.609375 318.703125 302.1875 L 320.3125 305.5625 C 320.585938 306.136719 320.34375 306.824219 319.769531 307.101562 C 319.609375 307.179688 319.4375 307.210938 319.269531 307.210938 " fill-opacity="1" fill-rule="nonzero"/><path fill="#000000" d="M 304.78125 302.074219 C 304.347656 302.074219 303.929688 301.828125 303.734375 301.410156 C 303.460938 300.832031 303.710938 300.148438 304.285156 299.875 L 307.683594 298.273438 C 308.261719 298.003906 308.949219 298.25 309.222656 298.828125 C 309.492188 299.402344 309.246094 300.089844 308.667969 300.367188 L 305.269531 301.964844 C 305.113281 302.035156 304.945312 302.074219 304.78125 302.074219 " fill-opacity="1" fill-rule="nonzero"/><path fill="#000000" d="M 321.046875 294.410156 C 320.613281 294.410156 320.195312 294.167969 320.003906 293.746094 C 319.730469 293.167969 319.976562 292.480469 320.554688 292.210938 L 323.949219 290.609375 C 324.527344 290.339844 325.214844 290.582031 325.488281 291.160156 C 325.757812 291.738281 325.511719 292.429688 324.933594 292.699219 L 321.539062 294.296875 C 321.378906 294.375 321.210938 294.410156 321.046875 294.410156 " fill-opacity="1" fill-rule="nonzero"/><g clip-path="url(#59fd0a76c2)"><g clip-path="url(#f97b06a94b)"><path fill="#ffffff" d="M 618.839844 100.445312 L 699.839844 100.445312 L 699.839844 181.445312 L 618.839844 181.445312 Z M 618.839844 100.445312 " fill-opacity="1" fill-rule="nonzero"/></g></g><g clip-path="url(#c4ba92f508)"><g clip-path="url(#8d98f65a1d)"><path fill="#ffffff" d="M 100.441406 194.40625 L 155.519531 194.40625 L 155.519531 249.484375 L 100.441406 249.484375 Z M 100.441406 194.40625 " fill-opacity="1" fill-rule="nonzero"/></g></g></svg>