<svg xmlns="http://www.w3.org/2000/svg" xmlns:xlink="http://www.w3.org/1999/xlink" width="1366" zoomAndPan="magnify" viewBox="0 0 1024.5 576" height="768" preserveAspectRatio="xMidYMid meet" version="1.0"><defs><clipPath id="5854ca4f78"><path d="M 25.265625 188 L 212 188 L 212 442 L 25.265625 442 Z M 25.265625 188 " clip-rule="nonzero"/></clipPath><clipPath id="467ff211ec"><path d="M 232 136 L 979.386719 136 L 979.386719 415 L 232 415 Z M 232 136 " clip-rule="nonzero"/></clipPath><clipPath id="3abe5cbc65"><path d="M 68.363281 456.941406 L 959.148438 456.941406 L 959.148438 498.972656 L 68.363281 498.972656 Z M 68.363281 456.941406 " clip-rule="nonzero"/></clipPath><clipPath id="9cd728556c"><path d="M 171.976562 503.976562 L 223 503.976562 L 223 548.621094 L 171.976562 548.621094 Z M 171.976562 503.976562 " clip-rule="nonzero"/></clipPath><clipPath id="abbd65610a"><path d="M 197.488281 548.621094 L 223 503.976562 L 171.976562 503.976562 Z M 197.488281 548.621094 " clip-rule="nonzero"/></clipPath><clipPath id="1397dddd99"><path d="M 476.816406 503.976562 L 527.914062 503.976562 L 527.914062 548.621094 L 476.816406 548.621094 Z M 476.816406 503.976562 " clip-rule="nonzero"/></clipPath><clipPath id="faa455c222"><path d="M 502.328125 548.621094 L 527.839844 503.976562 L 476.816406 503.976562 Z M 502.328125 548.621094 " clip-rule="nonzero"/></clipPath><clipPath id="68417c8900"><path d="M 781.964844 503.976562 L 833 503.976562 L 833 548.621094 L 781.964844 548.621094 Z M 781.964844 503.976562 " clip-rule="nonzero"/></clipPath><clipPath id="ad5408c318"><path d="M 807.476562 548.621094 L 832.988281 503.976562 L 781.964844 503.976562 Z M 807.476562 548.621094 " clip-rule="nonzero"/></clipPath><clipPath id="c6b714c414"><path d="M 233.597656 136.425781 L 976 136.425781 L 976 341.773438 L 233.597656 341.773438 Z M 233.597656 136.425781 " clip-rule="nonzero"/></clipPath><clipPath id="790d48cf4a"><path d="M 260.585938 136.425781 L 948.652344 136.425781 C 963.558594 136.425781 975.640625 148.507812 975.640625 163.414062 L 975.640625 314.789062 C 975.640625 329.691406 963.558594 341.773438 948.652344 341.773438 L 260.585938 341.773438 C 245.683594 341.773438 233.597656 329.691406 233.597656 314.789062 L 233.597656 163.414062 C 233.597656 148.507812 245.683594 136.425781 260.585938 136.425781 Z M 260.585938 136.425781 " clip-rule="nonzero"/></clipPath></defs><g clip-path="url(#5854ca4f78)"><path fill="#ffffff" d="M 28.1875 313.695312 C 28.425781 309.582031 28.722656 305.46875 29.019531 301.355469 C 31.402344 267.566406 35.039062 235.863281 39.332031 206.363281 C 40.820312 196.113281 49.640625 188.542969 59.949219 188.542969 L 191.058594 188.542969 C 202.5625 188.542969 211.917969 197.898438 211.917969 209.402344 L 211.917969 335.980469 C 211.917969 337.054688 210.90625 337.890625 209.832031 337.652344 C 209.832031 337.652344 201.726562 335.921875 193.085938 335.742188 C 180.332031 335.445312 168.355469 339.378906 157.328125 345.101562 C 126.875 361.070312 122.046875 393.015625 122.046875 393.195312 C 121.570312 395.519531 119.546875 397.1875 117.222656 397.1875 L 38.554688 397.1875 C 38.554688 405.054688 38.734375 412.917969 38.914062 420.726562 C 39.03125 425.136719 42.667969 428.710938 47.078125 428.710938 L 118.832031 428.710938 C 121.511719 428.710938 123.835938 430.382812 124.730469 432.882812 L 124.730469 433.003906 C 126.21875 437.054688 123.179688 441.347656 118.890625 441.347656 L 47.136719 441.347656 C 35.8125 441.347656 26.578125 432.347656 26.277344 421.023438 C 25.445312 387.769531 25.921875 351.894531 28.246094 313.632812 Z M 145.828125 201.296875 L 59.949219 201.296875 C 55.898438 201.296875 52.441406 204.277344 51.84375 208.269531 C 47.316406 239.199219 43.859375 270.605469 41.65625 301.894531 L 41.65625 306.898438 L 142.667969 291.105469 C 144.457031 290.808594 145.828125 289.257812 145.828125 287.410156 Z M 108.402344 384.550781 C 110.011719 384.550781 111.5 383.480469 111.976562 381.929688 C 116.089844 369.296875 123.121094 357.734375 132.777344 348.078125 C 148.867188 331.988281 170.320312 323.109375 193.085938 323.109375 C 194.875 323.109375 196.660156 323.109375 198.390625 323.289062 C 198.867188 323.289062 199.226562 322.929688 199.226562 322.511719 L 199.226562 209.460938 C 199.226562 204.933594 195.589844 201.296875 191.058594 201.296875 L 158.460938 201.296875 L 158.460938 295.636719 C 158.460938 298.972656 156.019531 301.835938 152.742188 302.371094 L 40.523438 319.949219 C 39.332031 341.40625 38.675781 363.039062 38.554688 384.613281 L 108.402344 384.613281 Z M 108.402344 384.550781 " fill-opacity="1" fill-rule="nonzero"/></g><path fill="#ffffff" d="M 193.085938 361.070312 C 213.230469 361.070312 230.453125 373.707031 237.246094 391.464844 C 239.273438 396.710938 240.34375 402.371094 240.34375 408.332031 C 240.34375 414.289062 239.273438 419.953125 237.246094 425.195312 C 230.453125 442.957031 213.230469 455.589844 193.085938 455.589844 C 167.042969 455.589844 145.828125 434.375 145.828125 408.332031 C 145.828125 382.289062 167.042969 361.070312 193.085938 361.070312 Z M 193.085938 442.957031 C 212.15625 442.957031 227.710938 427.460938 227.710938 408.332031 C 227.710938 389.199219 212.214844 373.707031 193.085938 373.707031 C 173.957031 373.707031 158.460938 389.199219 158.460938 408.332031 C 158.460938 427.460938 173.957031 442.957031 193.085938 442.957031 Z M 193.085938 442.957031 " fill-opacity="1" fill-rule="nonzero"/><path fill="#ffffff" d="M 193.085938 394.027344 C 201.011719 394.027344 207.449219 400.464844 207.449219 408.390625 C 207.449219 416.316406 201.011719 422.753906 193.085938 422.753906 C 185.160156 422.753906 178.722656 416.316406 178.722656 408.390625 C 178.722656 400.464844 185.160156 394.027344 193.085938 394.027344 Z M 193.085938 394.027344 " fill-opacity="1" fill-rule="nonzero"/><path fill="#ffffff" d="M 161.082031 310.890625 C 161.082031 311.160156 161.167969 311.421875 161.335938 311.683594 C 161.5 311.945312 161.75 312.199219 162.078125 312.441406 C 162.40625 312.6875 162.808594 312.921875 163.285156 313.144531 C 163.757812 313.363281 164.300781 313.570312 164.90625 313.757812 C 165.511719 313.945312 166.171875 314.113281 166.882812 314.261719 C 167.597656 314.410156 168.347656 314.535156 169.140625 314.636719 C 169.933594 314.738281 170.75 314.816406 171.589844 314.867188 C 172.429688 314.917969 173.277344 314.945312 174.136719 314.945312 C 174.992188 314.945312 175.839844 314.917969 176.679688 314.867188 C 177.523438 314.816406 178.339844 314.738281 179.128906 314.636719 C 179.921875 314.535156 180.671875 314.410156 181.386719 314.261719 C 182.097656 314.113281 182.757812 313.945312 183.363281 313.757812 C 183.96875 313.570312 184.511719 313.363281 184.988281 313.144531 C 185.464844 312.921875 185.863281 312.6875 186.191406 312.441406 C 186.519531 312.199219 186.769531 311.945312 186.9375 311.683594 C 187.101562 311.421875 187.1875 311.160156 187.1875 310.890625 C 187.1875 310.625 187.101562 310.363281 186.9375 310.101562 C 186.769531 309.839844 186.519531 309.585938 186.191406 309.339844 C 185.863281 309.097656 185.464844 308.863281 184.988281 308.640625 C 184.511719 308.417969 183.96875 308.214844 183.363281 308.027344 C 182.757812 307.839844 182.097656 307.671875 181.386719 307.523438 C 180.671875 307.375 179.921875 307.25 179.128906 307.148438 C 178.339844 307.046875 177.523438 306.96875 176.679688 306.917969 C 175.839844 306.867188 174.992188 306.839844 174.136719 306.839844 C 173.277344 306.839844 172.429688 306.867188 171.589844 306.917969 C 170.75 306.96875 169.933594 307.046875 169.140625 307.148438 C 168.347656 307.25 167.597656 307.375 166.882812 307.523438 C 166.171875 307.671875 165.511719 307.839844 164.90625 308.027344 C 164.300781 308.214844 163.757812 308.417969 163.285156 308.640625 C 162.808594 308.863281 162.40625 309.097656 162.078125 309.339844 C 161.75 309.585938 161.5 309.839844 161.335938 310.101562 C 161.167969 310.363281 161.082031 310.625 161.082031 310.890625 Z M 161.082031 310.890625 " fill-opacity="1" fill-rule="nonzero"/><g clip-path="url(#467ff211ec)"><path fill="#ffffff" d="M 232.179688 329.308594 L 232.179688 152.785156 C 232.179688 143.667969 239.570312 136.277344 248.6875 136.277344 L 962.878906 136.277344 C 971.996094 136.277344 979.386719 143.667969 979.386719 152.785156 L 979.386719 397.722656 C 979.386719 406.839844 971.996094 414.230469 962.878906 414.230469 L 941.363281 414.230469 C 938.144531 414.230469 935.582031 411.609375 935.582031 408.449219 C 935.582031 408.09375 935.582031 407.734375 935.582031 407.4375 C 935.582031 404.21875 938.144531 401.597656 941.363281 401.597656 L 962.820312 401.597656 C 964.964844 401.597656 966.632812 399.867188 966.632812 397.78125 L 966.632812 152.847656 C 966.632812 150.699219 964.90625 149.03125 962.820312 149.03125 L 248.628906 149.03125 C 246.484375 149.03125 244.816406 150.761719 244.816406 152.847656 L 244.816406 329.367188 C 244.816406 331.511719 246.542969 333.179688 248.628906 333.179688 L 495.652344 333.179688 C 504.234375 333.179688 512.277344 336.9375 517.878906 343.429688 L 566.273438 400.226562 C 566.988281 401.058594 568.058594 401.597656 569.191406 401.597656 L 585.28125 401.597656 C 588.5 401.597656 591.125 404.21875 591.0625 407.4375 C 591.0625 407.734375 591.0625 408.09375 591.0625 408.390625 C 591.0625 411.667969 588.5 414.230469 585.28125 414.230469 L 569.132812 414.230469 C 564.304688 414.230469 559.714844 412.085938 556.558594 408.449219 L 508.167969 351.65625 C 505.007812 347.960938 500.417969 345.875 495.59375 345.875 L 248.570312 345.875 C 239.453125 345.875 232.0625 338.484375 232.0625 329.367188 Z M 232.179688 329.308594 " fill-opacity="1" fill-rule="nonzero"/></g><path fill="#ffffff" d="M 432.777344 384.253906 C 441.003906 370.367188 456.140625 361.070312 473.421875 361.070312 C 490.703125 361.070312 505.84375 370.367188 514.066406 384.253906 C 516.390625 388.128906 518.179688 392.417969 519.25 396.949219 C 520.144531 400.582031 520.621094 404.457031 520.621094 408.390625 C 520.621094 412.324219 520.144531 416.136719 519.25 419.832031 C 518.117188 424.363281 516.332031 428.59375 514.066406 432.527344 C 505.84375 446.414062 490.703125 455.710938 473.421875 455.710938 C 456.140625 455.710938 441.003906 446.414062 432.777344 432.527344 C 430.453125 428.652344 428.667969 424.363281 427.59375 419.832031 C 426.699219 416.199219 426.222656 412.324219 426.222656 408.390625 C 426.222656 404.457031 426.699219 400.644531 427.59375 396.949219 C 428.726562 392.417969 430.515625 388.1875 432.777344 384.253906 Z M 440.765625 419.773438 C 442.433594 424.539062 445.175781 428.890625 448.628906 432.46875 C 454.949219 438.960938 463.707031 442.957031 473.421875 442.957031 C 483.136719 442.957031 491.957031 438.902344 498.214844 432.46875 C 501.671875 428.890625 504.410156 424.601562 506.082031 419.773438 C 507.332031 416.199219 508.046875 412.324219 508.046875 408.332031 C 508.046875 404.339844 507.390625 400.464844 506.082031 396.886719 C 504.410156 392.121094 501.671875 387.769531 498.214844 384.195312 C 491.898438 377.699219 483.136719 373.707031 473.421875 373.707031 C 463.707031 373.707031 454.886719 377.757812 448.628906 384.195312 C 445.175781 387.769531 442.433594 392.0625 440.765625 396.886719 C 439.511719 400.464844 438.796875 404.277344 438.796875 408.332031 C 438.796875 412.382812 439.453125 416.199219 440.765625 419.773438 Z M 440.765625 419.773438 " fill-opacity="1" fill-rule="nonzero"/><path fill="#ffffff" d="M 463.113281 398.378906 C 465.855469 395.578125 469.488281 394.027344 473.363281 394.027344 C 477.238281 394.027344 480.929688 395.578125 483.613281 398.378906 C 485.042969 399.867188 486.175781 401.714844 486.890625 403.621094 C 487.425781 405.113281 487.664062 406.722656 487.664062 408.332031 C 487.664062 409.941406 487.425781 411.550781 486.890625 413.039062 C 486.234375 415.003906 485.101562 416.792969 483.613281 418.285156 C 480.871094 421.085938 477.238281 422.632812 473.363281 422.632812 C 469.488281 422.632812 465.792969 421.085938 463.113281 418.285156 C 461.683594 416.792969 460.550781 414.945312 459.835938 413.039062 C 459.296875 411.550781 459.058594 409.941406 459.058594 408.332031 C 459.058594 406.722656 459.296875 405.113281 459.835938 403.621094 C 460.488281 401.714844 461.621094 399.867188 463.113281 398.378906 Z M 463.113281 398.378906 " fill-opacity="1" fill-rule="nonzero"/><path fill="#ffffff" d="M 605.1875 396.949219 C 606.320312 392.417969 608.109375 388.1875 610.433594 384.253906 C 618.65625 370.367188 633.792969 361.070312 651.074219 361.070312 C 668.359375 361.070312 683.496094 370.367188 691.71875 384.253906 C 694.042969 388.128906 695.832031 392.417969 696.90625 396.949219 C 697.261719 398.4375 697.558594 399.988281 697.796875 401.535156 C 698.097656 403.742188 698.273438 406.007812 698.273438 408.332031 C 698.273438 410.296875 698.15625 412.265625 697.917969 414.171875 C 697.679688 416.078125 697.320312 417.925781 696.90625 419.714844 C 695.773438 424.242188 693.984375 428.472656 691.71875 432.40625 C 683.496094 446.292969 668.359375 455.589844 651.074219 455.589844 C 633.792969 455.589844 618.65625 446.292969 610.433594 432.40625 C 608.109375 428.535156 606.320312 424.242188 605.1875 419.714844 C 604.710938 417.925781 604.414062 416.019531 604.175781 414.171875 C 603.9375 412.265625 603.816406 410.296875 603.816406 408.332031 C 603.816406 406.007812 603.996094 403.742188 604.292969 401.535156 C 604.53125 399.988281 604.828125 398.4375 605.1875 396.949219 Z M 616.988281 414.230469 C 617.285156 416.136719 617.820312 417.984375 618.417969 419.773438 C 620.085938 424.539062 622.828125 428.890625 626.285156 432.46875 C 632.601562 438.960938 641.363281 442.957031 651.074219 442.957031 C 660.789062 442.957031 669.609375 438.902344 675.867188 432.46875 C 679.324219 428.890625 682.066406 424.601562 683.734375 419.773438 C 684.390625 417.984375 684.867188 416.136719 685.164062 414.230469 C 685.523438 412.324219 685.640625 410.355469 685.640625 408.390625 C 685.640625 406.066406 685.402344 403.800781 684.984375 401.597656 C 684.6875 400.046875 684.269531 398.496094 683.734375 397.007812 C 682.066406 392.238281 679.324219 387.890625 675.867188 384.3125 C 669.550781 377.816406 660.789062 373.824219 651.074219 373.824219 C 641.363281 373.824219 632.542969 377.878906 626.285156 384.3125 C 622.828125 387.890625 620.085938 392.179688 618.417969 397.007812 C 617.882812 398.496094 617.464844 400.046875 617.167969 401.597656 C 616.75 403.800781 616.511719 406.066406 616.511719 408.390625 C 616.511719 410.417969 616.6875 412.324219 616.988281 414.230469 Z M 616.988281 414.230469 " fill-opacity="1" fill-rule="nonzero"/><path fill="#ffffff" d="M 638.5 401.535156 C 639.097656 400.40625 639.929688 399.332031 640.824219 398.378906 C 643.566406 395.578125 647.203125 394.027344 651.074219 394.027344 C 654.949219 394.027344 658.644531 395.578125 661.328125 398.378906 C 662.21875 399.332031 663.054688 400.40625 663.652344 401.535156 C 664.007812 402.191406 664.304688 402.90625 664.605469 403.621094 C 665.140625 405.113281 665.378906 406.722656 665.378906 408.332031 C 665.378906 409.941406 665.140625 411.550781 664.605469 413.039062 C 664.484375 413.457031 664.304688 413.8125 664.128906 414.171875 C 663.472656 415.660156 662.457031 417.089844 661.328125 418.285156 C 658.585938 421.085938 654.949219 422.632812 651.074219 422.632812 C 647.203125 422.632812 643.507812 421.085938 640.824219 418.285156 C 639.691406 417.089844 638.738281 415.660156 638.023438 414.171875 C 637.847656 413.8125 637.667969 413.394531 637.546875 413.039062 C 637.011719 411.550781 636.773438 409.941406 636.773438 408.332031 C 636.773438 406.722656 637.011719 405.113281 637.546875 403.621094 C 637.785156 402.90625 638.085938 402.191406 638.5 401.535156 Z M 638.5 401.535156 " fill-opacity="1" fill-rule="nonzero"/><path fill="#ffffff" d="M 829.800781 396.949219 C 830.933594 392.417969 832.722656 388.1875 834.988281 384.253906 C 843.210938 370.367188 858.347656 361.070312 875.628906 361.070312 C 892.914062 361.070312 908.050781 370.367188 916.273438 384.253906 C 918.597656 388.128906 920.386719 392.417969 921.460938 396.949219 C 921.816406 398.4375 922.113281 399.988281 922.355469 401.535156 C 922.652344 403.742188 922.832031 406.007812 922.832031 408.332031 C 922.832031 410.296875 922.710938 412.265625 922.472656 414.171875 C 922.234375 416.078125 921.875 417.925781 921.460938 419.714844 C 920.328125 424.242188 918.539062 428.472656 916.273438 432.40625 C 908.050781 446.292969 892.914062 455.589844 875.628906 455.589844 C 858.347656 455.589844 843.210938 446.292969 834.988281 432.40625 C 832.664062 428.535156 830.875 424.242188 829.800781 419.714844 C 829.324219 417.925781 829.027344 416.019531 828.789062 414.171875 C 828.550781 412.265625 828.429688 410.296875 828.429688 408.332031 C 828.429688 406.007812 828.609375 403.742188 828.90625 401.535156 C 829.148438 399.988281 829.445312 398.4375 829.800781 396.949219 Z M 841.601562 414.230469 C 841.898438 416.136719 842.4375 417.984375 843.03125 419.773438 C 844.699219 424.539062 847.441406 428.890625 850.898438 432.46875 C 857.214844 438.960938 865.976562 442.957031 875.691406 442.957031 C 885.40625 442.957031 894.222656 438.902344 900.480469 432.46875 C 903.9375 428.890625 906.679688 424.601562 908.347656 419.773438 C 909.003906 417.984375 909.480469 416.136719 909.777344 414.230469 C 910.078125 412.324219 910.253906 410.355469 910.253906 408.390625 C 910.253906 406.066406 910.015625 403.800781 909.601562 401.597656 C 909.300781 400.046875 908.886719 398.496094 908.347656 397.007812 C 906.679688 392.238281 903.9375 387.890625 900.480469 384.3125 C 894.164062 377.816406 885.40625 373.824219 875.691406 373.824219 C 865.976562 373.824219 857.15625 377.878906 850.898438 384.3125 C 847.441406 387.890625 844.699219 392.179688 843.03125 397.007812 C 842.496094 398.496094 842.078125 400.046875 841.78125 401.597656 C 841.363281 403.800781 841.125 406.066406 841.125 408.390625 C 841.125 410.417969 841.304688 412.324219 841.601562 414.230469 Z M 841.601562 414.230469 " fill-opacity="1" fill-rule="nonzero"/><path fill="#ffffff" d="M 863.054688 401.535156 C 863.710938 400.40625 864.488281 399.332031 865.378906 398.378906 C 868.121094 395.578125 871.757812 394.027344 875.628906 394.027344 C 879.503906 394.027344 883.199219 395.578125 885.882812 398.378906 C 886.773438 399.332031 887.609375 400.40625 888.207031 401.535156 C 888.5625 402.191406 888.859375 402.90625 889.160156 403.621094 C 889.695312 405.113281 889.933594 406.722656 889.933594 408.332031 C 889.933594 409.941406 889.695312 411.550781 889.160156 413.039062 C 889.039062 413.457031 888.859375 413.8125 888.683594 414.171875 C 888.027344 415.660156 887.011719 417.089844 885.882812 418.285156 C 883.140625 421.085938 879.503906 422.632812 875.628906 422.632812 C 871.757812 422.632812 868.0625 421.085938 865.378906 418.285156 C 864.25 417.089844 863.292969 415.660156 862.578125 414.171875 C 862.402344 413.8125 862.222656 413.394531 862.101562 413.039062 C 861.566406 411.550781 861.328125 409.941406 861.328125 408.332031 C 861.328125 406.722656 861.566406 405.113281 862.101562 403.621094 C 862.339844 402.90625 862.640625 402.191406 863.054688 401.535156 Z M 863.054688 401.535156 " fill-opacity="1" fill-rule="nonzero"/><path fill="#ffffff" d="M 717.523438 396.949219 C 718.65625 392.417969 720.445312 388.1875 722.710938 384.253906 C 730.933594 370.367188 746.070312 361.070312 763.351562 361.070312 C 780.636719 361.070312 795.773438 370.367188 803.996094 384.253906 C 806.320312 388.128906 808.109375 392.417969 809.183594 396.949219 C 809.539062 398.4375 809.835938 399.988281 810.074219 401.535156 C 810.375 403.742188 810.554688 406.007812 810.554688 408.332031 C 810.554688 410.296875 810.433594 412.265625 810.195312 414.171875 C 809.957031 416.078125 809.597656 417.925781 809.183594 419.714844 C 808.050781 424.242188 806.261719 428.472656 803.996094 432.40625 C 795.773438 446.292969 780.636719 455.589844 763.351562 455.589844 C 746.070312 455.589844 730.933594 446.292969 722.710938 432.40625 C 720.386719 428.535156 718.597656 424.242188 717.523438 419.714844 C 717.046875 417.925781 716.75 416.019531 716.511719 414.171875 C 716.273438 412.265625 716.152344 410.296875 716.152344 408.332031 C 716.152344 406.007812 716.332031 403.742188 716.628906 401.535156 C 716.867188 399.988281 717.167969 398.4375 717.523438 396.949219 Z M 729.265625 414.230469 C 729.5625 416.136719 730.097656 417.984375 730.695312 419.773438 C 732.363281 424.539062 735.105469 428.890625 738.5625 432.46875 C 744.878906 438.960938 753.640625 442.957031 763.351562 442.957031 C 773.066406 442.957031 781.886719 438.902344 788.144531 432.46875 C 791.601562 428.890625 794.34375 424.601562 796.011719 419.773438 C 796.667969 417.984375 797.144531 416.136719 797.441406 414.230469 C 797.800781 412.324219 797.917969 410.355469 797.917969 408.390625 C 797.917969 406.066406 797.679688 403.800781 797.261719 401.597656 C 796.964844 400.046875 796.546875 398.496094 796.011719 397.007812 C 794.34375 392.238281 791.601562 387.890625 788.144531 384.3125 C 781.828125 377.816406 773.066406 373.824219 763.351562 373.824219 C 753.640625 373.824219 744.820312 377.878906 738.5625 384.3125 C 735.105469 387.890625 732.363281 392.179688 730.695312 397.007812 C 730.160156 398.496094 729.742188 400.046875 729.445312 401.597656 C 729.027344 403.800781 728.789062 406.066406 728.789062 408.390625 C 728.789062 410.417969 728.96875 412.324219 729.265625 414.230469 Z M 729.265625 414.230469 " fill-opacity="1" fill-rule="nonzero"/><path fill="#ffffff" d="M 750.777344 401.535156 C 751.433594 400.40625 752.210938 399.332031 753.101562 398.378906 C 755.84375 395.578125 759.480469 394.027344 763.351562 394.027344 C 767.226562 394.027344 770.921875 395.578125 773.605469 398.378906 C 774.496094 399.332031 775.332031 400.40625 775.929688 401.535156 C 776.285156 402.191406 776.582031 402.90625 776.882812 403.621094 C 777.417969 405.113281 777.65625 406.722656 777.65625 408.332031 C 777.65625 409.941406 777.417969 411.550781 776.882812 413.039062 C 776.761719 413.457031 776.582031 413.8125 776.40625 414.171875 C 775.75 415.660156 774.734375 417.089844 773.605469 418.285156 C 770.863281 421.085938 767.226562 422.632812 763.351562 422.632812 C 759.480469 422.632812 755.785156 421.085938 753.101562 418.285156 C 751.96875 417.089844 751.015625 415.660156 750.300781 414.171875 C 750.125 413.8125 749.945312 413.394531 749.824219 413.039062 C 749.289062 411.550781 749.050781 409.941406 749.050781 408.332031 C 749.050781 406.722656 749.289062 405.113281 749.824219 403.621094 C 750.0625 402.90625 750.363281 402.191406 750.777344 401.535156 Z M 750.777344 401.535156 " fill-opacity="1" fill-rule="nonzero"/><path fill="#ffffff" d="M 407.210938 440.394531 L 259.296875 440.394531 L 259.296875 373.707031 L 407.210938 373.707031 Z M 394.519531 386.398438 L 271.992188 386.398438 L 271.992188 427.757812 L 394.519531 427.757812 Z M 394.519531 386.398438 " fill-opacity="1" fill-rule="nonzero"/><g clip-path="url(#3abe5cbc65)"><path fill="#ffffff" d="M 68.363281 456.941406 L 959.195312 456.941406 L 959.195312 498.972656 L 68.363281 498.972656 Z M 68.363281 456.941406 " fill-opacity="1" fill-rule="nonzero"/></g><g clip-path="url(#9cd728556c)"><g clip-path="url(#abbd65610a)"><path fill="#ffffff" d="M 171.976562 503.976562 L 223.074219 503.976562 L 223.074219 548.621094 L 171.976562 548.621094 Z M 171.976562 503.976562 " fill-opacity="1" fill-rule="nonzero"/></g></g><g clip-path="url(#1397dddd99)"><g clip-path="url(#faa455c222)"><path fill="#ffffff" d="M 476.816406 503.976562 L 527.914062 503.976562 L 527.914062 548.621094 L 476.816406 548.621094 Z M 476.816406 503.976562 " fill-opacity="1" fill-rule="nonzero"/></g></g><g clip-path="url(#68417c8900)"><g clip-path="url(#ad5408c318)"><path fill="#ffffff" d="M 781.964844 503.976562 L 833.0625 503.976562 L 833.0625 548.621094 L 781.964844 548.621094 Z M 781.964844 503.976562 " fill-opacity="1" fill-rule="nonzero"/></g></g><path stroke-linecap="butt" transform="matrix(0.749632, 0.00190537, -0.00190537, 0.749632, 56.92578, 475.151166)" fill="none" stroke-linejoin="miter" d="M -0.000119512 2.002553 L 1215.310184 1.998392 " stroke="#fe6604" stroke-width="4" stroke-opacity="1" stroke-miterlimit="4"/><g clip-path="url(#c6b714c414)"><g clip-path="url(#790d48cf4a)"><path fill="#ffffff" d="M 233.597656 136.425781 L 975.582031 136.425781 L 975.582031 341.773438 L 233.597656 341.773438 Z M 233.597656 136.425781 " fill-opacity="1" fill-rule="nonzero"/></g></g></svg>