<svg xmlns="http://www.w3.org/2000/svg" xmlns:xlink="http://www.w3.org/1999/xlink" width="320" zoomAndPan="magnify" viewBox="0 0 240 98.999996" height="132" preserveAspectRatio="xMidYMid meet" version="1.0"><defs><g/></defs><rect x="-24" width="288" fill="#ffffff" y="-9.9" height="118.799995" fill-opacity="1"/><rect x="-24" width="288" fill="#ffffff" y="-9.9" height="118.799995" fill-opacity="1"/><g fill="#ff6500" fill-opacity="1"><g transform="translate(16.776026, 64.297938)"><g><path d="M 29.703125 -28.0625 L -0.734375 -28.0625 L -0.734375 -24.9375 L 2.90625 -24.9375 L 2.90625 -10.640625 C 2.90625 -9.296875 3.207031 -8.085938 3.8125 -7.015625 C 4.414062 -5.941406 5.21875 -5.015625 6.21875 -4.234375 C 7.226562 -3.460938 8.382812 -2.863281 9.6875 -2.4375 C 11 -2.007812 12.359375 -1.796875 13.765625 -1.796875 C 14.859375 -1.796875 15.828125 -1.832031 16.671875 -1.90625 C 17.523438 -1.976562 18.300781 -2.117188 19 -2.328125 C 19.707031 -2.535156 20.351562 -2.816406 20.9375 -3.171875 C 21.519531 -3.523438 22.113281 -3.984375 22.71875 -4.546875 L 22.71875 5.984375 C 22.71875 7.460938 22.375 8.789062 21.6875 9.96875 C 21 11.15625 20.078125 12.164062 18.921875 13 C 17.773438 13.832031 16.460938 14.476562 14.984375 14.9375 C 13.503906 15.394531 11.96875 15.625 10.375 15.625 C 8.75 15.625 7.398438 15.410156 6.328125 14.984375 C 5.253906 14.554688 4.390625 14.050781 3.734375 13.46875 C 3.078125 12.894531 2.597656 12.316406 2.296875 11.734375 C 2.003906 11.148438 1.835938 10.695312 1.796875 10.375 C 1.898438 9.457031 2.367188 8.722656 3.203125 8.171875 C 4.035156 7.628906 5 7.207031 6.09375 6.90625 C 7.1875 6.601562 8.28125 6.378906 9.375 6.234375 C 10.46875 6.097656 11.367188 5.960938 12.078125 5.828125 L 8.796875 1.4375 C 7.554688 1.4375 6.335938 1.632812 5.140625 2.03125 C 3.941406 2.4375 2.847656 2.96875 1.859375 3.625 C 0.867188 4.28125 0.0703125 5.054688 -0.53125 5.953125 C -1.132812 6.859375 -1.4375 7.804688 -1.4375 8.796875 C -1.4375 9.492188 -1.125 10.335938 -0.5 11.328125 C 0.113281 12.316406 1.035156 13.257812 2.265625 14.15625 C 3.503906 15.0625 5.0625 15.832031 6.9375 16.46875 C 8.8125 17.101562 11 17.421875 13.5 17.421875 C 15.195312 17.421875 16.882812 17.179688 18.5625 16.703125 C 20.238281 16.222656 21.742188 15.523438 23.078125 14.609375 C 24.421875 13.691406 25.507812 12.570312 26.34375 11.25 C 27.175781 9.925781 27.59375 8.414062 27.59375 6.71875 L 27.59375 -19.75 L 22.1875 -21.609375 L 22.1875 -11.8125 C 22.1875 -10.820312 21.957031 -9.804688 21.5 -8.765625 C 21.039062 -7.722656 20.421875 -6.769531 19.640625 -5.90625 C 18.867188 -5.039062 17.960938 -4.332031 16.921875 -3.78125 C 15.878906 -3.238281 14.789062 -2.96875 13.65625 -2.96875 C 12.457031 -3.070312 11.476562 -3.273438 10.71875 -3.578125 C 9.957031 -3.878906 9.363281 -4.289062 8.9375 -4.8125 C 8.519531 -5.34375 8.238281 -6.015625 8.09375 -6.828125 C 7.957031 -7.640625 7.890625 -8.59375 7.890625 -9.6875 L 7.890625 -24.9375 L 29.703125 -24.9375 Z M 29.703125 -28.0625 "/></g></g></g><g fill="#ff6500" fill-opacity="1"><g transform="translate(46.114198, 64.297938)"><g><path d="M 25.265625 -24.9375 L 25.265625 -28.0625 L -0.640625 -28.0625 L -0.640625 -24.9375 L 4.65625 -24.9375 L 4.65625 -18.265625 C 4.65625 -18.234375 4.515625 -18.101562 4.234375 -17.875 C 3.953125 -17.644531 3.722656 -17.441406 3.546875 -17.265625 L 3.546875 -15.359375 C 5.378906 -16.171875 7.097656 -16.820312 8.703125 -17.3125 C 10.316406 -17.8125 12.144531 -18.0625 14.1875 -18.0625 C 14.863281 -18.0625 15.507812 -18.015625 16.125 -17.921875 C 16.738281 -17.835938 17.285156 -17.695312 17.765625 -17.5 C 18.242188 -17.300781 18.625 -17.050781 18.90625 -16.75 C 19.1875 -16.457031 19.328125 -16.097656 19.328125 -15.671875 L 19.328125 -13.296875 C 18.765625 -13.710938 17.9375 -14.097656 16.84375 -14.453125 C 15.75 -14.804688 14.597656 -14.984375 13.390625 -14.984375 C 11.734375 -14.984375 10.15625 -14.707031 8.65625 -14.15625 C 7.15625 -13.613281 5.835938 -12.925781 4.703125 -12.09375 C 3.578125 -11.269531 2.6875 -10.367188 2.03125 -9.390625 C 1.382812 -8.421875 1.0625 -7.5 1.0625 -6.625 C 1.0625 -5.632812 1.320312 -4.722656 1.84375 -3.890625 C 2.375 -3.054688 3.070312 -2.347656 3.9375 -1.765625 C 4.8125 -1.191406 5.796875 -0.742188 6.890625 -0.421875 C 7.984375 -0.109375 9.109375 0.046875 10.265625 0.046875 C 11.472656 0.046875 12.535156 -0.03125 13.453125 -0.1875 C 14.367188 -0.34375 15.171875 -0.550781 15.859375 -0.8125 C 16.546875 -1.082031 17.144531 -1.359375 17.65625 -1.640625 C 18.164062 -1.921875 18.617188 -2.203125 19.015625 -2.484375 C 19.222656 -2.304688 19.328125 -1.957031 19.328125 -1.4375 C 19.640625 -1.289062 20.070312 -1.101562 20.625 -0.875 C 21.175781 -0.644531 22.117188 -0.265625 23.453125 0.265625 L 23.453125 -9.6875 C 23.453125 -10.820312 23.441406 -11.8125 23.421875 -12.65625 C 23.410156 -13.5 23.367188 -14.265625 23.296875 -14.953125 C 23.222656 -15.640625 23.109375 -16.257812 22.953125 -16.8125 C 22.796875 -17.363281 22.59375 -17.898438 22.34375 -18.421875 C 21.8125 -19.484375 20.945312 -20.296875 19.75 -20.859375 C 18.550781 -21.421875 16.925781 -21.703125 14.875 -21.703125 C 14.238281 -21.703125 13.539062 -21.640625 12.78125 -21.515625 C 12.03125 -21.398438 11.328125 -21.28125 10.671875 -21.15625 C 10.015625 -21.03125 9.460938 -20.90625 9.015625 -20.78125 C 8.578125 -20.65625 8.378906 -20.59375 8.421875 -20.59375 C 8.347656 -20.59375 8.285156 -20.609375 8.234375 -20.640625 C 8.179688 -20.679688 8.117188 -20.738281 8.046875 -20.8125 L 8.046875 -24.9375 Z M 19.328125 -8.578125 C 19.328125 -8.328125 19.015625 -7.894531 18.390625 -7.28125 C 17.773438 -6.664062 16.929688 -6.039062 15.859375 -5.40625 C 14.785156 -4.769531 13.5 -4.203125 12 -3.703125 C 10.5 -3.210938 8.863281 -2.96875 7.09375 -2.96875 C 6.601562 -2.96875 6.109375 -3 5.609375 -3.0625 C 5.117188 -3.132812 4.660156 -3.25 4.234375 -3.40625 C 3.804688 -3.570312 3.460938 -3.773438 3.203125 -4.015625 C 2.941406 -4.265625 2.8125 -4.550781 2.8125 -4.875 C 2.8125 -5.363281 3.070312 -5.976562 3.59375 -6.71875 C 4.125 -7.46875 4.835938 -8.1875 5.734375 -8.875 C 6.640625 -9.5625 7.707031 -10.148438 8.9375 -10.640625 C 10.175781 -11.140625 11.488281 -11.390625 12.875 -11.390625 C 13.082031 -11.390625 13.53125 -11.316406 14.21875 -11.171875 C 14.90625 -11.035156 15.628906 -10.84375 16.390625 -10.59375 C 17.148438 -10.34375 17.828125 -10.050781 18.421875 -9.71875 C 19.023438 -9.382812 19.328125 -9.003906 19.328125 -8.578125 Z M 19.328125 -8.578125 "/></g></g></g><g fill="#ff6500" fill-opacity="1"><g transform="translate(71.268766, 64.297938)"><g><path d="M 22.875 -24.9375 L 22.875 -28.0625 L 9.796875 -28.0625 L 9.796875 -33.515625 L 5.140625 -36.75 L 5.140625 -28.0625 L -0.265625 -28.0625 L -0.265625 -24.9375 L 5.140625 -24.9375 L 5.140625 -6.09375 C 5.140625 -5.351562 5.316406 -4.609375 5.671875 -3.859375 C 6.023438 -3.117188 6.488281 -2.457031 7.0625 -1.875 C 7.644531 -1.289062 8.332031 -0.820312 9.125 -0.46875 C 9.925781 -0.125 10.769531 0.046875 11.65625 0.046875 C 12.851562 0.046875 13.925781 -0.117188 14.875 -0.453125 C 15.832031 -0.785156 16.679688 -1.242188 17.421875 -1.828125 C 18.160156 -2.410156 18.8125 -3.097656 19.375 -3.890625 C 19.945312 -4.679688 20.441406 -5.554688 20.859375 -6.515625 L 15.671875 -9.484375 C 15.671875 -4.179688 14.382812 -1.53125 11.8125 -1.53125 C 11.3125 -1.53125 10.847656 -1.8125 10.421875 -2.375 C 10.003906 -2.945312 9.796875 -3.53125 9.796875 -4.125 L 9.796875 -24.9375 Z M 22.875 -24.9375 "/></g></g></g><g fill="#ff6500" fill-opacity="1"><g transform="translate(93.828444, 64.297938)"><g><path d="M 28.390625 -24.9375 L 28.390625 -28.0625 L 7.515625 -28.0625 C 7.515625 -29.832031 7.265625 -31.648438 6.765625 -33.515625 C 6.273438 -35.390625 5.632812 -37.144531 4.84375 -38.78125 C 4.050781 -40.425781 3.175781 -41.859375 2.21875 -43.078125 C 1.269531 -44.296875 0.335938 -45.132812 -0.578125 -45.59375 L -5.828125 -45.59375 C -4.691406 -44.675781 -3.613281 -43.609375 -2.59375 -42.390625 C -1.570312 -41.171875 -0.679688 -39.828125 0.078125 -38.359375 C 0.835938 -36.898438 1.4375 -35.304688 1.875 -33.578125 C 2.320312 -31.847656 2.546875 -30.007812 2.546875 -28.0625 L -0.3125 -28.0625 L -0.3125 -24.9375 L 2.546875 -24.9375 L 2.546875 -2.328125 L 7.359375 0.265625 L 7.359375 -10.015625 C 7.359375 -10.992188 7.691406 -12.03125 8.359375 -13.125 C 9.035156 -14.226562 9.875 -15.238281 10.875 -16.15625 C 11.882812 -17.070312 12.988281 -17.828125 14.1875 -18.421875 C 15.382812 -19.023438 16.5 -19.328125 17.53125 -19.328125 C 19.039062 -19.328125 20.226562 -18.757812 21.09375 -17.625 C 21.96875 -16.5 22.40625 -15.035156 22.40625 -13.234375 C 22.40625 -11.890625 22.234375 -10.710938 21.890625 -9.703125 C 21.554688 -8.703125 21.109375 -7.78125 20.546875 -6.9375 C 19.984375 -6.09375 19.335938 -5.289062 18.609375 -4.53125 C 17.890625 -3.769531 17.160156 -2.96875 16.421875 -2.125 L 20.65625 0.421875 C 21.425781 -0.140625 22.164062 -0.804688 22.875 -1.578125 C 23.582031 -2.359375 24.207031 -3.195312 24.75 -4.09375 C 25.300781 -5 25.742188 -5.953125 26.078125 -6.953125 C 26.410156 -7.960938 26.578125 -9 26.578125 -10.0625 C 26.578125 -11.363281 26.3125 -12.703125 25.78125 -14.078125 C 25.257812 -15.460938 24.519531 -16.707031 23.5625 -17.8125 C 22.613281 -18.925781 21.472656 -19.835938 20.140625 -20.546875 C 18.816406 -21.253906 17.363281 -21.609375 15.78125 -21.609375 C 14.613281 -21.609375 13.585938 -21.457031 12.703125 -21.15625 C 11.828125 -20.851562 11.0625 -20.472656 10.40625 -20.015625 C 9.75 -19.554688 9.191406 -19.070312 8.734375 -18.5625 C 8.273438 -18.050781 7.867188 -17.582031 7.515625 -17.15625 L 7.515625 -24.9375 Z M 28.390625 -24.9375 "/></g></g></g><g fill="#000000" fill-opacity="1"><g transform="translate(121.951792, 64.297938)"><g><path d="M 25.265625 -24.9375 L 25.265625 -28.0625 L -0.640625 -28.0625 L -0.640625 -24.9375 L 4.65625 -24.9375 L 4.65625 -18.265625 C 4.65625 -18.234375 4.515625 -18.101562 4.234375 -17.875 C 3.953125 -17.644531 3.722656 -17.441406 3.546875 -17.265625 L 3.546875 -15.359375 C 5.378906 -16.171875 7.097656 -16.820312 8.703125 -17.3125 C 10.316406 -17.8125 12.144531 -18.0625 14.1875 -18.0625 C 14.863281 -18.0625 15.507812 -18.015625 16.125 -17.921875 C 16.738281 -17.835938 17.285156 -17.695312 17.765625 -17.5 C 18.242188 -17.300781 18.625 -17.050781 18.90625 -16.75 C 19.1875 -16.457031 19.328125 -16.097656 19.328125 -15.671875 L 19.328125 -13.296875 C 18.765625 -13.710938 17.9375 -14.097656 16.84375 -14.453125 C 15.75 -14.804688 14.597656 -14.984375 13.390625 -14.984375 C 11.734375 -14.984375 10.15625 -14.707031 8.65625 -14.15625 C 7.15625 -13.613281 5.835938 -12.925781 4.703125 -12.09375 C 3.578125 -11.269531 2.6875 -10.367188 2.03125 -9.390625 C 1.382812 -8.421875 1.0625 -7.5 1.0625 -6.625 C 1.0625 -5.632812 1.320312 -4.722656 1.84375 -3.890625 C 2.375 -3.054688 3.070312 -2.347656 3.9375 -1.765625 C 4.8125 -1.191406 5.796875 -0.742188 6.890625 -0.421875 C 7.984375 -0.109375 9.109375 0.046875 10.265625 0.046875 C 11.472656 0.046875 12.535156 -0.03125 13.453125 -0.1875 C 14.367188 -0.34375 15.171875 -0.550781 15.859375 -0.8125 C 16.546875 -1.082031 17.144531 -1.359375 17.65625 -1.640625 C 18.164062 -1.921875 18.617188 -2.203125 19.015625 -2.484375 C 19.222656 -2.304688 19.328125 -1.957031 19.328125 -1.4375 C 19.640625 -1.289062 20.070312 -1.101562 20.625 -0.875 C 21.175781 -0.644531 22.117188 -0.265625 23.453125 0.265625 L 23.453125 -9.6875 C 23.453125 -10.820312 23.441406 -11.8125 23.421875 -12.65625 C 23.410156 -13.5 23.367188 -14.265625 23.296875 -14.953125 C 23.222656 -15.640625 23.109375 -16.257812 22.953125 -16.8125 C 22.796875 -17.363281 22.59375 -17.898438 22.34375 -18.421875 C 21.8125 -19.484375 20.945312 -20.296875 19.75 -20.859375 C 18.550781 -21.421875 16.925781 -21.703125 14.875 -21.703125 C 14.238281 -21.703125 13.539062 -21.640625 12.78125 -21.515625 C 12.03125 -21.398438 11.328125 -21.28125 10.671875 -21.15625 C 10.015625 -21.03125 9.460938 -20.90625 9.015625 -20.78125 C 8.578125 -20.65625 8.378906 -20.59375 8.421875 -20.59375 C 8.347656 -20.59375 8.285156 -20.609375 8.234375 -20.640625 C 8.179688 -20.679688 8.117188 -20.738281 8.046875 -20.8125 L 8.046875 -24.9375 Z M 19.328125 -8.578125 C 19.328125 -8.328125 19.015625 -7.894531 18.390625 -7.28125 C 17.773438 -6.664062 16.929688 -6.039062 15.859375 -5.40625 C 14.785156 -4.769531 13.5 -4.203125 12 -3.703125 C 10.5 -3.210938 8.863281 -2.96875 7.09375 -2.96875 C 6.601562 -2.96875 6.109375 -3 5.609375 -3.0625 C 5.117188 -3.132812 4.660156 -3.25 4.234375 -3.40625 C 3.804688 -3.570312 3.460938 -3.773438 3.203125 -4.015625 C 2.941406 -4.265625 2.8125 -4.550781 2.8125 -4.875 C 2.8125 -5.363281 3.070312 -5.976562 3.59375 -6.71875 C 4.125 -7.46875 4.835938 -8.1875 5.734375 -8.875 C 6.640625 -9.5625 7.707031 -10.148438 8.9375 -10.640625 C 10.175781 -11.140625 11.488281 -11.390625 12.875 -11.390625 C 13.082031 -11.390625 13.53125 -11.316406 14.21875 -11.171875 C 14.90625 -11.035156 15.628906 -10.84375 16.390625 -10.59375 C 17.148438 -10.34375 17.828125 -10.050781 18.421875 -9.71875 C 19.023438 -9.382812 19.328125 -9.003906 19.328125 -8.578125 Z M 19.328125 -8.578125 "/></g></g></g><g fill="#000000" fill-opacity="1"><g transform="translate(147.10636, 64.297938)"><g><path d="M 23.71875 -15.671875 C 23.71875 -16.585938 23.460938 -17.414062 22.953125 -18.15625 C 22.441406 -18.90625 21.804688 -19.539062 21.046875 -20.0625 C 20.285156 -20.59375 19.453125 -21 18.546875 -21.28125 C 17.648438 -21.5625 16.832031 -21.703125 16.09375 -21.703125 C 15.25 -21.703125 14.375 -21.570312 13.46875 -21.3125 C 12.570312 -21.050781 11.734375 -20.75 10.953125 -20.40625 C 10.179688 -20.070312 9.519531 -19.742188 8.96875 -19.421875 C 8.425781 -19.109375 8.101562 -18.898438 8 -18.796875 L 8 -20.75 L 2.96875 -20.75 L 2.96875 -1.640625 L 7.9375 0.953125 L 7.9375 -10.015625 C 7.9375 -11.242188 8.242188 -12.472656 8.859375 -13.703125 C 9.484375 -14.941406 10.242188 -16.066406 11.140625 -17.078125 C 12.046875 -18.085938 13.019531 -18.910156 14.0625 -19.546875 C 15.101562 -20.179688 16.03125 -20.5 16.84375 -20.5 C 17.757812 -20.5 18.5 -20.238281 19.0625 -19.71875 C 19.625 -19.207031 19.90625 -18.773438 19.90625 -18.421875 C 19.90625 -18.003906 19.769531 -17.554688 19.5 -17.078125 C 19.238281 -16.597656 18.878906 -16.15625 18.421875 -15.75 C 17.960938 -15.34375 17.425781 -15 16.8125 -14.71875 C 16.195312 -14.4375 15.519531 -14.257812 14.78125 -14.1875 L 18.640625 -9.796875 C 18.992188 -9.972656 19.460938 -10.28125 20.046875 -10.71875 C 20.628906 -11.164062 21.191406 -11.660156 21.734375 -12.203125 C 22.285156 -12.753906 22.753906 -13.335938 23.140625 -13.953125 C 23.523438 -14.566406 23.71875 -15.140625 23.71875 -15.671875 Z M 25.890625 -24.9375 L 25.890625 -28.0625 L -0.265625 -28.0625 L -0.265625 -24.9375 Z M 25.890625 -24.9375 "/></g></g></g><g fill="#000000" fill-opacity="1"><g transform="translate(172.525721, 64.297938)"><g><path d="M 22.875 -24.9375 L 22.875 -28.0625 L 9.796875 -28.0625 L 9.796875 -33.515625 L 5.140625 -36.75 L 5.140625 -28.0625 L -0.265625 -28.0625 L -0.265625 -24.9375 L 5.140625 -24.9375 L 5.140625 -6.09375 C 5.140625 -5.351562 5.316406 -4.609375 5.671875 -3.859375 C 6.023438 -3.117188 6.488281 -2.457031 7.0625 -1.875 C 7.644531 -1.289062 8.332031 -0.820312 9.125 -0.46875 C 9.925781 -0.125 10.769531 0.046875 11.65625 0.046875 C 12.851562 0.046875 13.925781 -0.117188 14.875 -0.453125 C 15.832031 -0.785156 16.679688 -1.242188 17.421875 -1.828125 C 18.160156 -2.410156 18.8125 -3.097656 19.375 -3.890625 C 19.945312 -4.679688 20.441406 -5.554688 20.859375 -6.515625 L 15.671875 -9.484375 C 15.671875 -4.179688 14.382812 -1.53125 11.8125 -1.53125 C 11.3125 -1.53125 10.847656 -1.8125 10.421875 -2.375 C 10.003906 -2.945312 9.796875 -3.53125 9.796875 -4.125 L 9.796875 -24.9375 Z M 22.875 -24.9375 "/></g></g></g><g fill="#000000" fill-opacity="1"><g transform="translate(195.085399, 64.297938)"><g><path d="M 28.390625 -24.9375 L 28.390625 -28.0625 L 7.515625 -28.0625 C 7.515625 -29.832031 7.265625 -31.648438 6.765625 -33.515625 C 6.273438 -35.390625 5.632812 -37.144531 4.84375 -38.78125 C 4.050781 -40.425781 3.175781 -41.859375 2.21875 -43.078125 C 1.269531 -44.296875 0.335938 -45.132812 -0.578125 -45.59375 L -5.828125 -45.59375 C -4.691406 -44.675781 -3.613281 -43.609375 -2.59375 -42.390625 C -1.570312 -41.171875 -0.679688 -39.828125 0.078125 -38.359375 C 0.835938 -36.898438 1.4375 -35.304688 1.875 -33.578125 C 2.320312 -31.847656 2.546875 -30.007812 2.546875 -28.0625 L -0.3125 -28.0625 L -0.3125 -24.9375 L 2.546875 -24.9375 L 2.546875 -2.328125 L 7.359375 0.265625 L 7.359375 -10.015625 C 7.359375 -10.992188 7.691406 -12.03125 8.359375 -13.125 C 9.035156 -14.226562 9.875 -15.238281 10.875 -16.15625 C 11.882812 -17.070312 12.988281 -17.828125 14.1875 -18.421875 C 15.382812 -19.023438 16.5 -19.328125 17.53125 -19.328125 C 19.039062 -19.328125 20.226562 -18.757812 21.09375 -17.625 C 21.96875 -16.5 22.40625 -15.035156 22.40625 -13.234375 C 22.40625 -11.890625 22.234375 -10.710938 21.890625 -9.703125 C 21.554688 -8.703125 21.109375 -7.78125 20.546875 -6.9375 C 19.984375 -6.09375 19.335938 -5.289062 18.609375 -4.53125 C 17.890625 -3.769531 17.160156 -2.96875 16.421875 -2.125 L 20.65625 0.421875 C 21.425781 -0.140625 22.164062 -0.804688 22.875 -1.578125 C 23.582031 -2.359375 24.207031 -3.195312 24.75 -4.09375 C 25.300781 -5 25.742188 -5.953125 26.078125 -6.953125 C 26.410156 -7.960938 26.578125 -9 26.578125 -10.0625 C 26.578125 -11.363281 26.3125 -12.703125 25.78125 -14.078125 C 25.257812 -15.460938 24.519531 -16.707031 23.5625 -17.8125 C 22.613281 -18.925781 21.472656 -19.835938 20.140625 -20.546875 C 18.816406 -21.253906 17.363281 -21.609375 15.78125 -21.609375 C 14.613281 -21.609375 13.585938 -21.457031 12.703125 -21.15625 C 11.828125 -20.851562 11.0625 -20.472656 10.40625 -20.015625 C 9.75 -19.554688 9.191406 -19.070312 8.734375 -18.5625 C 8.273438 -18.050781 7.867188 -17.582031 7.515625 -17.15625 L 7.515625 -24.9375 Z M 28.390625 -24.9375 "/></g></g></g><g fill="#545454" fill-opacity="1"><g transform="translate(168.742857, 77.39639)"><g><path d="M 4.4375 -5.09375 L 4.4375 0 L 3.6875 0 L 3.6875 -3.03125 L 2.6875 -3.03125 C 2.3125 -3.03125 2.03125 -3.007812 1.84375 -2.96875 C 1.65625 -2.9375 1.503906 -2.867188 1.390625 -2.765625 C 1.234375 -2.640625 1.15625 -2.445312 1.15625 -2.1875 C 1.15625 -1.882812 1.269531 -1.59375 1.5 -1.3125 C 1.726562 -1.03125 2.0625 -0.71875 2.5 -0.375 L 2 0.109375 C 1.707031 -0.140625 1.441406 -0.382812 1.203125 -0.625 C 0.960938 -0.875 0.769531 -1.128906 0.625 -1.390625 C 0.488281 -1.660156 0.421875 -1.941406 0.421875 -2.234375 C 0.421875 -2.441406 0.460938 -2.632812 0.546875 -2.8125 C 0.628906 -2.988281 0.734375 -3.128906 0.859375 -3.234375 C 1.035156 -3.390625 1.25 -3.503906 1.5 -3.578125 C 1.757812 -3.648438 2.097656 -3.6875 2.515625 -3.6875 L 3.6875 -3.6875 L 3.6875 -5.09375 L 0 -5.09375 L 0 -5.75 L 5.390625 -5.75 L 5.390625 -5.09375 Z M 4.4375 -5.09375 "/></g></g></g><g fill="#545454" fill-opacity="1"><g transform="translate(174.05522, 77.39639)"><g><path d="M 1.734375 -3.609375 C 1.328125 -3.660156 1.003906 -3.78125 0.765625 -3.96875 C 0.535156 -4.15625 0.421875 -4.429688 0.421875 -4.796875 C 0.421875 -5.140625 0.53125 -5.398438 0.75 -5.578125 C 0.976562 -5.753906 1.257812 -5.84375 1.59375 -5.84375 C 1.84375 -5.84375 2.082031 -5.785156 2.3125 -5.671875 C 2.539062 -5.566406 2.726562 -5.398438 2.875 -5.171875 C 3.03125 -4.953125 3.109375 -4.671875 3.109375 -4.328125 C 3.109375 -3.878906 2.984375 -3.507812 2.734375 -3.21875 C 2.484375 -2.925781 2.132812 -2.691406 1.6875 -2.515625 C 1.820312 -2.304688 1.976562 -2.144531 2.15625 -2.03125 C 2.332031 -1.925781 2.582031 -1.875 2.90625 -1.875 C 3.21875 -1.875 3.488281 -1.9375 3.71875 -2.0625 C 3.945312 -2.1875 4.160156 -2.347656 4.359375 -2.546875 L 4.703125 -1.921875 C 4.472656 -1.722656 4.207031 -1.554688 3.90625 -1.421875 C 3.613281 -1.285156 3.257812 -1.21875 2.84375 -1.21875 C 2.320312 -1.21875 1.875 -1.363281 1.5 -1.65625 C 1.132812 -1.957031 0.890625 -2.394531 0.765625 -2.96875 C 1.347656 -3.09375 1.757812 -3.265625 2 -3.484375 C 2.238281 -3.703125 2.359375 -3.976562 2.359375 -4.3125 C 2.359375 -4.613281 2.285156 -4.84375 2.140625 -5 C 1.992188 -5.164062 1.804688 -5.25 1.578125 -5.25 C 1.421875 -5.25 1.289062 -5.210938 1.1875 -5.140625 C 1.09375 -5.066406 1.046875 -4.957031 1.046875 -4.8125 C 1.046875 -4.5 1.296875 -4.3125 1.796875 -4.25 Z M 1.734375 -3.609375 "/></g></g></g><g fill="#545454" fill-opacity="1"><g transform="translate(177.698268, 77.39639)"><g><path d="M 5.5 -5.75 L 5.5 -5.09375 L 4.53125 -5.09375 L 4.53125 0 L 3.78125 0 L 3.78125 -1.65625 C 3.613281 -1.539062 3.410156 -1.4375 3.171875 -1.34375 C 2.929688 -1.257812 2.65625 -1.21875 2.34375 -1.21875 C 1.78125 -1.21875 1.328125 -1.40625 0.984375 -1.78125 C 0.648438 -2.15625 0.4375 -2.648438 0.34375 -3.265625 C 0.726562 -3.335938 1.015625 -3.445312 1.203125 -3.59375 C 1.390625 -3.738281 1.484375 -3.945312 1.484375 -4.21875 C 1.484375 -4.394531 1.445312 -4.554688 1.375 -4.703125 C 1.300781 -4.847656 1.222656 -4.976562 1.140625 -5.09375 L 0 -5.09375 L 0 -5.75 Z M 1.1875 -2.78125 C 1.300781 -2.476562 1.453125 -2.25 1.640625 -2.09375 C 1.835938 -1.945312 2.085938 -1.875 2.390625 -1.875 C 2.703125 -1.875 2.96875 -1.9375 3.1875 -2.0625 C 3.414062 -2.195312 3.613281 -2.351562 3.78125 -2.53125 L 3.78125 -5.09375 L 1.953125 -5.09375 C 2.128906 -4.769531 2.21875 -4.441406 2.21875 -4.109375 C 2.21875 -3.441406 1.875 -3 1.1875 -2.78125 Z M 1.1875 -2.78125 "/></g></g></g><g fill="#545454" fill-opacity="1"><g transform="translate(183.102858, 77.39639)"><g/></g></g><g fill="#545454" fill-opacity="1"><g transform="translate(185.915867, 77.39639)"><g><path d="M 2.96875 -0.640625 C 3.1875 -0.703125 3.363281 -0.789062 3.5 -0.90625 C 3.644531 -1.019531 3.71875 -1.171875 3.71875 -1.359375 C 3.71875 -1.597656 3.628906 -1.78125 3.453125 -1.90625 C 3.273438 -2.039062 2.984375 -2.109375 2.578125 -2.109375 C 2.160156 -2.109375 1.835938 -2.019531 1.609375 -1.84375 C 1.390625 -1.675781 1.28125 -1.441406 1.28125 -1.140625 C 1.28125 -0.953125 1.3125 -0.769531 1.375 -0.59375 C 1.445312 -0.414062 1.59375 -0.21875 1.8125 0 C 2.03125 0.21875 2.351562 0.492188 2.78125 0.828125 L 2.296875 1.3125 C 1.722656 0.875 1.285156 0.460938 0.984375 0.078125 C 0.679688 -0.296875 0.53125 -0.722656 0.53125 -1.203125 C 0.53125 -1.429688 0.578125 -1.632812 0.671875 -1.8125 C 0.773438 -2 0.90625 -2.160156 1.0625 -2.296875 C 0.945312 -2.398438 0.847656 -2.53125 0.765625 -2.6875 C 0.679688 -2.851562 0.640625 -3.039062 0.640625 -3.25 C 0.640625 -3.425781 0.671875 -3.570312 0.734375 -3.6875 C 0.796875 -3.8125 0.878906 -3.914062 0.984375 -4 C 1.117188 -4.101562 1.273438 -4.175781 1.453125 -4.21875 C 1.640625 -4.269531 1.859375 -4.296875 2.109375 -4.296875 L 3.328125 -4.296875 L 3.328125 -5.09375 L 0 -5.09375 L 0 -5.75 L 5.046875 -5.75 L 5.046875 -5.09375 L 4.078125 -5.09375 L 4.078125 -3.640625 L 2.125 -3.640625 C 1.9375 -3.640625 1.800781 -3.628906 1.71875 -3.609375 C 1.632812 -3.585938 1.566406 -3.554688 1.515625 -3.515625 C 1.421875 -3.441406 1.375 -3.335938 1.375 -3.203125 C 1.375 -3.078125 1.40625 -2.96875 1.46875 -2.875 C 1.53125 -2.78125 1.601562 -2.695312 1.6875 -2.625 C 1.976562 -2.71875 2.289062 -2.765625 2.625 -2.765625 C 3.039062 -2.765625 3.382812 -2.695312 3.65625 -2.5625 C 3.925781 -2.4375 4.125 -2.269531 4.25 -2.0625 C 4.375 -1.851562 4.4375 -1.632812 4.4375 -1.40625 C 4.4375 -1.050781 4.328125 -0.753906 4.109375 -0.515625 C 3.898438 -0.285156 3.601562 -0.117188 3.21875 -0.015625 Z M 2.96875 -0.640625 "/></g></g></g><g fill="#545454" fill-opacity="1"><g transform="translate(190.813113, 77.39639)"><g><path d="M -1.703125 -5.671875 C -1.804688 -5.890625 -1.882812 -6.097656 -1.9375 -6.296875 C -2 -6.492188 -2.03125 -6.695312 -2.03125 -6.90625 C -2.03125 -7.300781 -1.898438 -7.628906 -1.640625 -7.890625 C -1.378906 -8.148438 -1.019531 -8.28125 -0.5625 -8.28125 C -0.195312 -8.28125 0.109375 -8.191406 0.359375 -8.015625 C 0.609375 -7.835938 0.820312 -7.5625 1 -7.1875 C 1.175781 -6.8125 1.34375 -6.332031 1.5 -5.75 L 2.515625 -5.75 L 2.515625 -5.09375 L 1.5625 -5.09375 L 1.5625 0 L 0.828125 0 L 0.828125 -5.09375 L 0 -5.09375 L 0 -5.75 L 0.796875 -5.75 C 0.628906 -6.382812 0.453125 -6.851562 0.265625 -7.15625 C 0.078125 -7.46875 -0.1875 -7.625 -0.53125 -7.625 C -0.769531 -7.625 -0.953125 -7.546875 -1.078125 -7.390625 C -1.210938 -7.242188 -1.28125 -7.035156 -1.28125 -6.765625 C -1.28125 -6.554688 -1.25 -6.367188 -1.1875 -6.203125 C -1.125 -6.035156 -1.050781 -5.859375 -0.96875 -5.671875 Z M -1.703125 -5.671875 "/></g></g></g><g fill="#545454" fill-opacity="1"><g transform="translate(193.257222, 77.39639)"><g><path d="M 0.34375 -0.75 L 0.640625 -0.765625 L 0.234375 0.921875 L 0.109375 0.921875 Z M 0.34375 -0.75 "/></g></g></g><g fill="#545454" fill-opacity="1"><g transform="translate(194.161139, 77.39639)"><g/></g></g><g fill="#545454" fill-opacity="1"><g transform="translate(196.974148, 77.39639)"><g><path d="M 5.421875 -5.09375 L 5.421875 0 L 4.671875 0 L 4.671875 -2.453125 C 4.492188 -2.398438 4.316406 -2.363281 4.140625 -2.34375 C 3.960938 -2.320312 3.753906 -2.3125 3.515625 -2.3125 C 3.253906 -2.3125 2.976562 -2.332031 2.6875 -2.375 C 2.40625 -2.425781 2.160156 -2.488281 1.953125 -2.5625 C 1.828125 -2.476562 1.691406 -2.40625 1.546875 -2.34375 C 1.796875 -2.019531 2.09375 -1.6875 2.4375 -1.34375 C 2.78125 -1.007812 3.140625 -0.691406 3.515625 -0.390625 L 3.015625 0.109375 C 2.671875 -0.191406 2.34375 -0.492188 2.03125 -0.796875 C 1.726562 -1.109375 1.457031 -1.394531 1.21875 -1.65625 C 0.988281 -1.925781 0.804688 -2.160156 0.671875 -2.359375 C 0.535156 -2.554688 0.453125 -2.707031 0.421875 -2.8125 C 0.390625 -2.925781 0.375 -3.035156 0.375 -3.140625 C 0.375 -3.253906 0.414062 -3.363281 0.5 -3.46875 C 0.59375 -3.570312 0.742188 -3.625 0.953125 -3.625 C 1.109375 -3.625 1.242188 -3.585938 1.359375 -3.515625 C 1.472656 -3.453125 1.578125 -3.359375 1.671875 -3.234375 C 1.796875 -3.347656 1.878906 -3.492188 1.921875 -3.671875 C 1.972656 -3.859375 2 -4.046875 2 -4.234375 C 2 -4.410156 1.984375 -4.570312 1.953125 -4.71875 C 1.929688 -4.875 1.898438 -5 1.859375 -5.09375 L 0 -5.09375 L 0 -5.75 L 6.375 -5.75 L 6.375 -5.09375 Z M 3.40625 -2.96875 C 3.644531 -2.96875 3.863281 -2.976562 4.0625 -3 C 4.257812 -3.03125 4.460938 -3.070312 4.671875 -3.125 L 4.671875 -5.09375 L 2.59375 -5.09375 C 2.632812 -4.988281 2.671875 -4.863281 2.703125 -4.71875 C 2.734375 -4.570312 2.75 -4.410156 2.75 -4.234375 C 2.75 -3.972656 2.71875 -3.742188 2.65625 -3.546875 C 2.601562 -3.359375 2.523438 -3.203125 2.421875 -3.078125 C 2.742188 -3.003906 3.070312 -2.96875 3.40625 -2.96875 Z M 3.40625 -2.96875 "/></g></g></g><g fill="#545454" fill-opacity="1"><g transform="translate(203.264112, 77.39639)"><g><path d="M 0 -5.75 L 3.359375 -5.75 L 3.359375 -5.09375 L 0 -5.09375 Z M 0.421875 -2.234375 C 0.421875 -2.441406 0.460938 -2.632812 0.546875 -2.8125 C 0.628906 -2.988281 0.734375 -3.128906 0.859375 -3.234375 C 1.035156 -3.390625 1.25 -3.503906 1.5 -3.578125 C 1.757812 -3.648438 2.097656 -3.6875 2.515625 -3.6875 L 3.515625 -3.6875 L 3.515625 -3.03125 L 2.6875 -3.03125 C 2.3125 -3.03125 2.03125 -3.007812 1.84375 -2.96875 C 1.65625 -2.9375 1.503906 -2.867188 1.390625 -2.765625 C 1.234375 -2.640625 1.15625 -2.445312 1.15625 -2.1875 C 1.15625 -1.882812 1.269531 -1.59375 1.5 -1.3125 C 1.726562 -1.03125 2.0625 -0.71875 2.5 -0.375 L 2 0.109375 C 1.707031 -0.140625 1.441406 -0.382812 1.203125 -0.625 C 0.960938 -0.875 0.769531 -1.128906 0.625 -1.390625 C 0.488281 -1.660156 0.421875 -1.941406 0.421875 -2.234375 Z M 0.421875 -2.234375 "/></g></g></g><g fill="#545454" fill-opacity="1"><g transform="translate(206.141265, 77.39639)"><g><path d="M 5.5 -5.75 L 5.5 -5.09375 L 4.53125 -5.09375 L 4.53125 0 L 3.78125 0 L 3.78125 -1.65625 C 3.613281 -1.539062 3.410156 -1.4375 3.171875 -1.34375 C 2.929688 -1.257812 2.65625 -1.21875 2.34375 -1.21875 C 1.78125 -1.21875 1.328125 -1.40625 0.984375 -1.78125 C 0.648438 -2.15625 0.4375 -2.648438 0.34375 -3.265625 C 0.726562 -3.335938 1.015625 -3.445312 1.203125 -3.59375 C 1.390625 -3.738281 1.484375 -3.945312 1.484375 -4.21875 C 1.484375 -4.394531 1.445312 -4.554688 1.375 -4.703125 C 1.300781 -4.847656 1.222656 -4.976562 1.140625 -5.09375 L 0 -5.09375 L 0 -5.75 Z M 1.1875 -2.78125 C 1.300781 -2.476562 1.453125 -2.25 1.640625 -2.09375 C 1.835938 -1.945312 2.085938 -1.875 2.390625 -1.875 C 2.703125 -1.875 2.96875 -1.9375 3.1875 -2.0625 C 3.414062 -2.195312 3.613281 -2.351562 3.78125 -2.53125 L 3.78125 -5.09375 L 1.953125 -5.09375 C 2.128906 -4.769531 2.21875 -4.441406 2.21875 -4.109375 C 2.21875 -3.441406 1.875 -3 1.1875 -2.78125 Z M 1.1875 -2.78125 "/></g></g></g><g fill="#545454" fill-opacity="1"><g transform="translate(211.545857, 77.39639)"><g/></g></g><g fill="#545454" fill-opacity="1"><g transform="translate(214.358866, 77.39639)"><g><path d="M 2.96875 -0.640625 C 3.1875 -0.703125 3.363281 -0.789062 3.5 -0.90625 C 3.644531 -1.019531 3.71875 -1.171875 3.71875 -1.359375 C 3.71875 -1.597656 3.628906 -1.78125 3.453125 -1.90625 C 3.273438 -2.039062 2.984375 -2.109375 2.578125 -2.109375 C 2.160156 -2.109375 1.835938 -2.019531 1.609375 -1.84375 C 1.390625 -1.675781 1.28125 -1.441406 1.28125 -1.140625 C 1.28125 -0.953125 1.3125 -0.769531 1.375 -0.59375 C 1.445312 -0.414062 1.59375 -0.21875 1.8125 0 C 2.03125 0.21875 2.351562 0.492188 2.78125 0.828125 L 2.296875 1.3125 C 1.722656 0.875 1.285156 0.460938 0.984375 0.078125 C 0.679688 -0.296875 0.53125 -0.722656 0.53125 -1.203125 C 0.53125 -1.429688 0.578125 -1.632812 0.671875 -1.8125 C 0.773438 -2 0.90625 -2.160156 1.0625 -2.296875 C 0.945312 -2.398438 0.847656 -2.53125 0.765625 -2.6875 C 0.679688 -2.851562 0.640625 -3.039062 0.640625 -3.25 C 0.640625 -3.425781 0.671875 -3.570312 0.734375 -3.6875 C 0.796875 -3.8125 0.878906 -3.914062 0.984375 -4 C 1.117188 -4.101562 1.273438 -4.175781 1.453125 -4.21875 C 1.640625 -4.269531 1.859375 -4.296875 2.109375 -4.296875 L 3.328125 -4.296875 L 3.328125 -5.09375 L 0 -5.09375 L 0 -5.75 L 5.046875 -5.75 L 5.046875 -5.09375 L 4.078125 -5.09375 L 4.078125 -3.640625 L 2.125 -3.640625 C 1.9375 -3.640625 1.800781 -3.628906 1.71875 -3.609375 C 1.632812 -3.585938 1.566406 -3.554688 1.515625 -3.515625 C 1.421875 -3.441406 1.375 -3.335938 1.375 -3.203125 C 1.375 -3.078125 1.40625 -2.96875 1.46875 -2.875 C 1.53125 -2.78125 1.601562 -2.695312 1.6875 -2.625 C 1.976562 -2.71875 2.289062 -2.765625 2.625 -2.765625 C 3.039062 -2.765625 3.382812 -2.695312 3.65625 -2.5625 C 3.925781 -2.4375 4.125 -2.269531 4.25 -2.0625 C 4.375 -1.851562 4.4375 -1.632812 4.4375 -1.40625 C 4.4375 -1.050781 4.328125 -0.753906 4.109375 -0.515625 C 3.898438 -0.285156 3.601562 -0.117188 3.21875 -0.015625 Z M 2.96875 -0.640625 "/></g></g></g><g fill="#545454" fill-opacity="1"><g transform="translate(219.256109, 77.39639)"><g><path d="M -1.65625 -5.671875 C -1.820312 -5.921875 -1.972656 -6.101562 -2.109375 -6.21875 C -2.242188 -6.332031 -2.378906 -6.40625 -2.515625 -6.4375 C -2.648438 -6.46875 -2.796875 -6.484375 -2.953125 -6.484375 C -3.078125 -6.484375 -3.203125 -6.460938 -3.328125 -6.421875 C -3.460938 -6.390625 -3.59375 -6.347656 -3.71875 -6.296875 L -3.953125 -6.9375 C -3.816406 -7 -3.671875 -7.046875 -3.515625 -7.078125 C -3.359375 -7.117188 -3.191406 -7.140625 -3.015625 -7.140625 C -2.734375 -7.140625 -2.484375 -7.070312 -2.265625 -6.9375 C -2.054688 -6.800781 -1.878906 -6.617188 -1.734375 -6.390625 L -1.6875 -6.40625 C -1.820312 -6.726562 -1.941406 -6.976562 -2.046875 -7.15625 C -2.160156 -7.332031 -2.285156 -7.457031 -2.421875 -7.53125 C -2.566406 -7.601562 -2.734375 -7.640625 -2.921875 -7.640625 C -3.066406 -7.640625 -3.1875 -7.625 -3.28125 -7.59375 C -3.382812 -7.570312 -3.476562 -7.539062 -3.5625 -7.5 L -3.78125 -8.140625 C -3.539062 -8.234375 -3.257812 -8.28125 -2.9375 -8.28125 C -2.601562 -8.28125 -2.3125 -8.195312 -2.0625 -8.03125 C -1.820312 -7.875 -1.601562 -7.609375 -1.40625 -7.234375 C -1.21875 -6.859375 -1.039062 -6.335938 -0.875 -5.671875 Z M -1.65625 -5.671875 "/></g></g></g><g fill="#545454" fill-opacity="1"><g transform="translate(219.311539, 77.39639)"><g><path d="M 0.546875 0.03125 C 0.472656 0.03125 0.40625 0.00390625 0.34375 -0.046875 C 0.289062 -0.109375 0.265625 -0.179688 0.265625 -0.265625 C 0.265625 -0.347656 0.289062 -0.414062 0.34375 -0.46875 C 0.394531 -0.519531 0.460938 -0.546875 0.546875 -0.546875 C 0.628906 -0.546875 0.695312 -0.515625 0.75 -0.453125 C 0.8125 -0.398438 0.84375 -0.332031 0.84375 -0.25 C 0.84375 -0.175781 0.8125 -0.109375 0.75 -0.046875 C 0.695312 0.00390625 0.628906 0.03125 0.546875 0.03125 Z M 0.546875 0.03125 "/></g></g></g><g fill="#545454" fill-opacity="1"><g transform="translate(220.387381, 77.39639)"><g/></g></g></svg>